<svg id="Capa_1" enable-background="new 0 0 512 512" height="512" viewBox="0 0 512 512" width="512" xmlns="http://www.w3.org/2000/svg"><g><path d="m302.358 54.6h-92.716v-44.298c0-5.69 4.612-10.302 10.302-10.302h72.113c5.69 0 10.302 4.612 10.302 10.302v44.298z" fill="#d1a08f"/><path d="m292.056 0h-30.905c5.69 0 10.302 4.612 10.302 10.302v44.298h30.905v-44.298c0-5.69-4.612-10.302-10.302-10.302z" fill="#c68d7a"/><path d="m338.451 512h-164.902c-10.526 0-19.36-7.935-20.486-18.401l-6.935-64.493 8.004-69.276-25.914-97.288-.885-8.231c-1.977-18.385 6.052-36.418 21.037-47.251l52.738-38.124c5.359-3.874 8.533-10.085 8.533-16.698v-97.638h92.716v97.64c0 6.613 3.174 12.824 8.533 16.698l52.738 38.124c14.985 10.833 23.014 28.866 21.037 47.251l-.885 8.231-24.408 83.282 6.498 83.282-6.935 64.493c-1.124 10.464-9.958 18.399-20.484 18.399z" fill="#feca9c"/><path d="m363.629 207.061-52.738-38.124c-5.359-3.874-8.533-10.085-8.533-16.698v-66.734h-30.905v82.187c0 6.613 3.174 12.824 8.533 16.698l52.738 38.124c14.985 10.833 23.014 28.866 21.037 47.251l-25.73 239.288c-.109 1.011-.31 1.989-.557 2.948h10.977c10.526 0 19.36-7.935 20.486-18.401l6.935-64.493-6.498-83.282 24.408-83.282.885-8.231c1.976-18.385-6.053-36.419-21.038-47.251z" fill="#fdb97e"/><path d="m302.358 85.505h-92.716c-8.534 0-15.453-6.918-15.453-15.453 0-8.534 6.918-15.453 15.453-15.453h92.716c8.534 0 15.453 6.918 15.453 15.453 0 8.535-6.919 15.453-15.453 15.453z" fill="#fedbbd"/><path d="m302.358 54.6h-30.905c8.534 0 15.453 6.918 15.453 15.453s-6.918 15.453-15.453 15.453h30.905c8.534 0 15.453-6.918 15.453-15.453s-6.919-15.453-15.453-15.453z" fill="#feca9c"/><path d="m146.129 429.106h219.742l17.91-166.563h-255.562z" fill="#eaf6ff"/><path d="m353.761 269.764-17.133 159.342h29.244l17.91-166.563h-29.758c.079 2.391-.003 4.803-.263 7.221z" fill="#d8ecfe"/><path d="m287.405 290.389c-10.013-2.167-20.547 3.001-29.193 12.962-2.407 2.773-6.677 2.774-9.084 0-8.646-9.961-19.18-15.128-29.193-12.962-18.71 4.049-28.508 32.15-21.883 62.766s27.163 52.154 45.873 48.105c2.398-.519 4.648-1.436 6.736-2.702 1.836-1.113 4.182-1.113 6.019 0 2.088 1.266 4.338 2.183 6.736 2.702 18.71 4.049 39.249-17.489 45.873-48.105s-3.174-58.718-21.884-62.766z" fill="#f58a97"/><g><path d="m287.405 290.389c-6.935-1.501-14.118.522-20.753 5.213 11.831 10.273 17.021 33.104 11.73 57.554-5.956 27.525-23.157 47.699-40.166 48.553 1.91.096 3.818-.04 5.707-.448 2.398-.519 4.648-1.436 6.736-2.702 1.837-1.113 4.182-1.113 6.019 0 2.088 1.266 4.338 2.183 6.736 2.702 18.711 4.049 39.249-17.489 45.873-48.105 6.626-30.617-3.172-58.719-21.882-62.767z" fill="#f07281"/></g><g><g><path d="m238.217 359.83c-4.267 0-7.726-3.459-7.726-7.726v-12.559c0-4.267 3.459-7.726 7.726-7.726s7.726 3.459 7.726 7.726v12.559c0 4.267-3.459 7.726-7.726 7.726z" fill="#3d6d93"/></g><g><path d="m269.122 359.83c-4.267 0-7.726-3.459-7.726-7.726v-12.559c0-4.267 3.459-7.726 7.726-7.726s7.726 3.459 7.726 7.726v12.559c.001 4.267-3.459 7.726-7.726 7.726z" fill="#3d6d93"/></g></g></g></svg>