<svg id="Capa_1" enable-background="new 0 0 512 512" height="512" viewBox="0 0 512 512" width="512" xmlns="http://www.w3.org/2000/svg"><g><path d="m459.138 433.487-133.224-133.223c-9.854-9.854-2.875-26.703 11.061-26.703h50.901c13.936 0 20.915-16.849 11.061-26.703l-90.852-90.852c-9.854-9.854-2.875-26.703 11.061-26.703h34.87c13.936 0 20.915-16.849 11.061-26.703l-98.016-98.018c-6.109-6.109-16.013-6.109-22.122 0l-98.016 98.016c-9.854 9.854-2.875 26.703 11.061 26.703h34.87c13.936 0 20.915 16.849 11.061 26.703l-90.852 90.852c-9.854 9.854-2.875 26.703 11.061 26.703h50.901c13.936 0 20.915 16.849 11.061 26.703l-133.224 133.225c-9.854 9.854-2.875 26.703 11.061 26.703h146.435c5.69 0 10.302 4.612 10.302 10.302v31.206c0 5.69 4.612 10.302 10.302 10.302h50.076c5.69 0 10.302-4.612 10.302-10.302v-31.206c0-5.69 4.612-10.302 10.302-10.302h146.435c13.936 0 20.915-16.849 11.061-26.703z" fill="#feca9c"/><g fill="#fdb97e"><path d="m334.171 102.597c9.854 9.854 2.875 26.703-11.061 26.703h30.905c13.936 0 20.915-16.849 11.061-26.703l-98.015-98.015c-6.109-6.109-16.013-6.109-22.122 0l-4.392 4.392z"/><path d="m319.146 129.301h-30.906c-13.936 0-20.915 16.849-11.061 26.703l90.852 90.852c9.854 9.854 2.875 26.703-11.061 26.703h30.905c13.936 0 20.915-16.849 11.061-26.703l-90.852-90.852c-9.854-9.854-2.874-26.703 11.062-26.703z"/><path d="m260.434 470.492v31.206c0 5.69-4.612 10.302-10.302 10.302h30.905c5.689 0 10.302-4.612 10.302-10.302v-31.206c0-5.69 4.612-10.302 10.302-10.302h-30.905c-5.689 0-10.302 4.612-10.302 10.302z"/><path d="m459.138 433.487-133.224-133.223c-9.854-9.854-2.875-26.703 11.061-26.703h-30.905c-13.936 0-20.915 16.849-11.061 26.703l133.223 133.223c9.854 9.854 2.875 26.703-11.061 26.703h30.905c13.937 0 20.916-16.849 11.062-26.703z"/></g><g><circle cx="256" cy="82.24" fill="#f58a97" r="15.968"/></g><path d="m256 66.272c-3.323 0-6.407 1.017-8.963 2.753 4.227 2.873 7.005 7.718 7.005 13.214s-2.778 10.342-7.005 13.214c2.555 1.737 5.64 2.753 8.963 2.753 8.819 0 15.968-7.149 15.968-15.968s-7.149-15.966-15.968-15.966z" fill="#f07281"/><g><circle cx="256" cy="184.918" fill="#f58a97" r="15.968"/></g><g><g><circle cx="256" cy="293.087" fill="#f58a97" r="15.968"/></g><g><circle cx="256" cy="427.01" fill="#f58a97" r="15.968"/></g></g><g><circle cx="147.831" cy="410.527" fill="#f58a97" r="15.968"/></g><g><circle cx="364.169" cy="410.527" fill="#f58a97" r="15.968"/></g><g><path d="m317.465 251.879c-10.034 0-15.377-3.581-19.67-6.459-3.452-2.314-5.732-3.843-11.066-3.843-5.333 0-7.613 1.529-11.063 3.842-4.293 2.878-9.636 6.46-19.669 6.46-10.034 0-15.376-3.582-19.67-6.46-3.451-2.313-5.73-3.842-11.063-3.842s-7.613 1.529-11.063 3.842c-4.293 2.878-9.636 6.46-19.669 6.46s-15.375-3.581-19.668-6.46c-3.451-2.313-5.73-3.842-11.063-3.842-4.268 0-7.726-3.459-7.726-7.726s3.459-7.726 7.726-7.726c10.033 0 15.376 3.582 19.669 6.46 3.451 2.314 5.73 3.842 11.062 3.842 5.333 0 7.613-1.529 11.063-3.842 4.293-2.878 9.636-6.46 19.669-6.46s15.375 3.581 19.669 6.459c3.451 2.314 5.731 3.843 11.064 3.843s7.613-1.529 11.063-3.842c4.293-2.878 9.636-6.46 19.669-6.46 10.034 0 15.377 3.581 19.67 6.459 3.452 2.314 5.732 3.843 11.066 3.843s7.615-1.529 11.066-3.843c4.293-2.878 9.636-6.459 19.67-6.459 4.268 0 7.726 3.459 7.726 7.726s-3.459 7.726-7.726 7.726c-5.334 0-7.615 1.529-11.066 3.843-4.293 2.878-9.636 6.459-19.67 6.459z" fill="#fdf6ec"/></g><g><path d="m255.996 141.868c-9.591 0-14.687-3.417-18.783-6.162-3.297-2.21-5.288-3.545-10.177-3.545-4.268 0-7.726-3.459-7.726-7.726s3.459-7.726 7.726-7.726c9.591 0 14.687 3.417 18.783 6.162 3.297 2.21 5.288 3.545 10.177 3.545s6.879-1.334 10.176-3.545c4.096-2.745 9.192-6.162 18.783-6.162 4.268 0 7.726 3.459 7.726 7.726s-3.459 7.726-7.726 7.726c-4.889 0-6.88 1.335-10.177 3.545-4.096 2.745-9.192 6.162-18.782 6.162z" fill="#fdf6ec"/></g><g><path d="m317.465 376.016c-10.034 0-15.377-3.582-19.67-6.459-3.452-2.314-5.732-3.843-11.066-3.843-5.333 0-7.613 1.529-11.063 3.842-4.293 2.878-9.636 6.46-19.669 6.46-10.034 0-15.376-3.582-19.67-6.46-3.451-2.313-5.73-3.842-11.063-3.842s-7.613 1.529-11.063 3.842c-4.293 2.878-9.636 6.46-19.669 6.46s-15.375-3.582-19.668-6.46c-3.451-2.313-5.73-3.842-11.063-3.842-4.268 0-7.726-3.459-7.726-7.726s3.459-7.726 7.726-7.726c10.033 0 15.376 3.582 19.669 6.46 3.451 2.314 5.73 3.842 11.062 3.842 5.333 0 7.613-1.529 11.063-3.842 4.293-2.878 9.636-6.46 19.669-6.46s15.375 3.581 19.669 6.459c3.451 2.314 5.731 3.843 11.064 3.843s7.613-1.529 11.063-3.842c4.293-2.878 9.636-6.46 19.669-6.46 10.034 0 15.377 3.581 19.67 6.459 3.452 2.314 5.732 3.843 11.066 3.843s7.615-1.529 11.066-3.843c4.293-2.878 9.636-6.459 19.67-6.459 4.268 0 7.726 3.459 7.726 7.726s-3.459 7.726-7.726 7.726c-5.334 0-7.615 1.529-11.066 3.843-4.293 2.878-9.636 6.459-19.67 6.459z" fill="#fdf6ec"/></g><g fill="#f07281"><path d="m256 168.95c-3.323 0-6.407 1.017-8.963 2.753 4.227 2.873 7.005 7.718 7.005 13.214s-2.778 10.342-7.005 13.214c2.555 1.737 5.64 2.753 8.963 2.753 8.819 0 15.968-7.149 15.968-15.968s-7.149-15.966-15.968-15.966z"/><path d="m256 277.119c-3.323 0-6.407 1.017-8.963 2.753 4.227 2.873 7.005 7.719 7.005 13.214s-2.778 10.342-7.005 13.214c2.555 1.737 5.64 2.753 8.963 2.753 8.819 0 15.968-7.149 15.968-15.968s-7.149-15.966-15.968-15.966z"/><path d="m256 411.042c-3.323 0-6.407 1.017-8.963 2.753 4.227 2.873 7.005 7.719 7.005 13.214s-2.778 10.342-7.005 13.214c2.555 1.737 5.64 2.753 8.963 2.753 8.819 0 15.968-7.149 15.968-15.968s-7.149-15.966-15.968-15.966z"/><path d="m147.831 394.559c-3.323 0-6.407 1.017-8.963 2.753 4.227 2.873 7.005 7.719 7.005 13.214s-2.778 10.342-7.005 13.214c2.555 1.737 5.64 2.753 8.963 2.753 8.819 0 15.968-7.149 15.968-15.968s-7.149-15.966-15.968-15.966z"/><path d="m364.169 394.559c-3.323 0-6.407 1.017-8.963 2.753 4.227 2.873 7.005 7.719 7.005 13.214s-2.778 10.342-7.005 13.214c2.555 1.737 5.64 2.753 8.963 2.753 8.819 0 15.968-7.149 15.968-15.968s-7.149-15.966-15.968-15.966z"/></g></g></svg>