<svg id="Capa_1" enable-background="new 0 0 512 512" height="512" viewBox="0 0 512 512" width="512" xmlns="http://www.w3.org/2000/svg"><g><path d="m403.844 2.112-142.317 142.317c-2.816 2.816-2.816 7.382 0 10.198l24.455 24.455c2.816 2.816 7.382 2.816 10.198 0l142.317-142.317c2.816-2.816 2.816-7.382 0-10.198l-24.455-24.455c-2.816-2.816-7.382-2.816-10.198 0z" fill="#d1a08f"/><path d="m438.497 26.567-24.455-24.455c-2.816-2.816-7.382-2.816-10.198 0l-10.354 10.354 14.101 14.101c2.816 2.816 2.816 7.382 0 10.198l-131.963 131.964 10.354 10.354c2.816 2.816 7.382 2.816 10.198 0l142.317-142.318c2.816-2.816 2.816-7.382 0-10.198z" fill="#c68d7a"/><g><path d="m254.12 70.423h-55.944c-14.943 0-27.057-12.114-27.057-27.057 0-14.943 12.114-27.057 27.057-27.057h40.418c5.292-.048 15.031-.858 25.543-6.273 4.914-2.531 8.832-5.47 11.847-8.177 1.604-1.441 4.151-.33 4.151 1.826v40.724c-.001 14.368-11.648 26.014-26.015 26.014z" fill="#fff5c6"/><path d="m275.984 1.859c-3.014 2.707-6.933 5.645-11.847 8.177-5.329 2.745-10.455 4.304-14.908 5.183v29.191c0 14.367-11.647 26.014-26.014 26.014h30.905c14.367 0 26.014-11.647 26.014-26.014v-40.724c0-2.156-2.546-3.267-4.15-1.827z" fill="#fceba4"/><path d="m276.234 124.538h-101.215c-14.943 0-27.057-12.114-27.057-27.057 0-14.943 12.114-27.057 27.057-27.057h101.215c14.943 0 27.057 12.114 27.057 27.057 0 14.943-12.114 27.057-27.057 27.057z" fill="#fef0ae"/><path d="m276.234 70.423h-30.905c14.943 0 27.057 12.114 27.057 27.057 0 14.943-12.114 27.057-27.057 27.057h30.905c14.943 0 27.057-12.114 27.057-27.057 0-14.943-12.114-27.057-27.057-27.057z" fill="#fce68d"/><path d="m313.397 178.652h-175.54c-14.943 0-27.057-12.114-27.057-27.057 0-14.943 12.114-27.057 27.057-27.057h175.54c14.943 0 27.057 12.114 27.057 27.057 0 14.943-12.114 27.057-27.057 27.057z" fill="#fff5c6"/><path d="m313.397 124.538h-30.905c14.943 0 27.057 12.114 27.057 27.057 0 14.943-12.114 27.057-27.057 27.057h30.905c14.943 0 27.057-12.114 27.057-27.057 0-14.943-12.114-27.057-27.057-27.057z" fill="#fceba4"/></g><path d="m307.06 512h-153.248c-48.434 0-86.426-41.567-82.082-89.806l22.227-246.854c.335-3.717 3.45-6.565 7.182-6.565h258.593c3.732 0 6.848 2.848 7.182 6.565l22.228 246.855c4.344 48.238-33.647 89.805-82.082 89.805z" fill="#fff5c6"/><path d="m389.143 422.194-22.228-246.854c-.335-3.717-3.45-6.565-7.182-6.565h-30.905c3.732 0 6.847 2.848 7.182 6.565l22.228 246.855c4.343 48.238-33.649 89.805-82.083 89.805h30.905c48.434 0 86.426-41.567 82.083-89.806z" fill="#fceba4"/><path d="m359.733 168.775h-258.594c-3.732 0-6.847 2.848-7.182 6.565l-4.975 55.246h282.907l-4.975-55.246c-.334-3.717-3.449-6.565-7.181-6.565z" fill="#d1a08f"/><path d="m366.915 175.34c-.335-3.717-3.45-6.565-7.182-6.565h-30.905c3.732 0 6.847 2.848 7.182 6.565l4.975 55.246h30.905z" fill="#c68d7a"/></g></svg>