<svg id="Capa_1" enable-background="new 0 0 512 512" height="512" viewBox="0 0 512 512" width="512" xmlns="http://www.w3.org/2000/svg"><g><g><circle cx="256" cy="61.572" fill="#f58a97" r="33.128"/><path d="m256.109 28.444c-5.49 0-10.664 1.344-15.223 3.708 10.634 5.514 17.905 16.615 17.905 29.421s-7.271 23.907-17.905 29.421c4.559 2.364 9.733 3.707 15.223 3.707 18.296 0 33.128-14.832 33.128-33.128 0-18.297-14.832-33.129-33.128-33.129z" fill="#f07281"/><g><path d="m255.94 56.681c-3.524 0-6.687-2.461-7.441-6.048-1.041-4.952-3.57-22.264 7.582-37.087 4.06-5.396 9.302-9.693 15.578-12.769 3.775-1.848 8.334-.289 10.185 3.485 1.85 3.775.289 8.334-3.485 10.185-4.105 2.011-7.507 4.788-10.113 8.252-7.298 9.699-5.556 21.437-4.849 24.803.98 4.661-2.666 9.179-7.457 9.179z" fill="#aee69c"/></g></g><g><circle cx="377.784" cy="61.572" fill="#f58a97" r="33.128"/><path d="m377.784 28.444c-5.49 0-10.664 1.344-15.223 3.708 10.634 5.514 17.905 16.615 17.905 29.421s-7.271 23.907-17.905 29.421c4.559 2.364 9.733 3.707 15.223 3.707 18.296 0 33.128-14.832 33.128-33.128 0-18.297-14.832-33.129-33.128-33.129z" fill="#f07281"/><g><path d="m377.724 56.681c-3.524 0-6.687-2.461-7.441-6.048-1.041-4.952-3.57-22.264 7.582-37.087 4.06-5.396 9.302-9.693 15.578-12.769 3.776-1.848 8.334-.289 10.185 3.485 1.85 3.775.289 8.334-3.485 10.185-4.105 2.011-7.507 4.788-10.113 8.252-7.298 9.699-5.556 21.437-4.849 24.803.979 4.661-2.666 9.179-7.457 9.179z" fill="#aee69c"/></g></g><g><circle cx="134.216" cy="61.572" fill="#f58a97" r="33.128"/><path d="m134.434 28.444c-5.49 0-10.664 1.344-15.223 3.708 10.634 5.514 17.905 16.615 17.905 29.421s-7.271 23.907-17.905 29.421c4.559 2.364 9.733 3.707 15.223 3.707 18.296 0 33.128-14.832 33.128-33.128 0-18.297-14.832-33.129-33.128-33.129z" fill="#f07281"/><g><path d="m134.156 56.681c-3.524 0-6.687-2.461-7.441-6.048-1.041-4.952-3.57-22.264 7.582-37.087 4.06-5.396 9.302-9.693 15.578-12.769 3.776-1.848 8.334-.289 10.185 3.485 1.85 3.775.289 8.334-3.485 10.185-4.105 2.011-7.507 4.788-10.113 8.252-7.298 9.699-5.556 21.437-4.849 24.803.98 4.661-2.665 9.179-7.457 9.179z" fill="#aee69c"/></g></g><path d="m57.721 111.317h396.559v141.893h-396.559z" fill="#feaee1"/><path d="m423.833 111.316h30.446v141.893h-30.446z" fill="#fe93d3"/><path d="m295.763 512h-79.526c-3.005 0-4.968-3.152-3.644-5.849l1.2-2.444c16.633-33.867 16.633-73.53 0-107.397l-4.073-8.293h92.559l-4.073 8.293c-16.633 33.867-16.633 73.53 0 107.397l1.2 2.444c1.326 2.697-.638 5.849-3.643 5.849z" fill="#bad6e5"/><path d="m298.206 503.707c-16.633-33.867-16.633-73.53 0-107.397l4.073-8.293h-30.446l-4.073 8.293c-16.633 33.867-16.633 73.53 0 107.397l1.2 2.444c1.325 2.697-.639 5.849-3.644 5.849h30.446c3.005 0 4.968-3.152 3.644-5.849z" fill="#a6cee0"/><path d="m24.574 217.877h462.851v141.893h-462.851z" fill="#feaee1"/><path d="m456.98 217.877h30.446v141.893h-30.446z" fill="#fe93d3"/><path d="m44.401 390.216h423.198c22.42 0 40.595-18.175 40.595-40.595 0-4.653-3.772-8.426-8.426-8.426h-487.536c-4.653 0-8.426 3.772-8.426 8.426 0 22.421 18.175 40.595 40.595 40.595z" fill="#d8e8f0"/><path d="m499.768 341.196h-30.446c4.653 0 8.426 3.772 8.426 8.426 0 22.42-18.175 40.595-40.595 40.595h30.446c22.42 0 40.595-18.175 40.595-40.595 0-4.654-3.773-8.426-8.426-8.426z" fill="#bad6e5"/><path d="m3.806 240.712c0 13.537 10.974 24.51 24.51 24.51h46.524c8.124 0 14.709 6.586 14.709 14.709v10.475c0 11.235 9.108 20.344 20.344 20.344 11.235 0 20.344-9.108 20.344-20.344v-10.475c0-8.124 6.586-14.709 14.709-14.709h76.001c8.124 0 14.709 6.586 14.709 14.709v10.475c0 11.235 9.108 20.344 20.344 20.344 11.235 0 20.344-9.108 20.344-20.344v-10.475c0-8.124 6.586-14.709 14.709-14.709h76.001c8.124 0 14.709 6.586 14.709 14.709v10.475c0 11.235 9.108 20.344 20.344 20.344 11.235 0 20.344-9.108 20.344-20.344v-10.475c0-8.124 6.586-14.709 14.709-14.709h46.523c13.537 0 24.51-10.974 24.51-24.51 0-13.537-10.974-24.51-24.51-24.51h-455.367c-13.536-.001-24.51 10.973-24.51 24.51z" fill="#fff5c6"/><g fill="#fceba4"><path d="m99.791 279.931v10.475c0 5.17-1.944 9.874-5.121 13.463 3.727 4.211 9.157 6.88 15.223 6.88 11.235 0 20.344-9.108 20.344-20.344v-10.475c0-8.124 6.586-14.709 14.709-14.709h-30.446c-8.124.001-14.709 6.586-14.709 14.71z"/><path d="m245.898 279.931v10.475c0 5.17-1.944 9.874-5.121 13.463 3.727 4.211 9.157 6.88 15.223 6.88 11.235 0 20.344-9.108 20.344-20.344v-10.475c0-8.124 6.586-14.709 14.709-14.709h-30.446c-8.124.001-14.709 6.586-14.709 14.71z"/><path d="m483.684 216.201h-30.446c13.536 0 24.51 10.974 24.51 24.51 0 13.537-10.974 24.51-24.51 24.51h30.446c13.536 0 24.51-10.974 24.51-24.51 0-13.536-10.974-24.51-24.51-24.51z"/><path d="m392.005 279.931v10.475c0 5.17-1.944 9.874-5.121 13.463 3.727 4.211 9.157 6.88 15.223 6.88 11.235 0 20.344-9.108 20.344-20.344v-10.475c0-8.124 6.586-14.709 14.709-14.709h-30.446c-8.124.001-14.709 6.586-14.709 14.71z"/></g><path d="m19.029 103.775c0 13.537 10.974 24.51 24.51 24.51h31.301c8.124 0 14.709 6.586 14.709 14.709v10.475c0 11.235 9.108 20.344 20.344 20.344 11.235 0 20.344-9.108 20.344-20.344v-10.475c0-8.124 6.586-14.709 14.709-14.709h76.001c8.124 0 14.709 6.586 14.709 14.709v10.475c0 11.235 9.108 20.344 20.344 20.344 11.235 0 20.344-9.108 20.344-20.344v-10.475c0-8.124 6.586-14.709 14.709-14.709h76.001c8.124 0 14.709 6.586 14.709 14.709v10.475c0 11.235 9.108 20.344 20.344 20.344 11.235 0 20.344-9.108 20.344-20.344v-10.475c0-8.124 6.586-14.709 14.709-14.709h31.301c13.537 0 24.51-10.974 24.51-24.51 0-13.537-10.974-24.51-24.51-24.51h-424.922c-13.536 0-24.51 10.974-24.51 24.51z" fill="#fff5c6"/><g fill="#fceba4"><path d="m99.791 142.995v10.475c0 5.17-1.944 9.874-5.121 13.463 3.727 4.211 9.157 6.88 15.223 6.88 11.235 0 20.344-9.108 20.344-20.344v-10.475c0-8.124 6.586-14.709 14.709-14.709h-30.446c-8.124.001-14.709 6.586-14.709 14.71z"/><path d="m245.898 142.995v10.475c0 5.17-1.944 9.874-5.121 13.463 3.727 4.211 9.157 6.88 15.223 6.88 11.235 0 20.344-9.108 20.344-20.344v-10.475c0-8.124 6.586-14.709 14.709-14.709h-30.446c-8.124.001-14.709 6.586-14.709 14.71z"/><path d="m468.461 79.265h-30.446c13.536 0 24.51 10.974 24.51 24.51 0 13.537-10.974 24.51-24.51 24.51h30.446c13.536 0 24.51-10.974 24.51-24.51 0-13.536-10.974-24.51-24.51-24.51z"/><path d="m392.005 142.995v10.475c0 5.17-1.944 9.874-5.121 13.463 3.727 4.211 9.157 6.88 15.223 6.88 11.235 0 20.344-9.108 20.344-20.344v-10.475c0-8.124 6.586-14.709 14.709-14.709h-30.446c-8.124.001-14.709 6.586-14.709 14.71z"/></g></g></svg>