<svg id="Capa_1" enable-background="new 0 0 512 512" height="512" viewBox="0 0 512 512" width="512" xmlns="http://www.w3.org/2000/svg"><g><g><path d="m429.824 466.331h-347.648c-11.628 0-22.24-6.623-27.35-17.068l-37.32-76.299h476.987l-37.32 76.299c-5.109 10.445-15.721 17.068-27.349 17.068z" fill="#eaf6ff"/><path d="m134.93 512h242.14c6.786 0 13.124-3.392 16.888-9.038l24.42-36.631h-324.757l24.42 36.631c3.765 5.646 10.103 9.038 16.889 9.038z" fill="#d8ecfe"/><path d="m387.933 466.331-24.42 36.631c-3.764 5.647-10.102 9.038-16.888 9.038h30.446c6.786 0 13.124-3.392 16.888-9.038l24.42-36.631z" fill="#c4e2ff"/><path d="m464.048 372.963h-446.542l27.069 55.341c3.668.817 7.477 1.26 11.391 1.26 14.576 0 27.75-5.979 37.212-15.618 7.063-7.196 18.53-7.196 25.594 0 9.461 9.639 22.636 15.618 37.212 15.618s27.75-5.979 37.212-15.618c7.063-7.196 18.53-7.196 25.594 0 9.461 9.639 22.636 15.618 37.212 15.618s27.75-5.979 37.212-15.618c7.063-7.196 18.53-7.196 25.594 0 9.461 9.639 22.636 15.618 37.212 15.618s27.75-5.979 37.212-15.618c7.042-7.174 18.507-7.241 25.538-.057.539.551 1.09 1.09 1.653 1.616 9.227 8.632 11.993 22.134 6.442 33.484l-.134.273c-5.109 10.445-15.722 17.069-27.35 17.069h30.446c11.628 0 22.24-6.623 27.35-17.068l37.32-76.299h-30.449z" fill="#d8ecfe"/><path d="m458.524 294.871c-1.966-.093-3.908-.075-5.822.047-7.504.478-14.503-3.608-17.615-10.452-26.607-58.518-96.515-100.296-178.581-100.296-82.083 0-152.004 41.794-178.599 100.331-3.156 6.946-10.288 11.05-17.895 10.465-1.91-.147-3.849-.19-5.812-.126-27.156.898-49.348 22.986-50.358 50.134-1.105 29.71 22.656 54.143 52.124 54.143 14.576 0 27.75-5.979 37.212-15.618 7.063-7.195 18.531-7.195 25.594 0 9.461 9.639 22.636 15.618 37.212 15.618s27.751-5.979 37.212-15.618c7.063-7.195 18.531-7.195 25.594 0 9.461 9.639 22.636 15.618 37.212 15.618s27.75-5.979 37.212-15.618c7.063-7.195 18.531-7.195 25.594 0 9.461 9.639 22.636 15.618 37.212 15.618s27.75-5.979 37.212-15.618c7.063-7.195 18.531-7.195 25.594 0 9.461 9.639 22.636 15.618 37.212 15.618 29.359 0 53.053-24.253 52.135-53.814-.844-27.001-22.66-49.162-49.649-50.432z" fill="#feca9c"/><g><path d="m508.168 345.304c-.839-27.002-22.655-49.163-49.644-50.434-1.966-.093-3.908-.075-5.822.047-7.503.478-14.503-3.608-17.615-10.452-26.607-58.517-96.515-100.295-178.581-100.295-43.261 0-83.139 11.613-115.081 31.164 25.487-10.199 54.224-15.941 84.635-15.941 82.066 0 151.973 41.777 178.581 100.295 3.112 6.844 10.111 10.93 17.615 10.452 1.914-.122 3.856-.14 5.822-.047 26.989 1.271 48.805 23.431 49.644 50.434.461 14.852-5.293 28.361-14.854 38.13 26.108-3.419 46.146-26.126 45.3-53.353z" fill="#fdb97e"/></g><ellipse cx="256" cy="285.886" fill="#d1a08f" rx="15.499" ry="42.85"/><path d="m256 243.035c-3.928 0-7.512 4.048-10.243 10.706 3.221 7.852 5.256 19.338 5.256 32.144s-2.034 24.292-5.256 32.144c2.731 6.658 6.315 10.706 10.243 10.706 8.56 0 15.499-19.185 15.499-42.85s-6.939-42.85-15.499-42.85z" fill="#c68d7a"/><g><ellipse cx="141.828" cy="285.886" fill="#d1a08f" rx="42.85" ry="15.499" transform="matrix(.707 -.707 .707 .707 -160.611 184.021)"/><path d="m172.127 255.586c-3.822-3.822-12.596-1.774-22.756 4.464.746 8.267-7.533 23.11-21.218 36.795-6.168 6.168-12.571 11.235-18.503 14.876.166 1.842.775 3.361 1.878 4.464 6.053 6.053 24.525-2.606 41.259-19.34s25.393-35.206 19.34-41.259z" fill="#c68d7a"/><ellipse cx="370.172" cy="285.886" fill="#d1a08f" rx="15.499" ry="42.85" transform="matrix(.707 -.707 .707 .707 -93.731 345.485)"/><path d="m381.132 274.926c-16.734-16.734-35.206-25.393-41.259-19.34-1.157 1.157-1.772 2.77-1.901 4.735 5.81 3.621 12.051 8.587 18.069 14.606 13.536 13.536 21.785 28.207 21.241 36.524 10.343 6.446 19.314 8.61 23.19 4.735 6.053-6.054-2.606-24.526-19.34-41.26z" fill="#c68d7a"/></g></g><g><g><path d="m240.777 132.947c-4.204 0-7.611-3.408-7.611-7.612v-33.997c0-16.788 13.658-30.446 30.446-30.446 8.394 0 15.223-6.829 15.223-15.223v-38.058c0-4.204 3.408-7.611 7.611-7.611s7.612 3.408 7.612 7.611v38.057c0 16.788-13.658 30.446-30.446 30.446-8.394 0-15.223 6.829-15.223 15.223v33.998c-.001 4.205-3.408 7.612-7.612 7.612z" fill="#eaf6ff"/></g><g><path d="m286.446 163.393c-4.204 0-7.611-3.408-7.611-7.611v-33.998c0-16.788 13.658-30.446 30.446-30.446 8.394 0 15.223-6.829 15.223-15.223v-38.058c0-4.204 3.408-7.611 7.611-7.611 4.204 0 7.612 3.408 7.612 7.611v38.057c0 16.788-13.658 30.446-30.446 30.446-8.394 0-15.223 6.829-15.223 15.223v33.998c-.001 4.205-3.408 7.612-7.612 7.612z" fill="#eaf6ff"/></g></g></g></svg>