<svg id="Capa_1" enable-background="new 0 0 512 512" height="512" viewBox="0 0 512 512" width="512" xmlns="http://www.w3.org/2000/svg"><g><path d="m44.401 512h423.198c22.42 0 40.594-18.175 40.594-40.594 0-4.653-3.772-8.426-8.426-8.426h-487.535c-4.653 0-8.426 3.772-8.426 8.426.001 22.419 18.175 40.594 40.595 40.594z" fill="#bad6e5"/><path d="m499.768 462.98h-30.446c4.653 0 8.426 3.772 8.426 8.426 0 22.42-18.175 40.594-40.594 40.594h30.446c22.42 0 40.594-18.175 40.594-40.594-.001-4.654-3.773-8.426-8.426-8.426z" fill="#a6cee0"/><path d="m444.359 462.98h-376.718l40.404-264.522c3.028-19.823 20.076-34.465 40.129-34.465h215.652c20.053 0 37.101 14.642 40.129 34.465z" fill="#fff5c6"/><path d="m403.955 198.457c-3.028-19.823-20.076-34.465-40.129-34.465h-30.446c20.053 0 37.101 14.642 40.129 34.465l40.405 264.522h30.446z" fill="#fceba4"/><g><g><g><path d="m128.112 20.554c-5.691.911-10.29 5.17-11.636 10.774-7.325 30.502.236 63.978 23.147 88.723s55.707 34.855 86.682 29.896c5.691-.911 10.29-5.17 11.636-10.774 7.324-30.502-.236-63.978-23.147-88.723s-55.708-34.855-86.682-29.896z" fill="#aee69c"/><path d="m214.793 50.45c-22.868-24.698-55.583-34.814-86.506-29.921 20.783 3.274 40.656 13.285 56.06 29.921 22.911 24.745 30.472 58.221 23.148 88.723-1.346 5.604-5.945 9.863-11.636 10.774-.058.009-.117.016-.176.026 10.129 1.596 20.472 1.6 30.622-.026 5.691-.911 10.29-5.17 11.636-10.774 7.324-30.502-.237-63.978-23.148-88.723z" fill="#89daa4"/><g><path d="m228.167 151.491-56.544-61.069c-2.856-3.085-2.67-7.9.414-10.757 3.085-2.856 7.901-2.671 10.757.414l56.544 61.069c2.856 3.085 2.67 7.9-.414 10.757-3.078 2.85-7.894 2.677-10.757-.414z" fill="#d1f19e"/></g></g><g><path d="m383.888 20.554c5.691.911 10.29 5.17 11.636 10.774 7.325 30.502-.236 63.978-23.147 88.723s-55.707 34.855-86.682 29.896c-5.691-.911-10.29-5.17-11.636-10.774-7.324-30.502.236-63.978 23.147-88.723s55.708-34.855 86.682-29.896z" fill="#aee69c"/><path d="m395.524 31.328c-1.346-5.604-5.945-9.863-11.636-10.774-10.149-1.625-20.493-1.621-30.621-.025.058.009.117.016.175.025 5.691.911 10.29 5.17 11.636 10.774 7.325 30.502-.236 63.978-23.147 88.723-15.404 16.637-35.277 26.647-56.06 29.921 30.923 4.893 63.638-5.223 86.506-29.921 22.911-24.745 30.472-58.221 23.147-88.723z" fill="#89daa4"/><g><path d="m273.076 151.905c-3.084-2.856-3.27-7.672-.413-10.757l56.544-61.069c2.856-3.083 7.671-3.269 10.756-.414 3.084 2.856 3.27 7.672.413 10.757l-56.544 61.069c-2.862 3.09-7.679 3.263-10.756.414z" fill="#d1f19e"/></g></g></g><g><circle cx="256" cy="97.204" fill="#f58a97" r="55.004"/><path d="m256 42.2c-5.283 0-10.387.76-15.223 2.151 22.97 6.605 39.781 27.759 39.781 52.853s-16.811 46.248-39.781 52.853c4.836 1.391 9.939 2.151 15.223 2.151 30.378 0 55.004-24.626 55.004-55.004s-24.626-55.004-55.004-55.004z" fill="#f07281"/><g><path d="m255.905 84.056c-3.524 0-6.687-2.461-7.441-6.048-1.618-7.7-5.557-34.602 11.686-57.521 6.261-8.32 14.356-14.951 24.061-19.709 3.774-1.851 8.334-.289 10.184 3.484 1.85 3.775.29 8.334-3.485 10.185-7.533 3.693-13.791 8.805-18.597 15.192-13.388 17.795-10.238 39.124-8.953 45.237.982 4.668-2.669 9.18-7.455 9.18z" fill="#aee69c"/></g></g></g><path d="m140.548 259.915v34.626c0 10.644 8.629 19.274 19.274 19.274 10.644 0 19.274-8.629 19.274-19.274v-34.38c0-12.946 10.495-23.441 23.441-23.441 12.946 0 23.441 10.495 23.441 23.441v89.075c0 14.96 12.127 27.087 27.087 27.087 14.96 0 27.087-12.127 27.087-27.087v-89.075c0-12.946 10.495-23.441 23.441-23.441 12.946 0 23.441 10.495 23.441 23.441v34.38c0 10.644 8.629 19.274 19.274 19.274 10.644 0 19.274-8.629 19.274-19.274v-34.626c0-12.81 10.385-23.195 23.195-23.195h19.482c7.245 0 12.755-6.508 11.56-13.654l-6.068-36.278c-4.199-25.104-25.924-43.497-51.377-43.497h-212.746c-25.453 0-47.178 18.393-51.377 43.497l-6.068 36.278c-1.195 7.146 4.315 13.654 11.56 13.654h13.611c12.81 0 23.194 10.385 23.194 23.195z" fill="#d1a08f"/><g fill="#c68d7a"><path d="m172.091 221.497c-12.946 0-23.441 10.495-23.441 23.441v34.38c0 6.465-3.194 12.172-8.079 15.669.239 10.436 8.757 18.828 19.251 18.828 10.645 0 19.274-8.629 19.274-19.273v-34.38c0-10.131 6.428-18.76 15.427-22.034-2.919-9.625-11.856-16.631-22.432-16.631z"/><path d="m273.147 221.497c-12.946 0-23.441 10.495-23.441 23.441v89.075c0 12.968-9.116 23.802-21.287 26.458 4.27 9.35 13.695 15.852 24.646 15.852 14.96 0 27.087-12.127 27.087-27.087v-89.075c0-10.131 6.428-18.76 15.427-22.034-2.919-9.624-11.856-16.63-22.432-16.63z"/><path d="m419.817 223.066-6.068-36.278c-3.82-22.839-22.149-40.119-44.591-43.052 7.242 7.398 12.331 16.985 14.145 27.829l6.068 36.278c1.195 7.146-4.315 13.654-11.56 13.654h-19.481c-12.81 0-23.195 10.385-23.195 23.195v34.625c0 6.465-3.194 12.172-8.079 15.669.239 10.436 8.757 18.828 19.251 18.828 10.644 0 19.274-8.629 19.274-19.273v-34.625c0-12.81 10.385-23.195 23.195-23.195h19.482c7.244-.001 12.754-6.509 11.559-13.655z"/></g></g></svg>