<svg id="Capa_1" enable-background="new 0 0 512 512" height="512" viewBox="0 0 512 512" width="512" xmlns="http://www.w3.org/2000/svg"><g><g><path d="m445.03 148.42h-141.435v232.92h141.435c31.455 0 56.955-25.5 56.955-56.955v-119.01c0-31.455-25.499-56.955-56.955-56.955zm26.509 175.965c0 14.641-11.869 26.509-26.509 26.509h-110.989v-172.028h110.989c14.641 0 26.509 11.868 26.509 26.509z" fill="#eaf6ff"/><g><path d="m265.014 465.553c-67.192 0-123.143-51.553-128.632-118.519l-19.246-234.801c-.282-3.435 2.43-6.378 5.877-6.378h284.001c3.447 0 6.159 2.943 5.877 6.378l-19.246 234.801c-5.488 66.967-61.439 118.519-128.631 118.519z" fill="#eaf6ff"/><path d="m407.014 105.854h-30.446c3.447 0 6.159 2.943 5.877 6.378l-19.245 234.802c-5.069 61.838-53.166 110.529-113.409 117.625 4.997.589 10.076.894 15.223.894 67.192 0 123.142-51.553 128.632-118.519l19.246-234.801c.281-3.436-2.431-6.379-5.878-6.379z" fill="#d8ecfe"/><path d="m407.685 175.729h-285.342l-.002.004 14.041 171.301c5.489 66.967 61.44 118.519 128.632 118.519 67.192 0 123.142-51.553 128.632-118.519l14.041-171.295z" fill="#e5c7be"/><path d="m407.685 175.729h-30.446l.001.01-14.04 171.295c-5.069 61.838-53.166 110.529-113.409 117.625 4.997.589 10.077.894 15.223.894 67.192 0 123.142-51.553 128.632-118.519l14.041-171.295z" fill="#d8b6b0"/></g><path d="m384.768 512h-239.508c-2.242 0-4.059-1.817-4.059-4.059v-17.252c0-22.42 18.175-40.595 40.595-40.595h166.438c22.42 0 40.595 18.175 40.595 40.595v17.252c-.001 2.242-1.819 4.059-4.061 4.059z" fill="#eaf6ff"/><path d="m348.233 450.094h-30.446c22.42 0 40.595 18.175 40.595 40.595v17.252c0 2.242-1.817 4.059-4.059 4.059h30.446c2.242 0 4.059-1.818 4.059-4.059v-17.252c0-22.42-18.175-40.595-40.595-40.595z" fill="#d8ecfe"/><g><g><path d="m236.719 69.298c-4.204 0-7.611-3.408-7.611-7.611v-11.632c0-11.998 9.761-21.759 21.759-21.759 3.605 0 6.536-2.932 6.536-6.536v-14.149c0-4.204 3.407-7.611 7.612-7.611s7.611 3.408 7.611 7.611v14.148c0 11.998-9.761 21.759-21.759 21.759-3.605 0-6.536 2.932-6.536 6.536v11.632c-.001 4.204-3.408 7.612-7.612 7.612z" fill="#eaf6ff"/></g><g><path d="m265.014 88.162c-4.204 0-7.612-3.408-7.612-7.611v-11.633c0-11.998 9.761-21.759 21.759-21.759 3.605 0 6.536-2.932 6.536-6.536v-14.148c0-4.204 3.407-7.611 7.611-7.611s7.612 3.408 7.612 7.611v14.147c0 11.998-9.761 21.759-21.759 21.759-3.605 0-6.536 2.932-6.536 6.536v11.633c0 4.204-3.407 7.612-7.611 7.612z" fill="#eaf6ff"/></g></g></g><g><path d="m142.067 512h-121.488c-5.834 0-10.564-4.73-10.564-10.564v-175.366c0-5.834 4.73-10.564 10.564-10.564h121.488c5.834 0 10.564 4.73 10.564 10.564v175.366c.001 5.834-4.729 10.564-10.564 10.564z" fill="#d1a08f"/><path d="m142.068 315.506h-30.446c5.834 0 10.564 4.73 10.564 10.564v175.366c0 5.835-4.73 10.564-10.564 10.564h30.446c5.834 0 10.564-4.73 10.564-10.564v-175.366c0-5.835-4.73-10.564-10.564-10.564z" fill="#c68d7a"/><path d="m152.631 421.364h.001v-15.223h-.001-63.696v-90.635h-15.223v90.635h-63.697v15.223h63.697v90.636h15.223v-90.636z" fill="#e5c7be"/><path d="m122.186 406.141v15.223h30.445.001v-15.223h-.001z" fill="#d9b3a6"/></g></g></svg>