<svg id="Capa_1" enable-background="new 0 0 512 512" height="512" viewBox="0 0 512 512" width="512" xmlns="http://www.w3.org/2000/svg"><g><g><circle cx="185.066" cy="68.343" fill="#fff5c6" r="60.617"/><path d="m185.067 136.687c-37.685 0-68.344-30.659-68.344-68.344s30.658-68.343 68.344-68.343c37.684 0 68.343 30.658 68.343 68.343s-30.659 68.344-68.343 68.344zm0-121.234c-29.164 0-52.891 23.726-52.891 52.89s23.727 52.891 52.891 52.891 52.89-23.727 52.89-52.891-23.726-52.89-52.89-52.89z" fill="#ffe179"/></g><path d="m245.683 60.617h-41.964l29.673-29.673c3.017-3.017 3.017-7.909 0-10.927-3.018-3.017-7.909-3.017-10.928 0l-29.672 29.672v-41.963c0-4.267-3.459-7.726-7.726-7.726-4.268 0-7.726 3.459-7.726 7.726v41.964l-29.673-29.673c-3.018-3.017-7.909-3.017-10.928 0-3.017 3.017-3.017 7.909 0 10.927l29.674 29.673h-41.964c-4.268 0-7.726 3.459-7.726 7.726s3.459 7.726 7.726 7.726h41.964l-29.673 29.673c-3.017 3.017-3.017 7.909 0 10.927 1.509 1.509 3.487 2.263 5.464 2.263s3.955-.755 5.464-2.263l29.673-29.673v41.964c0 4.267 3.459 7.726 7.726 7.726 4.268 0 7.726-3.459 7.726-7.726v-52.891h52.89c4.268 0 7.726-3.459 7.726-7.726.001-4.267-3.458-7.726-7.726-7.726z" fill="#ffe179"/><path d="m258.572 274.339h49.416v197.115h-49.416z" fill="#eaf6ff"/><path d="m277.082 274.339h30.905v197.115h-30.905z" fill="#d8ecfe"/><path d="m283.28 316.451c-58.509 0-105.94-47.431-105.94-105.94v-142.683c0-3.983 3.229-7.211 7.211-7.211h197.458c3.983 0 7.211 3.229 7.211 7.211v142.683c0 58.509-47.431 105.94-105.94 105.94z" fill="#eaf6ff"/><path d="m382.009 60.617h-30.905c3.983 0 7.211 3.229 7.211 7.211v142.683c0 53.26-39.304 97.334-90.487 104.815 5.045.737 10.203 1.125 15.453 1.125 58.509 0 105.94-47.431 105.94-105.94v-142.683c-.001-3.982-3.23-7.211-7.212-7.211z" fill="#d8ecfe"/><path d="m283.28 316.451c58.509 0 105.94-47.431 105.94-105.94v-75.37c-26.484 0-26.484-12.362-52.968-12.362-26.483 0-26.483 12.362-52.966 12.362-26.487 0-26.487-12.362-52.973-12.362s-26.487 12.362-52.973 12.362v75.37c0 58.509 47.431 105.94 105.94 105.94z" fill="#f58a97"/><path d="m358.314 210.511c0 53.26-39.304 97.334-90.487 104.815 5.112.747 10.28 1.125 15.453 1.125 58.509 0 105.94-47.431 105.94-105.94v-75.37c-16.141 0-22.448-4.59-30.905-8.176v83.546z" fill="#f07281"/><path d="m392.619 512h-218.678c-1.468 0-2.659-1.19-2.659-2.659v-11.299c0-14.684 11.904-26.588 26.588-26.588h170.82c14.684 0 26.588 11.904 26.588 26.588v11.299c-.001 1.469-1.191 2.659-2.659 2.659z" fill="#d8ecfe"/><path d="m368.69 471.454h-30.905c14.684 0 26.588 11.904 26.588 26.588v11.299c0 1.468-1.19 2.659-2.659 2.659h30.905c1.468 0 2.659-1.19 2.659-2.659v-11.299c-.001-14.684-11.904-26.588-26.588-26.588z" fill="#c4e2ff"/><circle cx="283.28" cy="394.044" fill="#d8ecfe" r="40.1"/><path d="m283.28 353.945c-5.477 0-10.696 1.102-15.453 3.09 14.474 6.051 24.647 20.341 24.647 37.01s-10.173 30.959-24.647 37.01c4.756 1.988 9.975 3.09 15.453 3.09 22.146 0 40.1-17.953 40.1-40.1-.001-22.147-17.954-40.1-40.1-40.1z" fill="#c4e2ff"/></g></svg>