<svg id="Capa_1" enable-background="new 0 0 512 512" height="512" viewBox="0 0 512 512" width="512" xmlns="http://www.w3.org/2000/svg"><g><g><g><path d="m344.643 129.596c4.716-8.845 2.194-20.017-5.862-25.981-4.171-3.088-9.057-4.343-13.772-3.974-2.426.19-4.666-1.224-5.539-3.496-1.695-4.415-4.932-8.285-9.514-10.722-8.85-4.706-20.02-2.175-25.976 5.888-5.543 7.504-5.175 17.321-.067 24.285 1.297 1.767 1.317 4.169.147 6.023l-79.36 125.745 33.189 20.946 79.36-125.745c1.17-1.854 3.347-2.869 5.5-2.459 8.485 1.615 17.505-2.277 21.894-10.51z" fill="#eaf6ff"/><path d="m338.781 103.615c-2.342-1.734-4.913-2.87-7.549-3.485 1.101 4.693.576 9.766-1.812 14.244-4.389 8.233-13.409 12.125-21.893 10.51-2.153-.41-4.33.605-5.5 2.459l-79.36 125.745 15.223 15.223 79.36-125.745c1.17-1.854 3.347-2.869 5.5-2.459 8.484 1.615 17.504-2.277 21.893-10.51 4.716-8.847 2.195-20.018-5.862-25.982z" fill="#d8ecfe"/><path d="m120.954 277.256c21.957-34.791 97.192-91.512 131.984-69.555s15.964 114.278-5.994 149.069-67.961 45.195-102.752 23.238-45.195-67.961-23.238-102.752z" fill="#d1a08f"/></g><path d="m73.301 299.723c-7.478 6.911-35.972 33.242-41.19 74.409-7.712 60.843 41.564 105.615 43.848 107.627 18.55 16.336 42.241 25.289 172.734 21.26 171.422-5.293 197.09-23.311 211.267-42.519 16.723-22.657 25.107-56.4 15.945-85.038-35.41-110.677-302.257-168.469-402.604-75.739z" fill="#d9b3a6"/><path d="m475.905 375.46c-15.955-49.867-78.897-88.994-152.421-108.458 52.787 21.594 94.234 54.108 106.752 93.235 9.163 28.638.779 62.381-15.945 85.038-14.177 19.208-39.846 37.226-211.267 42.519-60.152 1.858-97.6.954-122.321-2.157 18.432 13.841 48.238 21.078 167.99 17.38 171.422-5.293 197.09-23.311 211.267-42.519 16.723-22.657 25.108-56.399 15.945-85.038z" fill="#d1a08f"/><path d="m44.4 512h423.2c22.42 0 40.595-18.175 40.595-40.595 0-4.653-3.772-8.426-8.426-8.426h-487.537c-4.653 0-8.426 3.772-8.426 8.426 0 22.42 18.175 40.595 40.594 40.595z" fill="#bad6e5"/><path d="m499.768 462.979h-30.446c4.653 0 8.426 3.772 8.426 8.426 0 22.42-18.175 40.595-40.595 40.595h30.447c22.42 0 40.595-18.175 40.595-40.595-.001-4.653-3.773-8.426-8.427-8.426z" fill="#a6cee0"/><g><path d="m503.278 184.374c6.551-7.587 6.556-19.04.013-26.635-3.387-3.932-7.876-6.234-12.556-6.914-2.408-.35-4.281-2.223-4.631-4.631-.68-4.68-2.983-9.169-6.914-12.556-7.594-6.543-19.047-6.537-26.635.013-7.062 6.097-8.869 15.753-5.422 23.672.875 2.01.365 4.357-1.185 5.907l-105.143 105.142 27.752 27.752 105.142-105.142c1.55-1.55 3.897-2.06 5.907-1.185 7.919 3.446 17.575 1.639 23.672-5.423z" fill="#eaf6ff"/><g><path d="m503.291 157.74c-2.979-3.458-6.81-5.653-10.873-6.595 1.44 6.197-.003 12.956-4.363 18.006-6.097 7.062-15.753 8.869-23.672 5.422-2.01-.875-4.357-.365-5.907 1.185l-105.142 105.143 15.223 15.223 105.142-105.142c1.55-1.55 3.897-2.06 5.907-1.185 7.919 3.447 17.575 1.64 23.672-5.422 6.55-7.588 6.555-19.041.013-26.635z" fill="#d8ecfe"/></g><path d="m252.527 279.055c29.091-29.091 114.984-67.819 144.075-38.728s-9.637 114.984-38.728 144.075-76.256 29.091-105.347 0-29.091-76.257 0-105.347z" fill="#d1a08f"/><path d="m396.603 240.326c-1.526-1.526-3.217-2.855-5.039-4.019 2.235 37.898-26.258 94.994-48.912 117.648-29.091 29.091-76.256 29.091-105.347 0-1.624-1.624-3.142-3.311-4.584-5.041 3.07 13.004 9.665 25.345 19.807 35.487 29.091 29.091 76.256 29.091 105.347 0 29.09-29.09 67.818-114.984 38.728-144.075z" fill="#c68d7a"/></g><path d="m81.952 349.773-17.824-65.739c-.909-3.353-3.824-5.775-7.286-6.054l-48.489-3.915c-5.08-.41-6.289-7.308-1.652-9.422 19.493-8.885 38.986-17.771 58.48-26.656 13.703-6.246 29.905-.898 37.197 12.278 13.796 24.929 27.592 49.858 41.388 74.786 12.225 22.09-3.75 49.191-28.997 49.194-.275 0-.549 0-.824 0-14.966.001-28.077-10.027-31.993-24.472z" fill="#d1a08f"/><path d="m143.766 325.051c-13.796-24.929-27.592-49.858-41.388-74.786-7.292-13.176-23.494-18.524-37.197-12.278-1.167.532-2.335 1.064-3.502 1.596 4.165 2.527 7.739 6.139 10.253 10.682 13.796 24.929 27.592 49.858 41.388 74.786 9.586 17.322 1.829 37.72-14.138 45.722 4.481 2.231 9.506 3.472 14.763 3.472h.824c25.247-.003 41.222-27.105 28.997-49.194z" fill="#c68d7a"/></g><g><g><path d="m110.367 132.947c-4.204 0-7.611-3.408-7.611-7.612v-33.997c0-16.788 13.658-30.446 30.446-30.446 8.394 0 15.223-6.829 15.223-15.223v-38.058c0-4.204 3.408-7.611 7.611-7.611 4.204 0 7.611 3.408 7.611 7.611v38.057c0 16.788-13.658 30.446-30.446 30.446-8.394 0-15.223 6.829-15.223 15.223v33.998c0 4.205-3.408 7.612-7.611 7.612z" fill="#eaf6ff"/></g><g><path d="m156.036 163.393c-4.204 0-7.611-3.408-7.611-7.611v-33.998c0-16.788 13.658-30.446 30.446-30.446 8.394 0 15.223-6.829 15.223-15.223v-38.058c0-4.204 3.408-7.611 7.611-7.611 4.204 0 7.612 3.408 7.612 7.611v38.057c0 16.788-13.658 30.446-30.446 30.446-8.394 0-15.223 6.829-15.223 15.223v33.998c-.001 4.205-3.409 7.612-7.612 7.612z" fill="#eaf6ff"/></g></g></g></svg>