<svg id="Capa_1" enable-background="new 0 0 512 512" height="512" viewBox="0 0 512 512" width="512" xmlns="http://www.w3.org/2000/svg"><g><g><path d="m512 256c0 27.029-17.938 50.878-25.807 75.267-8.156 25.277-7.855 55.125-23.071 76.165-15.368 21.25-43.774 30.116-64.892 45.581-20.908 15.312-37.983 39.848-63.102 48.055-24.236 7.919-52.268-1.572-79.128-1.572s-54.892 9.491-79.128 1.572c-25.119-8.207-42.194-32.743-63.102-48.056-21.117-15.465-49.523-24.331-64.892-45.581-15.216-21.04-14.915-50.888-23.071-76.165-7.869-24.388-25.807-48.237-25.807-75.266s17.938-50.878 25.807-75.267c8.156-25.277 7.855-55.125 23.071-76.165 15.368-21.25 43.774-30.116 64.892-45.581 20.908-15.312 37.983-39.848 63.102-48.055 24.236-7.919 52.269 1.572 79.128 1.572s54.892-9.491 79.128-1.572c25.119 8.207 42.194 32.743 63.102 48.056 21.117 15.465 49.523 24.331 64.892 45.581 15.216 21.04 14.915 50.888 23.071 76.165 7.869 24.388 25.807 48.237 25.807 75.266z" fill="#feca9c"/></g><g><path d="m486.193 180.733c-8.156-25.277-7.855-55.125-23.071-76.165-15.368-21.25-43.775-30.116-64.892-45.581-20.908-15.312-37.983-39.848-63.102-48.056-12.391-4.049-25.775-3.544-39.486-2.086 2.906.492 5.77 1.168 8.581 2.086 25.119 8.207 42.194 32.743 63.102 48.056 21.117 15.465 49.523 24.331 64.892 45.581 15.216 21.04 14.915 50.888 23.071 76.165 7.869 24.389 25.807 48.238 25.807 75.267s-17.938 50.878-25.807 75.267c-8.156 25.277-7.855 55.125-23.071 76.165-15.368 21.25-43.775 30.116-64.892 45.581-20.908 15.312-37.983 39.848-63.102 48.055-2.811.919-5.676 1.594-8.582 2.086 13.712 1.458 27.096 1.962 39.487-2.086 25.119-8.207 42.194-32.743 63.102-48.055 21.117-15.465 49.523-24.331 64.892-45.581 15.216-21.04 14.915-50.888 23.071-76.165 7.869-24.389 25.807-48.238 25.807-75.267s-17.938-50.878-25.807-75.267z" fill="#fdb97e"/></g><circle cx="256" cy="256" fill="#d1a08f" r="191.099"/><path d="m373.004 407.115c6.29-4.883 12.346-10.21 18.123-15.988s11.105-11.834 15.988-18.123l-268.119-268.119c-6.29 4.883-12.346 10.21-18.123 15.988-5.777 5.777-11.105 11.834-15.988 18.123z" fill="#fedbbd"/><g fill="#ffead8"><path d="m178.354 430.656c17.097 7.596 35.079 12.559 53.334 14.888l213.855-213.855c-2.328-18.256-7.291-36.237-14.888-53.334z"/><path d="m66.457 280.312c2.328 18.256 7.291 36.237 14.888 53.334l252.301-252.302c-17.097-7.596-35.079-12.559-53.334-14.888z"/><path d="m120.873 391.127c5.777 5.777 11.834 11.105 18.123 15.988l268.118-268.118c-4.883-6.29-10.21-12.346-15.988-18.123-5.777-5.777-11.834-11.105-18.123-15.988l-268.118 268.118c4.883 6.29 10.211 12.346 15.988 18.123z"/></g><path d="m280.312 445.543c18.256-2.328 36.237-7.291 53.334-14.888l-252.302-252.301c-7.596 17.097-12.559 35.079-14.888 53.334z" fill="#fedbbd"/><path d="m231.688 66.457c-18.256 2.328-36.237 7.291-53.334 14.888l252.301 252.301c7.596-17.097 12.559-35.078 14.888-53.334z" fill="#fedbbd"/></g></svg>