<svg id="Capa_1" enable-background="new 0 0 512 512" height="512" viewBox="0 0 512 512" width="512" xmlns="http://www.w3.org/2000/svg"><g><g><path d="m387.859 318.305c58.988-.908 105.613-48.674 105.165-107.668-.308-40.521-23.173-75.667-56.657-93.517-5.986-3.191-10.426-8.746-12.217-15.289-12.396-45.291-53.839-78.578-103.063-78.578-13.862 0-27.107 2.641-39.26 7.445-6.15 2.431-12.96 2.431-19.111 0-12.153-4.805-25.398-7.445-39.26-7.445-39.593 0-74.154 21.535-92.615 53.529-3.934 6.819-10.884 11.435-18.693 12.432-53.112 6.785-94.038 52.557-93.162 107.714.92 57.962 48.631 104.989 106.6 105.116z" fill="#f9f7f8"/><g><path d="m436.367 117.12c-5.986-3.191-10.426-8.746-12.217-15.289-12.396-45.291-53.839-78.578-103.063-78.578-5.272 0-10.454.384-15.522 1.122 42.306 6.104 76.6 36.974 87.679 77.456 1.791 6.543 6.23 12.098 12.217 15.289 33.484 17.849 56.35 52.996 56.657 93.517.413 54.352-39.133 99.173-91.49 106.6l17.23 1.068c58.988-.908 105.613-48.674 105.165-107.668-.307-40.521-23.172-75.668-56.656-93.517z" fill="#efedef"/></g><g><path d="m324.67 488.746h-137.34c-12.241 0-22.164-9.923-22.164-22.164v-38.587h181.666v38.587c.001 12.241-9.922 22.164-22.162 22.164z" fill="#bad6e5"/><path d="m315.928 427.995v38.587c0 12.24-9.923 22.163-22.163 22.163h30.905c12.24 0 22.163-9.923 22.163-22.163v-38.587z" fill="#a6cee0"/><path d="m348.563 427.995h-185.126c-90.264 0-163.437-73.173-163.437-163.437v-66.07c0-3.983 3.229-7.211 7.211-7.211h497.577c3.983 0 7.211 3.229 7.211 7.211v66.07c.001 90.264-73.172 163.437-163.436 163.437z" fill="#d8e8f0"/><path d="m504.789 191.277h-30.905c3.983 0 7.211 3.229 7.211 7.211v66.07c0 90.264-73.173 163.437-163.437 163.437h30.905c90.264 0 163.437-73.173 163.437-163.437v-66.07c0-3.983-3.229-7.211-7.211-7.211z" fill="#bad6e5"/></g><g><path d="m101.153 155.817-15.915-15.915c-3.018-3.017-3.018-7.909-.001-10.927 3.018-3.017 7.91-3.018 10.927 0l15.915 15.915c3.018 3.017 3.018 7.909.001 10.927-3.017 3.017-7.91 3.019-10.927 0z" fill="#e5e1e5"/></g><g><path d="m177.953 155.817c-3.017-3.018-3.017-7.909.001-10.927l15.915-15.915c3.016-3.018 7.908-3.018 10.927 0 3.017 3.018 3.017 7.909-.001 10.927l-15.915 15.915c-3.018 3.018-7.911 3.017-10.927 0z" fill="#e5e1e5"/></g><g><path d="m224.775 83.398-15.915-15.914c-3.018-3.017-3.018-7.909-.001-10.927 3.018-3.017 7.91-3.018 10.927 0l15.914 15.915c3.018 3.017 3.018 7.909.001 10.927-3.017 3.016-7.91 3.018-10.926-.001z" fill="#e5e1e5"/></g><g><path d="m410.207 155.817-15.915-15.915c-3.018-3.017-3.018-7.909-.001-10.927 3.018-3.017 7.91-3.018 10.927 0l15.915 15.915c3.018 3.017 3.018 7.909.001 10.927-3.017 3.017-7.91 3.019-10.927 0z" fill="#e5e1e5"/></g><g><path d="m332.48 94.006c-3.017-3.018-3.017-7.909.001-10.927l15.915-15.915c3.017-3.018 7.909-3.017 10.927 0 3.017 3.018 3.017 7.909-.001 10.927l-15.915 15.915c-3.018 3.018-7.91 3.018-10.927 0z" fill="#e5e1e5"/></g><g><path d="m302.038 155.817-15.915-15.915c-3.018-3.017-3.018-7.909-.001-10.927 3.018-3.017 7.91-3.018 10.927 0l15.915 15.915c3.018 3.017 3.018 7.909.001 10.927-3.017 3.017-7.91 3.019-10.927 0z" fill="#e5e1e5"/></g></g><g><path d="m308.325 348.335c-7.685 9.158-42.272 50.372-83.231 38.971-22.42-6.241-38.956-26.078-44.494-46.41-10.663-39.148 21.745-71.669 31.648-81.607 11.514-11.554 30.259-30.364 57.644-29.252 29.435 1.196 57.37 24.943 62.72 54.227 5.272 28.849-13.533 51.256-24.287 64.071z" fill="#fff5c6"/><g fill="#fceba4"><path d="m332.613 284.264c-3.764-20.598-18.705-38.443-37.478-47.642 8.401 8.997 14.448 20.12 16.653 32.189 5.271 28.849-13.534 51.257-24.287 64.071-7.685 9.158-42.272 50.372-83.231 38.971-2.843-.791-5.59-1.803-8.233-3.005 7.699 8.533 17.608 15.271 29.057 18.457 40.958 11.401 75.546-29.813 83.231-38.971 10.754-12.814 29.559-35.221 24.288-64.07z"/><circle cx="263.732" cy="264.767" r="7.726"/><circle cx="294.638" cy="295.673" r="7.726"/><circle cx="213.323" cy="309.636" r="7.726"/><circle cx="253.981" cy="309.636" r="7.726"/><circle cx="245.716" cy="346.923" r="7.726"/></g></g></g></svg>