<svg id="Capa_1" enable-background="new 0 0 512 512" height="512" viewBox="0 0 512 512" width="512" xmlns="http://www.w3.org/2000/svg"><g><g><g><circle cx="256" cy="60.842" fill="#f58a97" r="32.679"/><path d="m256 28.162c-5.498 0-10.676 1.364-15.223 3.763 10.379 5.475 17.456 16.367 17.456 28.916 0 12.55-7.078 23.441-17.456 28.916 4.547 2.399 9.724 3.763 15.223 3.763 18.048 0 32.679-14.631 32.679-32.679s-14.631-32.679-32.679-32.679z" fill="#f07281"/><g><path d="m255.941 56.12c-3.524 0-6.688-2.462-7.441-6.049-1.029-4.897-3.526-22.013 7.498-36.666 4.014-5.335 9.196-9.583 15.404-12.626 3.774-1.851 8.334-.29 10.184 3.484 1.85 3.775.29 8.334-3.485 10.185-4.036 1.978-7.38 4.707-9.94 8.109-7.171 9.532-5.46 21.075-4.765 24.385.98 4.662-2.678 9.178-7.455 9.178z" fill="#aee69c"/></g></g><path d="m164.498 94.824 183.384-1.303c16.815 0 30.446 13.631 30.446 30.446l3.769 26.296v119.185c0 16.815-13.631 30.446-30.446 30.446h-191.302c-16.815 0-30.446-13.631-30.446-30.446v-111.394l4.149-32.784c0-16.815 13.631-30.446 30.446-30.446z" fill="#e5c7be"/><path d="m350.356 91.255h-30.446c16.815 0 31.741 10.163 31.741 26.978v151.214c0 16.815-13.631 30.446-30.446 30.446h30.446c16.815 0 30.446-13.631 30.446-30.446v-119.184l-1.295-28.562c-.001-16.815-13.632-30.446-30.446-30.446z" fill="#d9b3a6"/><g><path d="m303.997 307.56 170.994.481c16.815 0 33.202 5.484 33.202 22.299v151.214c0 16.815-13.631 30.446-30.446 30.446h-176.078c-16.815 0-30.446-13.631-30.446-30.446v-121.549l2.328-21.999c0-16.815 13.631-30.446 30.446-30.446z" fill="#e5c7be"/><path d="m474.584 307.56h-30.446c16.815 0 33.609 5.965 33.609 22.78v151.214c0 16.815-13.631 30.446-30.446 30.446h30.446c16.815 0 30.446-13.631 30.446-30.446v-151.214c0-16.815-16.794-22.78-33.609-22.78z" fill="#d9b3a6"/><path d="m301.669 299.894h145.633l27.625 2.485c16.815 0 30.446 13.631 30.446 30.446l2.82 27.18c0 8.839-7.165 16.004-16.004 16.004-15.855 0-28.708 12.853-28.708 28.708v30.446c0 11.365-9.213 20.578-20.578 20.578-11.365 0-20.578-9.213-20.578-20.578v-36.798c0-12.347-10.009-22.356-22.356-22.356-12.347 0-22.356 10.009-22.356 22.356v6.352c0 11.365-9.213 20.578-20.578 20.578-11.365 0-20.578-9.213-20.578-20.578 0-15.855-12.853-28.708-28.708-28.708h-20.525c-8.839 0-16.004-7.165-16.004-16.004v-29.665c.003-16.815 13.634-30.446 30.449-30.446z" fill="#d1a08f"/><g fill="#c68d7a"><path d="m369.525 376.008c-12.347 0-22.356 10.009-22.356 22.356v6.352c0 5.323-2.038 10.158-5.355 13.811 3.765 4.147 9.181 6.767 15.223 6.767 11.365 0 20.578-9.213 20.578-20.578v-6.352c0-6.464 2.747-12.284 7.133-16.366-3.992-3.714-9.341-5.99-15.223-5.99z"/><path d="m477.747 299.894h-30.446c16.815 0 30.446 13.631 30.446 30.446v29.665c0 8.839-7.165 16.004-16.004 16.004-15.855 0-28.708 12.853-28.708 28.708v30.446c0 5.323-2.038 10.158-5.355 13.811 3.765 4.147 9.181 6.767 15.223 6.767 11.365 0 20.578-9.213 20.578-20.578v-30.446c0-15.855 12.853-28.708 28.708-28.708 8.839 0 16.004-7.165 16.004-16.004v-29.665c0-16.815-13.631-30.446-30.446-30.446z"/></g></g><g><path d="m40.066 310.1 166.794 3.22c16.815 0 33.916.204 33.916 17.019v151.214c0 16.815-13.631 30.446-30.446 30.446h-176.077c-16.815 0-30.446-13.631-30.446-30.446v-121.548l5.814-19.459c-.001-16.815 13.63-30.446 30.445-30.446z" fill="#e5c7be"/><path d="m210.331 304.77h-30.446c16.815 0 30.446 8.755 30.446 25.57v151.214c0 16.815-13.631 30.446-30.446 30.446h30.446c16.815 0 30.446-13.631 30.446-30.446v-121.549-24.789c0-16.815-13.631-30.446-30.446-30.446z" fill="#d9b3a6"/><path d="m34.253 299.894h145.633l30.446 2.639c16.815 0 30.446 13.631 30.446 30.446v27.026c0 8.839-7.165 16.004-16.004 16.004-15.855 0-28.708 12.853-28.708 28.708v30.446c0 11.365-9.213 20.578-20.578 20.578-11.365 0-20.578-9.213-20.578-20.578v-36.798c0-12.347-10.009-22.356-22.356-22.356-12.347 0-22.356 10.009-22.356 22.356v6.352c0 11.365-9.213 20.578-20.578 20.578-11.365 0-20.578-9.213-20.578-20.578 0-15.855-12.853-28.708-28.708-28.708h-20.523c-8.839 0-16.004-7.165-16.004-16.004v-29.665c0-16.815 13.631-30.446 30.446-30.446z" fill="#d1a08f"/><g fill="#c68d7a"><path d="m102.108 376.008c-12.347 0-22.356 10.009-22.356 22.356v6.352c0 5.323-2.038 10.158-5.355 13.811 3.765 4.147 9.181 6.767 15.223 6.767 11.365 0 20.578-9.213 20.578-20.578v-6.352c0-6.464 2.747-12.284 7.133-16.366-3.991-3.714-9.34-5.99-15.223-5.99z"/><path d="m210.331 299.894h-30.446c16.815 0 30.446 13.631 30.446 30.446v29.665c0 8.839-7.165 16.004-16.004 16.004-15.855 0-28.708 12.853-28.708 28.708v30.446c0 5.323-2.038 10.158-5.355 13.811 3.765 4.147 9.181 6.767 15.223 6.767 11.365 0 20.578-9.213 20.578-20.578v-30.446c0-15.855 12.853-28.708 28.708-28.708 8.839 0 16.004-7.165 16.004-16.004v-29.665c0-16.815-13.631-30.446-30.446-30.446z"/></g></g><path d="m349.496 89.049-1.928-1.261h-187.219c-16.815 0-30.446 13.631-30.446 30.446v39.82c0 3.23 2.618 5.848 5.848 5.848h14.091c14.21 0 25.73 11.52 25.73 25.73v30.446c0 13.009 10.546 23.556 23.556 23.556 13.009 0 23.556-10.546 23.556-23.556v-33.341c0-12.611 10.223-22.834 22.834-22.834 12.611 0 22.834 10.223 22.834 22.834v2.895c0 13.009 10.546 23.556 23.556 23.556 13.009 0 23.556-10.546 23.556-23.556 0-14.21 11.52-25.73 25.73-25.73h27.264c7.533 0 13.639-6.106 13.639-13.639l-2.155-30.768c0-16.815-13.631-30.446-30.446-30.446z" fill="#d1a08f"/><g fill="#c68d7a"><path d="m351.651 87.788h-4.083c2.592 4.479 4.083 9.675 4.083 15.223v32.03c0 7.533-6.107 13.639-13.639 13.639h-27.264c-14.21 0-25.73 11.52-25.73 25.73 0 10.224-6.515 18.924-15.62 22.181 2.968 9.612 11.923 16.597 22.51 16.597 13.009 0 23.556-10.546 23.556-23.556 0-14.21 11.52-25.73 25.73-25.73h27.264c7.533 0 13.639-6.106 13.639-13.639v-32.03c0-16.814-13.631-30.445-30.446-30.445z"/><path d="m215.072 148.679c-12.611 0-22.834 10.223-22.834 22.834v33.341c0 10.224-6.515 18.924-15.62 22.181 2.968 9.612 11.923 16.597 22.51 16.597 13.009 0 23.556-10.546 23.556-23.556v-33.341c0-9.638 5.975-17.876 14.42-21.227-2.638-9.695-11.499-16.829-22.032-16.829z"/></g></g></g></svg>