<svg id="Capa_1" enable-background="new 0 0 512 512" height="512" viewBox="0 0 512 512" width="512" xmlns="http://www.w3.org/2000/svg"><g><path d="m510.729 129.403-128.132-128.132c-1.695-1.695-4.443-1.695-6.138 0l-11.125 11.125c-37.078 37.078-37.078 97.192 0 134.27 37.078 37.078 97.192 37.078 134.27 0l11.125-11.125c1.695-1.695 1.695-4.443 0-6.138z" fill="#ffe179"/><path d="m510.729 129.403-20.11-20.11-6.468 6.468c-37.077 37.077-97.192 37.077-134.27 0-3.161-3.161-6.031-6.5-8.653-9.967 4.293 14.965 12.317 29.085 24.105 40.873 37.078 37.077 97.192 37.077 134.27 0l11.125-11.125c1.696-1.696 1.696-4.444.001-6.139z" fill="#fbd268"/><path d="m129.403 510.729-128.132-128.132c-1.695-1.695-1.695-4.443 0-6.138l11.125-11.125c37.078-37.078 97.192-37.078 134.27 0 37.078 37.078 37.078 97.192 0 134.27l-11.125 11.125c-1.695 1.695-4.443 1.695-6.138 0z" fill="#ffe179"/><path d="m146.666 365.334c-11.788-11.788-25.908-19.813-40.873-24.105 3.467 2.622 6.807 5.492 9.967 8.653 37.078 37.078 37.078 97.192 0 134.27l-6.468 6.468 20.11 20.11c1.695 1.695 4.443 1.695 6.138 0l11.125-11.125c37.079-37.079 37.079-97.193.001-134.271z" fill="#fbd268"/><g><g><path d="m106.002 413.725c-1.977 0-3.955-.754-5.463-2.263-3.018-3.017-3.018-7.909 0-10.927l40.665-40.664c3.018-3.018 7.91-3.018 10.927 0 3.018 3.017 3.018 7.909 0 10.927l-40.665 40.664c-1.51 1.508-3.488 2.263-5.464 2.263z" fill="#fff5c6"/></g><g><path d="m129.024 436.744c-.684 0-1.377-.091-2.068-.283-4.112-1.139-6.522-5.397-5.382-9.509l17.647-63.682c1.14-4.112 5.399-6.521 9.509-5.382 4.112 1.139 6.522 5.397 5.382 9.509l-17.647 63.682c-.948 3.422-4.056 5.665-7.441 5.665z" fill="#fff5c6"/></g><g><path d="m82.979 390.709c-3.386 0-6.493-2.243-7.441-5.665-1.14-4.112 1.27-8.37 5.382-9.509l63.683-17.647c4.111-1.138 8.37 1.27 9.509 5.382 1.14 4.112-1.27 8.37-5.382 9.509l-63.683 17.647c-.69.192-1.385.283-2.068.283z" fill="#fff5c6"/></g></g><g><g><path d="m365.334 154.393c-1.977 0-3.955-.755-5.463-2.263-3.018-3.017-3.018-7.909 0-10.927l40.664-40.664c3.017-3.017 7.909-3.017 10.927 0s3.018 7.909 0 10.927l-40.664 40.664c-1.509 1.508-3.487 2.263-5.464 2.263z" fill="#fff5c6"/></g><g><path d="m365.329 154.395c-3.386 0-6.493-2.243-7.441-5.665-1.14-4.112 1.27-8.37 5.382-9.509l63.682-17.647c4.113-1.138 8.37 1.27 9.509 5.382 1.14 4.112-1.27 8.37-5.382 9.509l-63.682 17.647c-.69.191-1.384.283-2.068.283z" fill="#fff5c6"/></g><g><path d="m365.339 154.395c-.684 0-1.377-.091-2.068-.283-4.112-1.139-6.522-5.397-5.382-9.509l17.647-63.682c1.14-4.113 5.399-6.523 9.509-5.382 4.112 1.139 6.522 5.397 5.382 9.509l-17.647 63.682c-.949 3.421-4.056 5.665-7.441 5.665z" fill="#fff5c6"/></g></g><path d="m273.263 376.843 54.745-54.745 37.035-49.389c2.918-2.918 17.413-5.421 19.884-8.595 29.829-38.311 27.134-93.737-8.085-128.956-38.137-38.137-99.969-38.137-138.106 0l-64.821 64.821-24.545 42.944c-10.534 10.534-32.372 18.691-37.087 31.842-12.354 34.46-4.729 74.476 22.873 102.078 38.138 38.137 99.97 38.137 138.107 0z" fill="#feaee1"/><path d="m376.843 135.158c-11.999-11.999-26.346-20.216-41.56-24.664 3.713 2.777 7.28 5.837 10.655 9.212 38.137 38.137 38.137 99.969 0 138.106l-103.58 103.58c-26.138 26.138-63.404 34.354-96.545 24.664 38.246 28.611 92.688 25.551 127.451-9.212l54.745-54.745 37.036-49.389c2.918-2.918 17.413-5.421 19.884-8.595 29.827-38.313 27.132-93.739-8.086-128.957z" fill="#fe93d3"/><path d="m328.008 322.098 48.835-48.835c2.918-2.918 5.611-5.977 8.083-9.152-.706-.171-1.414-.344-2.151-.541-30.048-8.051-26.116-22.725-56.164-30.776-30.044-8.05-33.976 6.623-64.02-1.427-30.045-8.051-26.113-22.724-56.158-30.774-15.321-4.105-23.851-2.302-32.517-.615l-38.759 38.759c-10.534 10.534-18.153 22.878-22.867 36.03 2.65 1.075 5.625 2.086 9.062 3.007 30.043 8.05 33.975-6.623 64.019 1.427 30.045 8.05 26.113 22.724 56.158 30.774 30.044 8.05 33.976-6.623 64.02 1.427 10.855 2.909 17.269 6.683 22.459 10.696z" fill="#ffe179"/><path d="m384.896 264.104c-.696-.168-1.395-.339-2.121-.533-15.179-4.067-21.687-9.824-28.285-15.564-2.605 3.404-5.439 6.69-8.553 9.804l-51.45 51.45c3.286.365 6.919 1.031 11.061 2.141 10.856 2.909 17.27 6.683 22.46 10.696l48.835-48.835c2.882-2.891 5.565-5.935 8.053-9.159z" fill="#fbd268"/></g></svg>