<svg id="Capa_1" enable-background="new 0 0 512 512" height="512" viewBox="0 0 512 512" width="512" xmlns="http://www.w3.org/2000/svg"><g><g><path d="m.01 132.676c-.41 26.871 11.631 59.468 32.899 83.526 18.514 20.942 43.272 31.751 66.808 45.877 12.664 7.601 28.566 26.854 37.981 43.585 2.532 4.499 9.04 4.499 11.571 0 9.416-16.731 25.318-35.984 37.981-43.585 23.537-14.127 48.295-24.935 66.808-45.877 21.268-24.058 33.309-56.654 32.899-83.526-.362-23.767-5.577-44.284-14.364-61.598-24.075-47.437-74.964-55.367-126.328-55.622-52.815-.262-106.132 8.475-131.319 56.11-9.142 17.296-14.579 37.682-14.936 61.11z" fill="#d1a08f"/><path d="m286.959 132.676c-.362-23.767-5.577-44.285-14.364-61.598-9.69-19.092-25.639-28.044-42.299-39.404-29.127-19.861-64.367-34.238-100.373-30.97 64.831 5.901 124.87 49.254 126.131 131.971.41 26.871-11.631 59.468-32.899 83.526-18.514 20.942-43.272 31.751-66.808 45.877-8.966 5.381-19.553 16.605-28.314 28.638 3.613 4.962 6.918 10.061 9.667 14.946 2.532 4.499 9.039 4.499 11.571 0 9.415-16.73 25.318-35.984 37.981-43.585 23.537-14.127 48.295-24.936 66.808-45.877 21.268-24.056 33.309-56.652 32.899-83.524z" fill="#c68d7a"/><path d="m14.957 71.571c24.997 21.315 73.18 35.753 128.528 35.753 55.773 0 104.277-14.658 129.106-36.243-48.83-96.212-207.953-93.47-257.634.49z" fill="#fddeb0"/><path d="m248.266 86.578c9.552-4.59 17.77-9.799 24.324-15.496-.006-.011-.011-.023-.017-.034-25.045-50.66-85.006-75.675-142.599-70.337 51.463 4.699 99.893 33.006 118.292 85.867z" fill="#fdd79b"/></g><g><path d="m225.041 379.327c-.41-26.871 11.631-59.468 32.899-83.526 18.514-20.942 43.272-31.751 66.808-45.877 12.664-7.601 28.566-26.854 37.981-43.585 2.532-4.499 9.039-4.499 11.571 0 9.416 16.731 25.318 35.984 37.981 43.585 23.537 14.127 48.295 24.935 66.808 45.877 21.268 24.058 33.309 56.654 32.899 83.526-.362 23.767-5.577 44.285-14.364 61.598-25.204 49.662-79.797 57.507-133.556 55.505-50.392-1.877-100.053-10.531-124.09-55.993-9.144-17.296-14.58-37.682-14.937-61.11z" fill="#d1a08f"/><path d="m479.091 295.801c-18.514-20.942-43.272-31.751-66.808-45.877-12.663-7.601-28.566-26.854-37.981-43.585-2.532-4.499-9.039-4.499-11.571 0-2.749 4.885-6.054 9.984-9.667 14.946 8.761 12.033 19.348 23.257 28.314 28.638 23.536 14.127 48.295 24.936 66.808 45.877 21.268 24.058 33.309 56.654 32.899 83.526-1.262 82.717-61.3 126.07-126.131 131.971 35.286 3.203 68.006-10.2 96.861-29.203 17.313-11.402 35.584-21.2 45.608-40.771 8.91-17.397 14.202-38.047 14.568-61.997.409-26.87-11.632-59.467-32.9-83.525z" fill="#c68d7a"/><path d="m239.987 440.432c24.997-21.315 73.18-35.753 128.528-35.753 55.773 0 104.277 14.658 129.106 36.243-48.83 96.212-207.952 93.47-257.634-.49z" fill="#fddeb0"/><path d="m473.296 425.425c-18.399 52.861-66.828 81.168-118.293 85.867 54.293 5.019 116.104-16.769 142.599-70.335.006-.012.011-.024.017-.035-6.553-5.698-14.771-10.906-24.323-15.497z" fill="#fdd79b"/></g></g></svg>