<svg id="Capa_1" enable-background="new 0 0 512 512" height="512" viewBox="0 0 512 512" width="512" xmlns="http://www.w3.org/2000/svg"><g><path d="m413.618 219.429h-315.236v-188.524c0-17.068 13.837-30.905 30.906-30.905h253.425c17.069 0 30.905 13.837 30.905 30.905z" fill="#d1a08f"/><path d="m382.712 0h-30.905c17.069 0 30.905 13.837 30.905 30.905v188.523h30.905v-188.523c.001-17.068-13.836-30.905-30.905-30.905z" fill="#c68d7a"/><path d="m189.038 117.441h-55.63c-2.276 0-4.121-1.845-4.121-4.121v-78.294c0-2.276 1.845-4.121 4.121-4.121h55.63c2.276 0 4.121 1.845 4.121 4.121v78.294c0 2.276-1.845 4.121-4.121 4.121z" fill="#e5c7be"/><path d="m283.815 117.441h-55.63c-2.276 0-4.121-1.845-4.121-4.121v-78.294c0-2.276 1.845-4.121 4.121-4.121h55.63c2.276 0 4.121 1.845 4.121 4.121v78.294c0 2.276-1.845 4.121-4.121 4.121z" fill="#e5c7be"/><path d="m378.592 117.441h-55.63c-2.276 0-4.121-1.845-4.121-4.121v-78.294c0-2.276 1.845-4.121 4.121-4.121h55.63c2.276 0 4.121 1.845 4.121 4.121v78.294c-.001 2.276-1.846 4.121-4.121 4.121z" fill="#e5c7be"/><path d="m378.592 30.905h-30.905c2.276 0 4.121 1.845 4.121 4.121v78.294c0 2.276-1.845 4.121-4.121 4.121h30.905c2.276 0 4.121-1.845 4.121-4.121v-78.294c-.001-2.276-1.846-4.121-4.121-4.121z" fill="#d9b3a6"/><path d="m189.038 234.881h-55.63c-2.276 0-4.121-1.845-4.121-4.121v-78.294c0-2.276 1.845-4.121 4.121-4.121h55.63c2.276 0 4.121 1.845 4.121 4.121v78.294c0 2.276-1.845 4.121-4.121 4.121z" fill="#e5c7be"/><path d="m283.815 234.881h-55.63c-2.276 0-4.121-1.845-4.121-4.121v-78.294c0-2.276 1.845-4.121 4.121-4.121h55.63c2.276 0 4.121 1.845 4.121 4.121v78.294c0 2.276-1.845 4.121-4.121 4.121z" fill="#e5c7be"/><path d="m378.592 234.881h-55.63c-2.276 0-4.121-1.845-4.121-4.121v-78.294c0-2.276 1.845-4.121 4.121-4.121h55.63c2.276 0 4.121 1.845 4.121 4.121v78.294c-.001 2.276-1.846 4.121-4.121 4.121z" fill="#e5c7be"/><g fill="#d9b3a6"><path d="m378.592 148.346h-30.905c2.276 0 4.121 1.845 4.121 4.121v78.294c0 2.276-1.845 4.121-4.121 4.121h30.905c2.276 0 4.121-1.845 4.121-4.121v-78.294c-.001-2.276-1.846-4.121-4.121-4.121z"/><path d="m283.815 30.905h-30.905c2.276 0 4.121 1.845 4.121 4.121v78.294c0 2.276-1.845 4.121-4.121 4.121h30.905c2.276 0 4.121-1.845 4.121-4.121v-78.294c0-2.276-1.845-4.121-4.121-4.121z"/><path d="m283.815 148.346h-30.905c2.276 0 4.121 1.845 4.121 4.121v78.294c0 2.276-1.845 4.121-4.121 4.121h30.905c2.276 0 4.121-1.845 4.121-4.121v-78.294c0-2.276-1.845-4.121-4.121-4.121z"/><path d="m189.038 30.905h-30.905c2.276 0 4.121 1.845 4.121 4.121v78.294c0 2.276-1.845 4.121-4.121 4.121h30.905c2.276 0 4.121-1.845 4.121-4.121v-78.294c0-2.276-1.845-4.121-4.121-4.121z"/><path d="m189.038 148.346h-30.905c2.276 0 4.121 1.845 4.121 4.121v78.294c0 2.276-1.845 4.121-4.121 4.121h30.905c2.276 0 4.121-1.845 4.121-4.121v-78.294c0-2.276-1.845-4.121-4.121-4.121z"/></g><path d="m382.712 512h-253.424c-17.069 0-30.905-13.837-30.905-30.905v-277.119h315.235v277.119c0 17.068-13.837 30.905-30.906 30.905z" fill="#feaee1"/><path d="m382.712 203.976v277.119c0 17.069-13.837 30.905-30.905 30.905h30.905c17.069 0 30.905-13.837 30.905-30.905v-277.119z" fill="#fe93d3"/><path d="m129.288 476.974v-237.972c0-2.276 1.845-4.121 4.121-4.121h245.183c2.276 0 4.121 1.845 4.121 4.121v237.972c0 2.276-1.845 4.121-4.121 4.121h-245.184c-2.275 0-4.12-1.845-4.12-4.121z" fill="#ffdff3"/><circle cx="256" cy="357.988" fill="#feaee1" r="62.453"/><path d="m256 295.534c-5.334 0-10.51.672-15.453 1.93 27.017 6.877 47.001 31.365 47.001 60.523s-19.983 53.646-47.001 60.523c4.942 1.258 10.119 1.93 15.453 1.93 34.492 0 62.453-27.961 62.453-62.453 0-34.491-27.961-62.453-62.453-62.453z" fill="#fe93d3"/></g></svg>