<svg id="Capa_1" enable-background="new 0 0 512 512" height="512" viewBox="0 0 512 512" width="512" xmlns="http://www.w3.org/2000/svg"><g><path d="m197.314 418.456v65.729c0 15.362 12.453 27.815 27.815 27.815h61.741c15.362 0 27.815-12.453 27.815-27.815v-65.729zm86.467 58.518c0 2.276-1.845 4.121-4.121 4.121h-47.32c-2.276 0-4.121-1.845-4.121-4.121v-27.613h55.561v27.613z" fill="#d8e8f0"/><g><path d="m283.78 418.456v30.905 27.613.005 7.206c0 15.362-12.453 27.815-27.815 27.815h30.905c15.362 0 27.815-12.453 27.815-27.815v-65.729z" fill="#bad6e5"/></g><path d="m286.871 0h-61.741c-15.362 0-27.815 12.453-27.815 27.815v65.729h117.371v-65.729c0-15.362-12.453-27.815-27.815-27.815zm-3.09 62.639h-55.561v-27.613c0-2.276 1.845-4.121 4.121-4.121h47.32c2.276 0 4.121 1.845 4.121 4.121v27.613z" fill="#d8e8f0"/><g><path d="m286.871 0h-30.905c15.362 0 27.815 12.453 27.815 27.815v7.206.005 27.613 30.905h30.905v-65.729c0-15.362-12.453-27.815-27.815-27.815z" fill="#bad6e5"/></g><circle cx="256" cy="256" fill="#bad6e5" r="196.765"/><path d="m256 59.235c-5.201 0-10.354.205-15.453.602 101.447 7.881 181.312 92.694 181.312 196.163s-79.865 188.282-181.312 196.163c5.099.396 10.252.602 15.453.602 108.67 0 196.765-88.095 196.765-196.765s-88.095-196.765-196.765-196.765z" fill="#a6cee0"/><circle cx="256" cy="256" fill="#d1a08f" r="155.557"/><path d="m256 100.443c-5.215 0-10.368.263-15.453.766 78.548 7.782 140.105 74.231 140.105 154.791s-61.557 147.009-140.105 154.791c5.084.504 10.238.766 15.453.766 85.775 0 155.557-69.783 155.557-155.557s-69.782-155.557-155.557-155.557z" fill="#c68d7a"/><g><path d="m174.205 183.959c-2.566 0-4.512-2.322-4.065-4.848 2.291-12.93 13.586-22.751 27.174-22.751s24.883 9.82 27.174 22.751c.448 2.526-1.499 4.848-4.065 4.848z" fill="#f58a97"/><path d="m224.488 179.111c-2.291-12.931-13.586-22.751-27.174-22.751-4.508 0-8.752 1.1-12.51 3.016 7.57 3.861 13.133 11.094 14.664 19.734.448 2.526-1.499 4.848-4.065 4.848h25.02c2.566.001 4.513-2.321 4.065-4.847z" fill="#f07281"/><path d="m318.122 219.202c-1.814-1.814-1.549-4.832.554-6.302 10.763-7.523 25.694-6.48 35.302 3.128s10.651 24.539 3.128 35.302c-1.47 2.103-4.488 2.368-6.302.554z" fill="#f58a97"/><path d="m353.978 216.028c-7.892-7.892-19.369-9.993-29.184-6.328 3.593 1.34 6.968 3.439 9.856 6.328 7.261 7.261 9.622 17.558 7.1 26.803l9.053 9.053c1.814 1.814 4.832 1.549 6.302-.554 7.524-10.763 6.481-25.694-3.127-35.302z" fill="#f07281"/><path d="m247.215 362.989c1.814 1.814 1.549 4.832-.554 6.302-10.763 7.523-25.694 6.48-35.302-3.128s-10.651-24.539-3.128-35.302c1.47-2.103 4.488-2.368 6.302-.554z" fill="#f58a97"/><path d="m247.215 362.989-32.682-32.682c-1.814-1.814-4.833-1.549-6.302.554-2.212 3.164-3.662 6.692-4.393 10.336l21.792 21.792c1.814 1.814 1.549 4.832-.554 6.302-1.583 1.107-3.264 2.005-4.997 2.741 8.617 3.66 18.711 2.761 26.582-2.741 2.103-1.469 2.368-4.487.554-6.302z" fill="#f07281"/></g><path d="m275.064 279.817h-29.875c-2.276 0-4.121-1.845-4.121-4.121v-29.875c0-2.276 1.845-4.121 4.121-4.121h29.875c2.276 0 4.121 1.845 4.121 4.121v29.875c-.001 2.276-1.846 4.121-4.121 4.121z" fill="#fff5c6"/><path d="m275.064 241.7h-21.351c2.276 0 4.121 1.845 4.121 4.121v29.875c0 2.276-1.845 4.121-4.121 4.121h21.351c2.276 0 4.121-1.845 4.121-4.121v-29.875c-.001-2.276-1.845-4.121-4.121-4.121z" fill="#fceba4"/><path d="m327.874 344.635h-21.921c-1.67 0-3.024-1.354-3.024-3.024v-21.921c0-1.67 1.354-3.024 3.024-3.024h21.921c1.67 0 3.024 1.354 3.024 3.024v21.921c0 1.67-1.354 3.024-3.024 3.024z" fill="#fff5c6"/><path d="m327.874 316.667h-17.477c1.67 0 3.024 1.354 3.024 3.024v21.921c0 1.67-1.354 3.024-3.024 3.024h17.477c1.67 0 3.024-1.354 3.024-3.024v-21.922c0-1.67-1.354-3.023-3.024-3.023z" fill="#fceba4"/><path d="m169.271 274.743h-21.921c-1.67 0-3.024-1.354-3.024-3.024v-21.921c0-1.67 1.354-3.024 3.024-3.024h21.921c1.67 0 3.024 1.354 3.024 3.024v21.921c-.001 1.67-1.354 3.024-3.024 3.024z" fill="#fff5c6"/><path d="m169.271 246.774h-17.477c1.67 0 3.024 1.354 3.024 3.024v21.921c0 1.67-1.354 3.024-3.024 3.024h17.477c1.67 0 3.024-1.354 3.024-3.024v-21.921c-.001-1.67-1.354-3.024-3.024-3.024z" fill="#fceba4"/><path d="m306.834 176.9h-21.921c-1.67 0-3.024-1.354-3.024-3.024v-21.921c0-1.67 1.354-3.024 3.024-3.024h21.921c1.67 0 3.024 1.354 3.024 3.024v21.921c0 1.671-1.354 3.024-3.024 3.024z" fill="#fff5c6"/><path d="m306.834 148.932h-17.477c1.67 0 3.024 1.354 3.024 3.024v21.921c0 1.67-1.354 3.024-3.024 3.024h17.477c1.67 0 3.024-1.354 3.024-3.024v-21.921c0-1.67-1.354-3.024-3.024-3.024z" fill="#fceba4"/><g fill="#89daa4"><circle cx="320.16" cy="282.392" r="7.726"/><circle cx="258.349" cy="328.751" r="7.726"/><circle cx="273.802" cy="205.129" r="7.726"/><circle cx="211.991" cy="220.582" r="7.726"/><circle cx="196.538" cy="297.845" r="7.726"/></g></g></svg>