<svg id="Capa_1" enable-background="new 0 0 512 512" height="512" viewBox="0 0 512 512" width="512" xmlns="http://www.w3.org/2000/svg"><g><g><path d="m314.355 338.458h-116.71v-146.141c0-22.42 18.175-40.595 40.595-40.595h35.52c22.42 0 40.595 18.175 40.595 40.595z" fill="#e5c7be"/><path d="m273.76 151.723h-30.446c22.42 0 40.595 18.175 40.595 40.595v146.141h30.446v-146.142c0-22.42-18.175-40.594-40.595-40.594z" fill="#d9b3a6"/><path d="m344.801 384.127h-177.602v-146.141c0-22.42 18.175-40.595 40.595-40.595h96.412c22.42 0 40.595 18.175 40.595 40.595z" fill="#d1a08f"/><path d="m304.206 197.391h-30.446c22.42 0 40.595 18.175 40.595 40.595v146.141h30.446v-146.141c0-22.42-18.175-40.595-40.595-40.595z" fill="#c68d7a"/><path d="m375.247 429.796h-238.494v-146.141c0-22.42 18.175-40.595 40.595-40.595h157.304c22.42 0 40.595 18.175 40.595 40.595z" fill="#e5c7be"/><path d="m334.652 243.06h-30.446c22.42 0 40.595 18.175 40.595 40.595v146.141h30.446v-146.141c0-22.42-18.175-40.595-40.595-40.595z" fill="#d9b3a6"/><path d="m405.693 475.465h-299.386v-61.14l3.322-6.95-3.322-8.276v-49.477c0-33.63 27.262-60.892 60.892-60.892h108.083l7.609 2.03 8.306-2.03h53.604c8.614 0 16.81 1.789 24.237 5.015 2.13.925 4.158 4.299 6.154 5.452 2.748 1.589 5.4 1.056 7.855 3.04 13.813 11.163 22.646 28.242 22.646 47.385z" fill="#d1a08f"/><path d="m344.801 288.729h-30.446c33.63 0 60.892 27.262 60.892 60.892v125.843h30.446v-125.843c0-18.917-8.626-35.819-22.159-46.987-2.182-1.8-6.107.218-8.528-1.269s-3.338-6.479-5.967-7.621c-7.428-3.226-15.624-5.015-24.238-5.015z" fill="#c68d7a"/><path d="m106.307 414.339c.152 0 .306-.004.46-.014 43.084-2.611 104.067-16.632 149.916-68.599 14.052-15.924 25.46-34.101 33.908-54.026.412-.971.606-1.979.605-2.971h-15.915c-7.664 17.251-17.748 33.026-30.014 46.926-42.232 47.866-98.783 60.936-138.961 63.443v15.241z" fill="#edd9d3"/><path d="m332.799 421.841c37.53-42.537 47.665-91.534 50.241-119.596-1.888-1.526-4.548-.199-6.612-1.494-2.568-1.611-4.586-5.778-7.394-6.997-.452.885-.738 1.874-.811 2.928-1.761 25.151-10.187 73.547-46.838 115.086-24.27 27.503-55.815 46.456-93.758 56.33-3.427.891-5.689 3.982-5.687 7.366h32.696c30.764-11.654 56.986-29.624 78.163-53.623z" fill="#edd9d3"/><path d="m383.039 302.246c-4.262-3.44-8.981-6.308-14.006-8.491-.452.885-.738 1.874-.811 2.928-.398 5.69-1.144 12.578-2.474 20.298 5.118 8.041 8.398 17.358 9.257 27.373 4.746-16.224 7.001-30.853 8.034-42.108z" fill="#e5c7be"/><path d="m44.4 512h423.2c22.42 0 40.595-18.175 40.595-40.595 0-4.653-3.772-8.426-8.426-8.426h-487.537c-4.653 0-8.426 3.772-8.426 8.426 0 22.42 18.175 40.595 40.594 40.595z" fill="#bad6e5"/><path d="m499.768 462.979h-30.446c4.653 0 8.426 3.772 8.426 8.426 0 22.42-18.175 40.595-40.595 40.595h30.447c22.42 0 40.595-18.175 40.595-40.595-.001-4.653-3.773-8.426-8.427-8.426z" fill="#a6cee0"/></g><g><g><path d="m236.718 102.501c-4.204 0-7.611-3.407-7.611-7.611v-18.775c0-16.788 13.658-30.446 30.446-30.446 8.394 0 15.223-6.829 15.223-15.223v-22.835c0-4.204 3.408-7.611 7.612-7.611s7.611 3.407 7.611 7.611v22.834c0 16.788-13.658 30.446-30.446 30.446-8.394 0-15.223 6.829-15.223 15.223v18.776c-.001 4.204-3.409 7.611-7.612 7.611z" fill="#eaf6ff"/></g><g><path d="m282.387 132.947c-4.204 0-7.612-3.407-7.612-7.612v-18.775c0-16.788 13.658-30.446 30.446-30.446 8.394 0 15.223-6.829 15.223-15.223v-22.834c0-4.204 3.408-7.611 7.612-7.611s7.611 3.407 7.611 7.611v22.834c0 16.788-13.658 30.446-30.446 30.446-8.394 0-15.223 6.829-15.223 15.223v18.775c0 4.205-3.408 7.612-7.611 7.612z" fill="#eaf6ff"/></g></g></g></svg>