<svg id="Capa_1" enable-background="new 0 0 512 512" height="512" viewBox="0 0 512 512" width="512" xmlns="http://www.w3.org/2000/svg"><g><g><path d="m369.433 73.136c-34.096 34.096-47.542 81.017-40.352 125.235 44.218 7.19 91.139-6.256 125.235-40.352 31.769-31.769 45.61-74.671 41.536-116.147-.533-5.423-4.85-9.74-10.272-10.272-41.475-4.074-84.378 9.767-116.147 41.536z" fill="#aee69c"/><path d="m495.852 41.872c-.533-5.423-4.85-9.74-10.272-10.272-9.917-.974-19.914-.912-29.822.162 4.905.962 8.693 5.054 9.189 10.11 4.074 41.476-9.767 84.378-41.536 116.147-24.227 24.227-54.929 38.015-86.534 41.396 41.876 4.493 85.341-9.297 117.44-41.396 31.768-31.768 45.609-74.671 41.535-116.147z" fill="#89daa4"/><g><path d="m323.618 203.835c-3.018-3.018-3.018-7.909 0-10.928l82.794-82.794c3.017-3.016 7.909-3.016 10.927 0 3.018 3.018 3.018 7.909 0 10.928l-82.794 82.794c-3.018 3.017-7.91 3.017-10.927 0z" fill="#d1f19e"/></g></g><g><path d="m142.567 73.136c34.096 34.096 47.542 81.017 40.352 125.235-44.218 7.19-91.139-6.256-125.235-40.352-31.769-31.769-45.61-74.671-41.536-116.147.533-5.423 4.85-9.74 10.272-10.272 41.475-4.074 84.378 9.767 116.147 41.536z" fill="#aee69c"/><path d="m142.567 73.136c-31.769-31.769-74.672-45.61-116.147-41.536-5.423.533-9.74 4.849-10.272 10.272-.151 1.538-.27 3.079-.371 4.621 34.852 1.461 69.275 15.484 95.885 42.095 30.592 30.592 44.547 71.507 41.902 111.532 9.806.411 19.645-.171 29.355-1.749 7.189-44.218-6.256-91.139-40.352-125.235z" fill="#89daa4"/><g><path d="m177.455 203.835-82.794-82.794c-3.018-3.018-3.018-7.909 0-10.928 3.017-3.016 7.909-3.016 10.927 0l82.794 82.794c3.018 3.018 3.018 7.909 0 10.928-3.017 3.017-7.909 3.017-10.927 0z" fill="#d1f19e"/></g></g><g><path d="m316.022 397.908c0-48.219-23.671-90.905-60.022-117.088-36.351 26.183-60.021 68.868-60.021 117.088 0 44.928 20.549 85.052 52.758 111.498 4.211 3.458 10.316 3.458 14.527 0 32.208-26.446 52.758-66.57 52.758-111.498z" fill="#aee69c"/><path d="m256 280.82c-5.451 3.926-10.609 8.23-15.453 12.861 27.458 26.254 44.569 63.237 44.569 104.227s-17.111 77.975-44.569 104.229c2.638 2.523 5.366 4.952 8.189 7.27 4.211 3.458 10.316 3.458 14.527 0 32.209-26.447 52.758-66.571 52.758-111.498.001-48.22-23.67-90.906-60.021-117.089z" fill="#89daa4"/><g><path d="m256 405.635c-4.267 0-7.726-3.459-7.726-7.726v-117.088c0-4.268 3.459-7.726 7.726-7.726s7.726 3.459 7.726 7.726v117.088c0 4.267-3.459 7.726-7.726 7.726z" fill="#d1f19e"/></g></g><g><g><circle cx="333.264" cy="262.514" fill="#f8a6af" r="101.473"/><path d="m333.264 161.042c-5.254 0-10.414.399-15.453 1.169 48.708 7.442 86.02 49.515 86.02 100.304s-37.312 92.862-86.02 100.304c5.038.77 10.199 1.169 15.453 1.169 56.042 0 101.473-45.431 101.473-101.473s-45.432-101.473-101.473-101.473z" fill="#f58a97"/><circle cx="178.736" cy="262.514" fill="#f8a6af" r="101.473"/><path d="m178.736 161.042c-5.254 0-10.414.399-15.453 1.169 48.708 7.442 86.02 49.515 86.02 100.304s-37.312 92.862-86.02 100.304c5.038.77 10.199 1.169 15.453 1.169 56.042 0 101.473-45.431 101.473-101.473s-45.431-101.473-101.473-101.473z" fill="#f58a97"/></g><circle cx="256" cy="101.473" fill="#f58a97" r="101.473"/><path d="m256 0c-5.254 0-10.414.399-15.453 1.169 48.708 7.442 86.02 49.515 86.02 100.304s-37.312 92.862-86.02 100.304c5.038.77 10.199 1.169 15.453 1.169 56.042 0 101.473-45.431 101.473-101.473s-45.431-101.473-101.473-101.473z" fill="#f07281"/></g></g></svg>