<svg id="Capa_1" enable-background="new 0 0 512 512" height="512" viewBox="0 0 512 512" width="512" xmlns="http://www.w3.org/2000/svg"><g><g><circle cx="282.604" cy="63.767" fill="#a79ba7" r="34.331"/><path d="m282.604 29.436c-5.56 0-10.807 1.33-15.453 3.677 11.196 5.655 18.878 17.254 18.878 30.654s-7.682 24.999-18.878 30.654c4.646 2.347 9.892 3.677 15.453 3.677 18.96 0 34.331-15.37 34.331-34.331 0-18.96-15.37-34.331-34.331-34.331z" fill="#918291"/><circle cx="229.396" cy="63.767" fill="#a79ba7" r="34.331"/><path d="m229.396 29.436c-5.56 0-10.807 1.33-15.453 3.677 11.196 5.655 18.878 17.254 18.878 30.654s-7.682 24.999-18.878 30.654c4.646 2.347 9.893 3.677 15.453 3.677 18.961 0 34.331-15.37 34.331-34.331-.001-18.96-15.371-34.331-34.331-34.331z" fill="#918291"/></g><path d="m428.401 482.564h-344.802c-12.021 0-22.951-6.97-28.022-17.87l-38.045-81.783h476.937l-38.045 81.783c-5.071 10.899-16.002 17.87-28.023 17.87z" fill="#bad6e5"/><path d="m463.563 382.91-38.045 81.783c-5.07 10.899-16.001 17.87-28.022 17.87h30.905c12.021 0 22.951-6.97 28.022-17.87l38.045-81.783z" fill="#a6cee0"/><path d="m501.698 406.169h-491.396c-5.69 0-10.302-4.612-10.302-10.302v-25.913c0-5.69 4.612-10.302 10.302-10.302h491.396c5.69 0 10.302 4.612 10.302 10.302v25.913c0 5.69-4.612 10.302-10.302 10.302z" fill="#d8e8f0"/><path d="m501.698 359.652h-30.905c5.69 0 10.302 4.612 10.302 10.302v25.913c0 5.69-4.612 10.302-10.302 10.302h30.905c5.69 0 10.302-4.612 10.302-10.302v-25.913c0-5.689-4.612-10.302-10.302-10.302z" fill="#bad6e5"/><path d="m473.289 359.652h-403.673c-12.845 0-23.258-10.413-23.258-23.258 0-12.845 10.413-23.258 23.258-23.258h403.673c12.845 0 23.258 10.413 23.258 23.258 0 12.845-10.413 23.258-23.258 23.258z" fill="#e5c7be"/><path d="m442.384 313.136h-403.673c-12.845 0-23.258-10.413-23.258-23.258 0-12.845 10.413-23.258 23.258-23.258h403.673c12.845 0 23.258 10.413 23.258 23.258 0 12.845-10.413 23.258-23.258 23.258z" fill="#d1a08f"/><path d="m442.384 266.619h-30.905c12.845 0 23.258 10.413 23.258 23.258s-10.413 23.258-23.258 23.258h30.905c12.845 0 23.258-10.413 23.258-23.258s-10.413-23.258-23.258-23.258z" fill="#c68d7a"/><path d="m473.289 266.619h-403.673c-12.845 0-23.258-10.413-23.258-23.258 0-12.845 10.413-23.258 23.258-23.258h403.673c12.845 0 23.258 10.413 23.258 23.258 0 12.845-10.413 23.258-23.258 23.258z" fill="#e5c7be"/><path d="m442.384 220.103h-403.673c-12.845 0-23.258-10.413-23.258-23.258 0-12.845 10.413-23.258 23.258-23.258h403.673c12.845 0 23.258 10.413 23.258 23.258 0 12.845-10.413 23.258-23.258 23.258z" fill="#d1a08f"/><path d="m442.384 173.587h-30.905c12.845 0 23.258 10.413 23.258 23.258s-10.413 23.258-23.258 23.258h30.905c12.845 0 23.258-10.413 23.258-23.258s-10.413-23.258-23.258-23.258z" fill="#c68d7a"/><path d="m473.289 173.586h-403.673c-12.845 0-23.258-10.413-23.258-23.258 0-12.845 10.413-23.258 23.258-23.258h403.673c12.845 0 23.258 10.413 23.258 23.258 0 12.845-10.413 23.258-23.258 23.258z" fill="#e5c7be"/><g fill="#d9b3a6"><path d="m473.289 127.07h-30.905c12.845 0 23.258 10.413 23.258 23.258 0 12.845-10.413 23.258-23.258 23.258h30.905c12.845 0 23.258-10.413 23.258-23.258 0-12.845-10.413-23.258-23.258-23.258z"/><path d="m473.289 220.103h-30.905c12.845 0 23.258 10.413 23.258 23.258 0 12.845-10.413 23.258-23.258 23.258h30.905c12.845 0 23.258-10.413 23.258-23.258 0-12.845-10.413-23.258-23.258-23.258z"/><path d="m473.289 313.136h-30.905c12.845 0 23.258 10.413 23.258 23.258 0 12.845-10.413 23.258-23.258 23.258h30.905c12.845 0 23.258-10.413 23.258-23.258 0-12.845-10.413-23.258-23.258-23.258z"/></g><path d="m15.453 103.812c0 12.845 10.413 23.258 23.258 23.258h45.278c11.379 0 20.604 9.225 20.604 20.604v68.637c0 10.565 8.565 19.13 19.13 19.13 10.565 0 19.13-8.565 19.13-19.13v-68.637c0-11.379 9.225-20.604 20.604-20.604h79.46c11.379 0 20.604 9.225 20.604 20.604v22.279c0 10.565 8.565 19.13 19.13 19.13 10.565 0 19.13-8.565 19.13-19.13v-22.279c0-11.379 9.225-20.604 20.604-20.604h32.828c11.379 0 20.604 9.225 20.604 20.604v68.637c0 10.565 8.565 19.13 19.13 19.13 10.565 0 19.13-8.565 19.13-19.13v-68.637c0-11.379 9.225-20.604 20.604-20.604h7.705c12.845 0 23.258-10.413 23.258-23.258 0-12.845-10.413-23.258-23.258-23.258h-403.675c-12.845 0-23.258 10.413-23.258 23.258z" fill="#ffe179"/><g fill="#fbd268"><path d="m111.947 147.674v68.637c0 4.208-1.375 8.086-3.677 11.244 3.479 4.772 9.096 7.886 15.453 7.886 10.565 0 19.13-8.565 19.13-19.13v-68.637c0-11.379 9.225-20.604 20.604-20.604h-30.905c-11.38 0-20.605 9.225-20.605 20.604z"/><path d="m442.384 80.554h-30.905c12.845 0 23.258 10.413 23.258 23.258 0 12.845-10.413 23.258-23.258 23.258h-7.705c-11.379 0-20.604 9.225-20.604 20.604v68.637c0 4.208-1.375 8.086-3.677 11.244 3.478 4.772 9.095 7.886 15.453 7.886 10.565 0 19.13-8.565 19.13-19.13v-68.637c0-11.379 9.225-20.604 20.604-20.604h7.705c12.845 0 23.258-10.413 23.258-23.258-.001-12.845-10.414-23.258-23.259-23.258z"/><path d="m270.874 147.674v22.279c0 4.208-1.375 8.086-3.677 11.244 3.479 4.772 9.096 7.886 15.453 7.886 10.565 0 19.13-8.565 19.13-19.13v-22.279c0-11.379 9.225-20.604 20.604-20.604h-30.905c-11.38 0-20.605 9.225-20.605 20.604z"/></g></g></svg>