<svg id="Capa_1" enable-background="new 0 0 512 512" height="512" viewBox="0 0 512 512" width="512" xmlns="http://www.w3.org/2000/svg"><g><path d="m482.732 463.023h-453.532v-131.198l15.437-18.57-15.437-27.741v-147.2l226.766-108.061 226.766 108.061v147.2l-15.437 23.155 15.437 23.156z" fill="#fddeb0"/><path d="m451.857 138.314v324.709h30.875v-131.198l-15.437-23.156 15.437-23.155v-147.2z" fill="#fdd79b"/><path d="m256 184.359c-56.01 0-101.578 45.567-101.578 101.578v195.188h203.155v-195.188c.001-56.011-45.567-101.578-101.577-101.578z" fill="#c68d7a"/><path d="m256 184.359c-5.247 0-10.402.4-15.437 1.171 48.71 7.458 86.14 49.643 86.14 100.407v195.188h30.875v-195.188c0-56.011-45.568-101.578-101.578-101.578z" fill="#bc7c63"/><path d="m15.693 450.251h480.614c8.526 0 15.437 6.911 15.437 15.437v30.875c0 8.526-6.911 15.437-15.437 15.437h-480.614c-8.526 0-15.437-6.911-15.437-15.437v-30.875c-.001-8.526 6.911-15.437 15.437-15.437z" fill="#d1a08f"/><path d="m496.307 450.251h-30.875c8.526 0 15.437 6.912 15.437 15.437v30.875c0 8.526-6.911 15.437-15.437 15.437h30.875c8.526 0 15.437-6.912 15.437-15.437v-30.875c.001-8.526-6.911-15.437-15.437-15.437z" fill="#c68d7a"/><g><path d="m501.43 178.106-240.987-115.348c-2.81-1.345-6.077-1.345-8.887 0l-240.986 115.348c-4.782 2.289-10.314-1.197-10.314-6.498v-45.776c0-2.773 1.592-5.301 4.094-6.498l247.207-118.325c2.81-1.345 6.077-1.345 8.887 0l247.207 118.325c2.502 1.197 4.094 3.725 4.094 6.498v45.776c0 5.301-5.533 8.786-10.315 6.498z" fill="#d1a08f"/><g><path d="m480.87 106.515v61.749l20.56 9.841c4.782 2.289 10.314-1.197 10.314-6.498v-45.776c0-2.773-1.592-5.301-4.094-6.498z" fill="#c38f86"/></g><g><g><path d="m44.462 131.054c-1.861-3.835-.303-8.432 3.533-10.294l.085-.041c3.834-1.859 8.453-.26 10.314 3.575s.26 8.453-3.575 10.315c-3.768 1.828-8.473.327-10.357-3.555zm51.14-24.498c-1.852-3.839-.283-8.433 3.556-10.285l.085-.041c3.842-1.851 8.454-.241 10.306 3.598 1.852 3.84.241 8.454-3.599 10.306-3.771 1.818-8.474.308-10.348-3.578zm51.155-24.466c-1.861-3.835-.303-8.432 3.533-10.294l.085-.041c3.835-1.86 8.453-.259 10.314 3.575 1.861 3.835.26 8.453-3.575 10.315-3.768 1.829-8.473.328-10.357-3.555zm51.14-24.497c-1.852-3.839-.283-8.433 3.556-10.284l.085-.041c3.841-1.852 8.454-.241 10.306 3.598 1.852 3.84.241 8.454-3.599 10.306-3.771 1.817-8.474.307-10.348-3.579z" fill="#fddeb0"/></g><g><path d="m256.028 37.497c-2.924 0-5.701-1.651-7.015-4.399-3.239-6.773 4.05-13.302 10.317-10.305 3.846 1.839 5.496 6.458 3.656 10.305-1.326 2.774-4.082 4.399-6.958 4.399z" fill="#fddeb0"/></g><g><path d="m457.334 134.682c-3.853-1.824-5.54-6.446-3.717-10.3 1.824-3.852 6.383-5.519 10.237-3.695l.085.04c3.853 1.824 5.498 6.426 3.674 10.279-1.844 3.897-6.504 5.463-10.279 3.676zm-51.131-24.475c-3.857-1.815-5.555-6.433-3.74-10.291 1.815-3.857 6.369-5.535 10.228-3.718l.085.04c3.857 1.815 5.513 6.413 3.698 10.27-1.836 3.902-6.492 5.478-10.271 3.699zm-51.164-24.488c-3.853-1.824-5.54-6.446-3.717-10.3 1.824-3.852 6.382-5.518 10.237-3.695l.085.04c3.853 1.824 5.498 6.426 3.674 10.279-1.844 3.896-6.504 5.463-10.279 3.676zm-51.215-24.513c-3.835-1.861-5.478-6.5-3.618-10.335s6.437-5.454 10.271-3.596l.085.041c3.835 1.861 5.436 6.479 3.575 10.315-1.88 3.876-6.553 5.399-10.313 3.575z" fill="#fddeb0"/></g></g></g><g><g><path d="m447.863 488.844h-.107c-4.263 0-7.719-3.455-7.719-7.719 0-4.263 3.456-7.719 7.719-7.719h.107c4.263 0 7.719 3.455 7.719 7.719s-3.456 7.719-7.719 7.719zm-63.936 0h-.107c-4.263 0-7.719-3.455-7.719-7.719 0-4.263 3.456-7.719 7.719-7.719h.107c4.263 0 7.719 3.455 7.719 7.719-.001 4.264-3.457 7.719-7.719 7.719zm-63.937 0h-.106c-4.263 0-7.719-3.455-7.719-7.719 0-4.263 3.456-7.719 7.719-7.719h.106c4.263 0 7.719 3.455 7.719 7.719s-3.456 7.719-7.719 7.719zm-63.937 0h-.106c-4.263 0-7.719-3.455-7.719-7.719 0-4.263 3.456-7.719 7.719-7.719h.106c4.263 0 7.719 3.455 7.719 7.719s-3.456 7.719-7.719 7.719zm-63.936 0h-.107c-4.263 0-7.719-3.455-7.719-7.719 0-4.263 3.456-7.719 7.719-7.719h.107c4.263 0 7.719 3.455 7.719 7.719s-3.456 7.719-7.719 7.719zm-63.936 0h-.107c-4.263 0-7.719-3.455-7.719-7.719 0-4.263 3.456-7.719 7.719-7.719h.107c4.263 0 7.719 3.455 7.719 7.719-.001 4.264-3.457 7.719-7.719 7.719zm-63.937 0h-.107c-4.263 0-7.719-3.455-7.719-7.719 0-4.263 3.456-7.719 7.719-7.719h.107c4.263 0 7.719 3.455 7.719 7.719s-3.456 7.719-7.719 7.719z" fill="#fddeb0"/></g></g><circle cx="256" cy="125.042" fill="#d1a08f" r="24.185"/><path d="m256 100.857c-4.407 0-8.534 1.184-12.093 3.244 7.227 4.182 12.093 11.991 12.093 20.941s-4.866 16.759-12.093 20.942c3.558 2.059 7.686 3.243 12.093 3.243 13.357 0 24.185-10.828 24.185-24.185s-10.828-24.185-24.185-24.185z" fill="#c38f86"/><path d="m29.2 285.514h125.222v46.312h-125.222z" fill="#f58a97"/><path d="m357.509 285.514h125.222v46.312h-125.222z" fill="#f58a97"/><path d="m451.857 285.513h30.875v46.312h-30.875z" fill="#f07281"/><g fill="#f58a97"><path d="m95.503 200.21 5.961 12.078c.6 1.215 1.759 2.057 3.1 2.252l13.328 1.937c3.377.491 4.725 4.64 2.281 7.022l-9.645 9.401c-.97.946-1.413 2.308-1.184 3.644l2.277 13.275c.577 3.363-2.953 5.927-5.973 4.34l-11.921-6.267c-1.199-.63-2.632-.63-3.831 0l-11.921 6.267c-3.02 1.588-6.55-.977-5.973-4.34l2.277-13.275c.229-1.335-.214-2.698-1.184-3.644l-9.645-9.401c-2.443-2.382-1.095-6.531 2.281-7.022l13.328-1.937c1.341-.195 2.5-1.037 3.1-2.252l5.961-12.078c1.51-3.06 5.873-3.06 7.383 0z"/><path d="m423.812 200.21 5.961 12.078c.6 1.215 1.759 2.057 3.1 2.252l13.328 1.937c3.377.491 4.725 4.64 2.281 7.022l-9.645 9.401c-.97.946-1.413 2.308-1.184 3.644l2.277 13.275c.577 3.363-2.953 5.927-5.973 4.34l-11.921-6.267c-1.199-.63-2.632-.63-3.831 0l-11.921 6.267c-3.02 1.588-6.55-.977-5.973-4.34l2.277-13.275c.229-1.335-.214-2.698-1.184-3.644l-9.645-9.401c-2.443-2.382-1.095-6.531 2.281-7.022l13.328-1.937c1.341-.195 2.5-1.037 3.1-2.252l5.961-12.078c1.51-3.06 5.873-3.06 7.383 0z"/></g><g><path d="m95.503 364.995 5.961 12.078c.6 1.215 1.759 2.057 3.1 2.252l13.328 1.937c3.377.491 4.725 4.64 2.281 7.022l-9.645 9.401c-.97.946-1.413 2.308-1.184 3.644l2.277 13.275c.577 3.363-2.953 5.927-5.973 4.34l-11.921-6.267c-1.199-.63-2.632-.63-3.831 0l-11.921 6.267c-3.02 1.588-6.55-.977-5.973-4.34l2.277-13.275c.229-1.335-.214-2.698-1.184-3.644l-9.645-9.401c-2.443-2.382-1.095-6.531 2.281-7.022l13.328-1.937c1.341-.195 2.5-1.037 3.1-2.252l5.961-12.078c1.51-3.06 5.873-3.06 7.383 0z" fill="#f58a97"/><path d="m423.812 364.995 5.961 12.078c.6 1.215 1.759 2.057 3.1 2.252l13.328 1.937c3.377.491 4.725 4.64 2.281 7.022l-9.645 9.401c-.97.946-1.413 2.308-1.184 3.644l2.277 13.275c.577 3.363-2.953 5.927-5.973 4.34l-11.921-6.267c-1.199-.63-2.632-.63-3.831 0l-11.921 6.267c-3.02 1.588-6.55-.977-5.973-4.34l2.277-13.275c.229-1.335-.214-2.698-1.184-3.644l-9.645-9.401c-2.443-2.382-1.095-6.531 2.281-7.022l13.328-1.937c1.341-.195 2.5-1.037 3.1-2.252l5.961-12.078c1.51-3.06 5.873-3.06 7.383 0z" fill="#f58a97"/><g><path d="m448.482 388.283c2.443-2.382 1.095-6.531-2.282-7.022l-13.328-1.937c-1.341-.195-2.5-1.037-3.1-2.252l-5.961-12.077c-1.51-3.06-5.873-3.06-7.383 0l-5.961 12.078c-.54 1.094-1.536 1.88-2.708 2.168.001.051.001.033.002.084l5.274.766c6.671.969 9.335 9.168 4.508 13.873-3.359 3.275-4.892 7.992-4.099 12.616l1.353 7.886 3.408-1.792c1.199-.631 2.632-.631 3.831 0l11.921 6.267c3.02 1.588 6.55-.977 5.973-4.34l-2.277-13.274c-.229-1.335.214-2.698 1.184-3.644z" fill="#f07281"/></g><g><path d="m448.482 223.498c2.443-2.382 1.095-6.531-2.282-7.022l-13.328-1.937c-1.341-.195-2.5-1.037-3.1-2.252l-5.961-12.077c-1.51-3.06-5.873-3.06-7.383 0l-5.961 12.078c-.54 1.094-1.536 1.88-2.708 2.168.001.051.001.033.002.084l5.274.766c6.671.969 9.335 9.168 4.508 13.873-3.359 3.275-4.892 7.992-4.099 12.616l1.353 7.886 3.408-1.792c1.199-.631 2.632-.631 3.831 0l11.921 6.267c3.02 1.588 6.55-.977 5.973-4.34l-2.277-13.274c-.229-1.335.214-2.698 1.184-3.644z" fill="#f07281"/></g><g><path d="m120.173 388.283c2.443-2.382 1.095-6.531-2.282-7.022l-13.328-1.937c-1.341-.195-2.5-1.037-3.1-2.252l-5.961-12.077c-1.51-3.06-5.873-3.06-7.383 0l-5.961 12.078c-.54 1.094-1.536 1.88-2.708 2.168.001.051.001.033.002.084l5.274.766c6.671.969 9.335 9.168 4.508 13.873-3.359 3.275-4.892 7.992-4.099 12.616l1.353 7.886 3.408-1.792c1.199-.631 2.632-.631 3.831 0l11.921 6.267c3.02 1.588 6.55-.977 5.973-4.34l-2.277-13.274c-.229-1.335.214-2.698 1.184-3.644z" fill="#f07281"/></g><g><path d="m120.173 223.498c2.443-2.382 1.095-6.531-2.282-7.022l-13.328-1.937c-1.341-.195-2.5-1.037-3.1-2.252l-5.961-12.077c-1.51-3.06-5.873-3.06-7.383 0l-5.961 12.078c-.54 1.094-1.536 1.88-2.708 2.168.001.051.001.033.002.084l5.274.766c6.671.969 9.335 9.168 4.508 13.873-3.359 3.275-4.892 7.992-4.099 12.616l1.353 7.886 3.408-1.792c1.199-.631 2.632-.631 3.831 0l11.921 6.267c3.02 1.588 6.55-.977 5.973-4.34l-2.277-13.274c-.229-1.335.214-2.698 1.184-3.644z" fill="#f07281"/></g></g></g></svg>