<svg id="Capa_1" enable-background="new 0 0 512 512" height="512" viewBox="0 0 512 512" width="512" xmlns="http://www.w3.org/2000/svg"><g><g><path d="m364.931 512h-157.245c-4.459 0-5.741-6.096-1.66-7.892l55.026-24.218c2.617-1.152 4.306-3.741 4.306-6.6v-203.779h41.902v203.778c0 2.859 1.689 5.448 4.306 6.6l55.026 24.218c4.08 1.797 2.798 7.893-1.661 7.893z" fill="#d8ecfe"/><path d="m366.591 504.108-55.026-24.218c-2.617-1.152-4.306-3.741-4.306-6.6v-203.779h-28.49v203.778c0 2.859 1.689 5.448 4.306 6.6l55.026 24.218c4.081 1.796 2.799 7.892-1.66 7.892h28.49c4.459.001 5.741-6.095 1.66-7.891z" fill="#c4e2ff"/><g><g><circle cx="133.842" cy="68.343" fill="#fff5c6" r="60.617"/><path d="m133.841 136.686c-37.685 0-68.343-30.659-68.343-68.343s30.659-68.343 68.343-68.343 68.344 30.659 68.344 68.343-30.659 68.343-68.344 68.343zm0-121.233c-29.164 0-52.89 23.726-52.89 52.89s23.726 52.89 52.89 52.89 52.891-23.726 52.891-52.89-23.727-52.89-52.891-52.89z" fill="#ffe179"/></g><path d="m194.459 60.617h-41.963l29.672-29.672c3.018-3.018 3.018-7.909 0-10.928-3.017-3.016-7.909-3.016-10.927 0l-29.673 29.673v-41.964c0-4.268-3.459-7.726-7.726-7.726s-7.726 3.459-7.726 7.726v41.964l-29.674-29.673c-3.017-3.016-7.909-3.016-10.927 0-3.018 3.018-3.018 7.909 0 10.928l29.672 29.672h-41.962c-4.267 0-7.726 3.459-7.726 7.726 0 4.268 3.459 7.726 7.726 7.726h41.964l-29.673 29.673c-3.018 3.018-3.018 7.909 0 10.928 1.509 1.508 3.486 2.263 5.463 2.263s3.955-.755 5.463-2.263l29.673-29.673v41.963c0 4.268 3.459 7.726 7.726 7.726s7.726-3.459 7.726-7.726v-52.89h52.891c4.267 0 7.726-3.459 7.726-7.726.001-4.269-3.458-7.727-7.725-7.727z" fill="#ffe179"/></g><g><path d="m126.115 67.828v55.63c0 28.448 23.061 51.509 51.509 51.509h18.474c3.983 0 7.211 3.229 7.211 7.211v42.181c0 45.839 37.16 82.998 82.998 82.998 45.839 0 82.998-37.16 82.998-82.998v-42.181c0-3.983 3.229-7.211 7.211-7.211h18.474c28.448 0 51.509-23.061 51.509-51.509v-55.63c0-3.983-3.229-7.211-7.211-7.211h-305.961c-3.983 0-7.212 3.229-7.212 7.211z" fill="#eaf6ff"/><g><path d="m439.29 60.617h-23.694v47.388c0 28.448-23.061 51.509-51.509 51.509h-18.474c-3.983 0-7.211 3.229-7.211 7.211v42.181c0 45.839-37.16 82.998-82.998 82.998-7.173 0-14.132-.91-20.771-2.621 14.181 11.302 32.133 18.074 51.676 18.074 45.839 0 82.998-37.16 82.998-82.999v-42.181c0-3.983 3.229-7.211 7.211-7.211h18.474c28.448 0 51.509-23.061 51.509-51.509v-55.63c0-3.981-3.228-7.21-7.211-7.21z" fill="#d8ecfe"/></g><path d="m369.307 182.178c0-3.983 3.229-7.211 7.211-7.211h18.474c28.448 0 51.509-23.061 51.509-51.509v-16.483h-320.386v16.483c0 28.448 23.061 51.509 51.509 51.509h18.474c3.983 0 7.211 3.229 7.211 7.211v42.181c0 45.839 37.16 82.999 82.998 82.999 45.839 0 82.998-37.16 82.998-82.999v-42.181z" fill="#d1f19e"/><g><path d="m415.596 106.975v1.03c0 28.448-23.061 51.509-51.509 51.509h-18.474c-3.983 0-7.211 3.229-7.211 7.211v42.181c0 45.839-37.16 82.998-82.998 82.998-7.173 0-14.132-.91-20.77-2.621 14.181 11.302 32.133 18.074 51.676 18.074 45.839 0 82.998-37.16 82.998-82.999v-42.181c0-3.983 3.229-7.211 7.211-7.211h18.474c28.448 0 51.509-23.061 51.509-51.509v-16.483h-30.906z" fill="#c1e9af"/></g></g></g><g fill="#edf9d9"><circle cx="233.301" cy="148.346" r="7.726"/><circle cx="335.242" cy="153.007" r="7.726"/><circle cx="245.289" cy="251.737" r="7.726"/><circle cx="283.92" cy="199.565" r="7.726"/><circle cx="317.146" cy="259.692" r="7.726"/></g></g></svg>