<svg id="Capa_1" enable-background="new 0 0 512 512" height="512" viewBox="0 0 512 512" width="512" xmlns="http://www.w3.org/2000/svg"><g><g><g><path d="m200.69 102.501c-4.204 0-7.611-3.407-7.611-7.611v-18.775c0-16.788 13.658-30.446 30.446-30.446 8.394 0 15.223-6.829 15.223-15.223v-22.835c0-4.204 3.408-7.611 7.611-7.611 4.204 0 7.611 3.407 7.611 7.611v22.834c0 16.788-13.658 30.446-30.446 30.446-8.394 0-15.223 6.829-15.223 15.223v18.776c0 4.204-3.408 7.611-7.611 7.611z" fill="#eaf6ff"/></g><g><path d="m246.359 132.947c-4.204 0-7.611-3.407-7.611-7.612v-18.775c0-16.788 13.658-30.446 30.446-30.446 8.394 0 15.223-6.829 15.223-15.223v-22.834c0-4.204 3.407-7.611 7.611-7.611s7.612 3.407 7.612 7.611v22.834c0 16.788-13.658 30.446-30.446 30.446-8.394 0-15.223 6.829-15.223 15.223v18.775c-.001 4.205-3.408 7.612-7.612 7.612z" fill="#eaf6ff"/></g></g><g><path d="m373.217 193.332c-62.954 0-114.172 51.218-114.172 114.172s51.218 114.172 114.172 114.172 114.172-51.218 114.172-114.172-51.218-114.172-114.172-114.172zm0 197.899c-46.241 0-83.726-37.486-83.726-83.726s37.486-83.726 83.726-83.726 83.726 37.486 83.726 83.726-37.485 83.726-83.726 83.726z" fill="#feca9c"/><path d="m65.205 512h331.861c22.42 0 40.595-18.175 40.595-40.595 0-4.653-3.772-8.426-8.426-8.426h-396.199c-4.653 0-8.426 3.772-8.426 8.426.001 22.42 18.175 40.595 40.595 40.595z" fill="#ffe3cb"/><path d="m429.235 462.979h-30.446c4.653 0 8.426 3.772 8.426 8.426 0 22.42-18.175 40.595-40.595 40.595h30.446c22.42 0 40.595-18.175 40.595-40.595 0-4.653-3.772-8.426-8.426-8.426z" fill="#fedbbd"/><path d="m311.259 462.98h-160.246c-41.523 0-75.183-33.661-75.183-75.183v-211.693c0-5.605 4.544-10.149 10.149-10.149h290.316c5.605 0 10.149 4.544 10.149 10.149v211.692c-.002 41.523-33.663 75.184-75.185 75.184z" fill="#feca9c"/><path d="m376.294 165.956h-30.446c5.605 0 10.149 4.544 10.149 10.149v211.692c0 41.523-33.661 75.183-75.183 75.183h30.446c41.523 0 75.183-33.661 75.183-75.183v-211.693c-.001-5.604-4.545-10.148-10.149-10.148z" fill="#fdb97e"/></g><g><g><path d="m238.747 165.955v133.289c0 4.204-3.408 7.611-7.611 7.611-4.204 0-7.611-3.407-7.611-7.611v-133.289z" fill="#a6cee0"/></g><path d="m254.327 365.988h-46.382c-4.149 0-7.512-3.363-7.512-7.512v-50.09c0-2.392 1.139-4.641 3.067-6.056l23.433-17.2c2.502-1.836 5.906-1.836 8.407 0l23.433 17.2c1.928 1.415 3.067 3.664 3.067 6.056v50.09c-.001 4.149-3.364 7.512-7.513 7.512z" fill="#aee69c"/><path d="m258.772 302.33-23.433-17.2c-2.502-1.836-5.906-1.836-8.407 0l-11.019 8.088 12.413 9.112c1.928 1.415 3.067 3.664 3.067 6.056v50.09c0 4.149-3.363 7.512-7.512 7.512h30.446c4.149 0 7.512-3.363 7.512-7.512v-50.09c0-2.392-1.139-4.641-3.067-6.056z" fill="#89daa4"/></g></g></svg>