<svg id="Capa_1" enable-background="new 0 0 512 512" height="512" viewBox="0 0 512 512" width="512" xmlns="http://www.w3.org/2000/svg"><g><path d="m404.346 512h-296.692c-17.069 0-30.905-13.837-30.905-30.905v-327.598h358.503v327.598c-.001 17.068-13.837 30.905-30.906 30.905z" fill="#fff5c6"/><path d="m404.346 153.497v327.598c0 17.069-13.837 30.905-30.905 30.905h30.905c17.069 0 30.905-13.837 30.905-30.905v-327.598z" fill="#fceba4"/><path d="m388.893 60.781h-265.786l-46.359 92.716h358.503z" fill="#aee69c"/><path d="m388.893 60.781h-30.905l46.358 92.716h30.905z" fill="#89daa4"/><path d="m143.71 0h224.58c11.379 0 20.604 9.225 20.604 20.604v40.177h-265.787v-40.177c0-11.379 9.224-20.604 20.603-20.604z" fill="#fff5c6"/><path d="m368.29 0h-30.905c11.379 0 20.604 9.225 20.604 20.604v40.177h30.905v-40.177c-.001-11.379-9.225-20.604-20.604-20.604z" fill="#fceba4"/><g><circle cx="256" cy="363.397" fill="#feca9c" r="84.847"/><path d="m256 278.55c-5.28 0-10.439.507-15.453 1.43 39.477 7.268 69.394 41.838 69.394 83.418s-29.917 76.149-69.394 83.418c5.013.923 10.173 1.43 15.453 1.43 46.86 0 84.847-37.987 84.847-84.847s-37.987-84.849-84.847-84.849z" fill="#fdb97e"/><g><path d="m276.974 236.729c-15.724 15.724-21.925 37.363-18.609 57.755 20.392 3.316 42.031-2.885 57.755-18.609 14.651-14.651 21.034-34.436 19.155-53.564-.246-2.501-2.236-4.492-4.737-4.737-19.127-1.88-38.913 4.504-53.564 19.155z" fill="#aee69c"/><path d="m335.276 222.311c-.245-2.501-2.236-4.492-4.737-4.737-7.444-.731-14.985-.194-22.287 1.578.813.835 1.356 1.934 1.476 3.159 1.879 19.128-4.504 38.913-19.155 53.564-9.218 9.218-20.473 15.137-32.314 17.811.04.266.063.533.106.799 20.392 3.316 42.031-2.885 57.755-18.609 14.651-14.652 21.034-34.438 19.156-53.565z" fill="#89daa4"/><g><path d="m252.901 299.948c-3.017-3.018-3.017-7.909 0-10.928l38.182-38.182c3.018-3.016 7.909-3.016 10.928 0 3.017 3.018 3.017 7.909 0 10.928l-38.182 38.182c-3.019 3.016-7.91 3.018-10.928 0z" fill="#d1f19e"/></g></g><g><path d="m254.218 334.832c-4.101-1.179-6.47-5.459-5.291-9.56 2.303-8.012 6.403-29.011-5.226-50.902-10.745-20.225-28.616-28.836-35.801-31.6-3.983-1.532-5.97-6.002-4.438-9.985 1.531-3.982 5.998-5.972 9.985-4.438 8.806 3.386 30.709 13.945 43.899 38.773 14.276 26.869 9.254 52.604 6.432 62.422-1.189 4.137-5.562 6.44-9.56 5.29z" fill="#aee69c"/></g><g><path d="m225.082 327.249c-3.696-2.133-4.963-6.858-2.829-10.553 2.132-3.696 6.858-4.966 10.553-2.829 4.941 2.852 12.989 6.164 23.279 5.819 9.813-.341 17.339-3.902 21.925-6.831 3.594-2.295 8.373-1.244 10.67 2.354 2.297 3.597 1.242 8.373-2.354 10.67-6.209 3.965-16.403 8.789-29.705 9.25-13.256.458-24.83-4.01-31.539-7.88z" fill="#fdb97e"/></g></g></g></svg>