<svg id="Capa_1" enable-background="new 0 0 512 512" height="512" viewBox="0 0 512 512" width="512" xmlns="http://www.w3.org/2000/svg"><g><path d="m379.073 0h-246.146c-8.534 0-15.453 6.918-15.453 15.453v30.905h277.052v-30.905c0-8.535-6.918-15.453-15.453-15.453z" fill="#aee69c"/><path d="m379.073 0h-30.905c8.534 0 15.453 6.919 15.453 15.453v30.905h30.905v-30.905c0-8.534-6.918-15.453-15.453-15.453z" fill="#89daa4"/><path d="m358.117 512h-204.234c-16.189 0-29.635-12.493-30.822-28.639l-28.8-391.675h323.477l-28.8 391.675c-1.186 16.146-14.632 28.639-30.821 28.639z" fill="#aee69c"/><path d="m386.833 91.686-28.8 391.675c-1.187 16.146-14.633 28.639-30.822 28.639h30.905c16.189 0 29.635-12.493 30.822-28.639l28.8-391.675z" fill="#89daa4"/><path d="m417.738 45.328h-323.476c-17.069 0-30.905 13.837-30.905 30.905 0 17.069 13.837 30.905 30.905 30.905h323.477c17.069 0 30.905-13.837 30.905-30.905 0-17.068-13.837-30.905-30.906-30.905z" fill="#fff5c6"/><path d="m417.738 45.328h-30.905c17.069 0 30.905 13.837 30.905 30.905 0 17.069-13.837 30.905-30.905 30.905h30.905c17.069 0 30.905-13.837 30.905-30.905.001-17.068-13.836-30.905-30.905-30.905z" fill="#fceba4"/><g><path d="m398.186 357.599 6.132-83.398h-296.636l6.132 83.398z" fill="#d1f19e"/><path d="m373.413 274.201-6.132 83.398h30.905l6.132-83.398z" fill="#c1e9af"/><g><circle cx="256" cy="309.569" fill="#fff5c6" r="92.536"/><path d="m256 217.033c-5.266 0-10.427.446-15.453 1.292 43.749 7.356 77.084 45.404 77.084 91.245s-33.334 83.889-77.084 91.245c5.026.845 10.187 1.292 15.453 1.292 51.106 0 92.536-41.43 92.536-92.536 0-51.108-41.43-92.538-92.536-92.538z" fill="#fceba4"/><g><ellipse cx="256" cy="309.569" fill="#d1a08f" rx="39.418" ry="59.287"/><path d="m248.357 251.406c.217 1.487.868 2.927 1.964 4.115 9.334 10.119 11.469 25.191 5.313 37.505l-13.089 26.176c-7.533 15.067-6.579 32.952 1.917 47.067 3.65 1.678 7.523 2.587 11.538 2.587 2.616 0 5.17-.393 7.643-1.123-.217-1.487-.868-2.927-1.964-4.115-9.334-10.119-11.469-25.191-5.313-37.505l13.089-26.176c7.533-15.067 6.579-32.952-1.917-47.067-3.65-1.678-7.523-2.587-11.538-2.587-2.616-.001-5.17.392-7.643 1.123z" fill="#d9b3a6"/></g></g></g></g></svg>