<svg id="Capa_1" enable-background="new 0 0 512 512" height="512" viewBox="0 0 512 512" width="512" xmlns="http://www.w3.org/2000/svg"><g><circle cx="256" cy="256" fill="#bad6e5" r="256"/><path d="m256 0c-5.19 0-10.339.173-15.453.478 134.188 7.991 240.548 119.327 240.548 255.522s-106.36 247.531-240.547 255.522c5.113.305 10.262.478 15.452.478 141.385 0 256-114.615 256-256s-114.615-256-256-256z" fill="#a6cee0"/><circle cx="256" cy="256" fill="#eaf6ff" r="193.923"/><g><g><path d="m302.541 160.794-41.365 28.358 41.365 28.358c2.65 1.816 6.251-.081 6.251-3.293v-50.129c0-3.213-3.601-5.11-6.251-3.294z" fill="#f6b2bb"/><path d="m302.541 160.794-14.378 9.856v37.003l14.378 9.856c2.65 1.816 6.251-.081 6.251-3.294v-50.128c0-3.212-3.601-5.109-6.251-3.293z" fill="#f8a6af"/><path d="m337.854 57.838v8.698c0 24.967-20.24 45.206-45.206 45.206h-12.341l-8.202-4.352-7.794 4.352h-4.503c-7.299 0-13.94 2.816-18.896 7.422-1.699 1.579-5.051 2.538-6.313 4.496-1.533 2.38-.861 5.839-1.612 8.643-.616 2.298-.944 4.713-.944 7.204 0 3.844.791 7.548 2.241 10.93 1.033 2.41 1.289 6.197 2.943 8.214 1.654 2.018 4.707 2.267 6.886 3.761 2.146 1.471 4.524 2.655 7.087 3.491l14.646 4.776c7.225 2.356 12.115 9.093 12.115 16.693 0 8.729-6.412 16.132-15.052 17.378-22.74 3.28-44.326-3.599-60.517-16.961-1.979-1.633-1.395-5.41-3.206-7.23-2.698-2.714-7.683-3.582-9.963-6.674-9.444-12.808-15.078-28.673-15.078-46.014 0-18.406 6.717-35.243 17.835-48.193 1.817-2.116 4.726-2.433 6.767-4.331 2.538-2.361 4.268-6.241 7.118-8.23 11.992-8.366 26.576-13.272 42.306-13.272h16.15l7.696 2.534 8.288-2.534h53.555c2.207 0 3.994 1.788 3.994 3.993z" fill="#f58a97"/><g fill="#f07281"><path d="m265.846 170.68-14.646-4.776c-2.564-.836-4.941-2.021-7.087-3.491-2.477-1.697-5.849-2.214-7.639-4.577-1.36-1.796-1.298-5.317-2.19-7.399-1.45-3.383-2.241-7.087-2.241-10.93 0-2.492.328-4.907.944-7.204.636-2.373.451-5.283 1.655-7.36 1.389-2.397 4.254-3.905 6.271-5.779 4.956-4.605 11.597-7.422 18.896-7.422h-30.905c-15.334 0-27.765 12.431-27.765 27.765 0 12.018 7.732 22.671 19.157 26.397l14.646 4.776c7.225 2.356 12.115 9.093 12.115 16.693 0 7.492-4.73 13.995-11.531 16.479 8.729 1.87 17.957 2.26 27.385.9 8.64-1.246 15.052-8.65 15.052-17.379-.002-7.6-4.891-14.337-12.117-16.693z"/><path d="m333.862 53.845h-30.905c2.205 0 3.993 1.788 3.993 3.993v8.698c0 24.967-20.24 45.206-45.206 45.206l13.992-.782 4.572.782h12.341c24.967 0 45.206-20.24 45.206-45.206v-8.698c-.001-2.205-1.788-3.993-3.993-3.993z"/></g><g fill="#f6b2bb"><path d="m280.307 53.845h-15.984c-3.689 10.055-5.432 20.552-5.138 31.258.25 9.125 1.981 18.069 5.126 26.639h15.997c0-.976-.181-1.967-.574-2.926-3.158-7.719-4.874-15.84-5.102-24.138-.259-9.451 1.506-19.103 5.104-27.911.39-.958.571-1.948.571-2.922z"/><path d="m191.996 79.692c.525 8.6 3.057 20.817 11.803 32.279 9.656 12.654 22.103 18.114 29.193 20.333 1.37-5.111 4.16-9.639 7.924-13.136-.772-.629-1.678-1.12-2.693-1.42-5.099-1.505-14.756-5.476-22.139-15.151-9.089-11.91-9.05-25-8.612-30.074.174-2.014-.448-3.908-1.595-5.39-5.144 3.588-9.806 7.812-13.881 12.559z"/><path d="m202.393 187.789c6.644-.384 15.003-2.089 23.414-7.046 9.268-5.461 14.98-12.71 18.317-18.348-4.359-2.987-7.767-7.142-9.833-11.962-1.137.686-2.116 1.668-2.796 2.92-2.223 4.095-6.375 9.859-13.532 14.076-9.178 5.407-18.32 5.305-22.953 4.759-2.163-.249-4.218.42-5.782 1.694 3.81 5.167 8.235 9.839 13.165 13.907z"/></g></g><g><path d="m190.241 308.253-41.365-28.358 41.365-28.358c2.65-1.816 6.251.081 6.251 3.293v50.129c-.001 3.213-3.602 5.111-6.251 3.294z" fill="#f6b2bb"/><path d="m190.241 251.538-13.483 9.243v38.23l13.483 9.243c2.65 1.817 6.251-.08 6.251-3.293v-50.129c-.001-3.213-3.602-5.111-6.251-3.294z" fill="#f8a6af"/><path d="m225.554 411.21v-8.698c0-24.967-20.24-45.206-45.206-45.206h-12.341l-8.604 1.161-7.393-1.161h-4.503c-7.299 0-13.94-2.816-18.896-7.422-2.208-2.052-5.603-3.585-7.051-6.256-1.021-1.883-.308-4.77-.874-6.883-.616-2.298-.944-4.713-.944-7.204 0-3.843.791-7.547 2.24-10.93.95-2.217.913-5.734 2.392-7.623 1.737-2.219 5.083-2.739 7.437-4.353 2.146-1.471 4.524-2.655 7.087-3.491l14.646-4.776c7.225-2.356 12.115-9.093 12.115-16.693 0-8.729-6.412-16.132-15.052-17.378-22.742-3.28-44.331 3.6-60.522 16.965-2.262 1.867-2.72 4.801-4.76 6.911-2.404 2.487-6.344 4.196-8.404 6.99-9.443 12.808-15.077 28.672-15.077 46.013 0 18.406 6.718 35.243 17.835 48.194 2 2.33 5.033 2.803 7.305 4.868 2.356 2.142 3.962 5.865 6.58 7.692 11.992 8.366 26.576 13.273 42.307 13.273h16.151l7.755-2.246 8.229 2.246h53.555c2.205-.001 3.993-1.788 3.993-3.993z" fill="#f58a97"/><g fill="#f07281"><path d="m134.755 281.674c0 7.6-4.889 14.337-12.115 16.693l-14.646 4.776c-11.426 3.726-19.157 14.379-19.157 26.397 0 15.334 12.431 27.765 27.765 27.765h30.905c-7.299 0-13.94-2.816-18.896-7.422-2.236-2.078-5.596-3.543-7.051-6.256-.994-1.853-.318-4.809-.874-6.883-.616-2.298-.944-4.713-.944-7.204 0-4.129.913-8.097 2.574-11.678 1.001-2.157.551-5.048 2.059-6.875 1.641-1.988 5.284-2.877 7.437-4.353 2.146-1.471 4.524-2.655 7.087-3.491l14.646-4.776c7.225-2.356 12.115-9.094 12.115-16.693 0-8.729-6.412-16.132-15.052-17.379-9.428-1.36-18.656-.971-27.385.9 6.802 2.485 11.532 8.988 11.532 16.479z"/><path d="m180.348 357.305h-30.905c24.967 0 45.206 20.239 45.206 45.206v8.698c0 2.205-1.788 3.993-3.993 3.993h30.905c2.205 0 3.993-1.788 3.993-3.993v-8.698c0-24.966-20.239-45.206-45.206-45.206z"/></g><g fill="#f6b2bb"><path d="m167.435 412.281c-3.598-8.809-5.363-18.461-5.104-27.911.228-8.297 1.944-16.418 5.103-24.139.392-.958.574-1.95.573-2.925h-15.997c-3.145 8.572-4.875 17.516-5.125 26.639-.294 10.706 1.449 21.203 5.138 31.258h15.984c0-.975-.181-1.965-.572-2.922z"/><path d="m120.691 336.743c-7.089 2.219-19.537 7.679-29.193 20.333-8.746 11.461-11.278 23.679-11.803 32.279 4.075 4.747 8.737 8.97 13.88 12.559 1.147-1.481 1.769-3.375 1.595-5.388-.438-5.075-.475-18.167 8.613-30.075 7.383-9.675 17.04-13.646 22.139-15.151 1.015-.3 1.921-.791 2.693-1.42-3.763-3.498-6.554-8.025-7.924-13.137z"/><path d="m105.663 301.618c7.157 4.217 11.309 9.982 13.532 14.076.68 1.252 1.659 2.234 2.796 2.92 2.066-4.82 5.474-8.975 9.833-11.962-3.337-5.639-9.049-12.887-18.317-18.348-8.416-4.958-16.774-6.658-23.419-7.041-4.928 4.068-9.352 8.739-13.161 13.904 1.563 1.275 3.619 1.944 5.783 1.692 4.633-.547 13.775-.649 22.953 4.759z"/></g></g><g><path d="m321.759 357.781 41.365 28.358-41.365 28.358c-2.65 1.816-6.251-.081-6.251-3.293v-50.129c.001-3.213 3.602-5.111 6.251-3.294z" fill="#f6b2bb"/><path d="m286.446 254.824v8.698c0 24.967 20.24 45.206 45.206 45.206h12.341l8.491-3.759 7.505 3.759h4.503c7.299 0 13.939 2.816 18.895 7.421 2.135 1.984 6.473 2.571 7.901 5.137 1.089 1.957-.568 5.79.025 8.002.616 2.298.944 4.713.944 7.205 0 3.576-.684 7.031-1.947 10.218-1.098 2.773-1.872 6.8-3.775 9.072-1.612 1.924-4.25 2.178-6.347 3.615-2.146 1.471-4.524 2.656-7.088 3.492l-14.646 4.776c-7.225 2.356-12.115 9.093-12.115 16.693 0 8.729 6.412 16.132 15.052 17.378 22.42 3.234 43.719-3.407 59.832-16.401 2.472-1.994 2.81-5.792 5.024-8.072 2.595-2.673 7.014-3.88 9.209-6.909 9.216-12.717 14.7-28.388 14.7-45.497 0-18.406-6.718-35.243-17.835-48.194-2.093-2.438-5.459-2.824-7.848-4.971s-3.801-6.054-6.455-7.879c-11.912-8.19-26.34-12.983-41.889-12.983h-16.151l-6.335 2.775-9.648-2.775h-53.555c-2.206.001-3.994 1.788-3.994 3.993z" fill="#f58a97"/><path d="m376.128 250.831h-30.905c40.884 0 74.027 33.143 74.027 74.027 0 37.786-26.752 68.56-61.379 75.98 1.123.41 2.296.723 3.521.899 22.42 3.234 43.719-3.407 59.832-16.401 2.685-2.166 2.645-5.57 5.024-8.072 2.378-2.502 7.175-4.103 9.209-6.909 9.216-12.717 14.7-28.388 14.7-45.497 0-18.406-6.718-35.243-17.835-48.193-1.94-2.259-4.631-2.233-6.827-4.243-2.542-2.328-4.628-6.648-7.477-8.607-11.913-8.19-26.342-12.984-41.89-12.984z" fill="#f07281"/><g fill="#f6b2bb"><path d="m344.567 305.803c-.392.959-.574 1.95-.573 2.926h15.997c3.145-8.57 4.876-17.514 5.126-26.639.294-10.706-1.449-21.203-5.138-31.258h-15.984c0 .974.181 1.965.572 2.922 3.598 8.809 5.363 18.461 5.104 27.911-.23 8.298-1.946 16.418-5.104 24.138z"/><path d="m418.01 263.824c-.31 8.9-2.435 26.117-9.793 35.759-7.384 9.677-17.039 13.646-22.137 15.15-1.016.3-1.923.79-2.695 1.421 3.794 3.526 6.581 8.119 7.923 13.133 0 .001.001.001.001.002 7.089-2.217 19.535-7.676 29.193-20.332 8.746-11.461 11.278-23.679 11.803-32.28-4.186-4.874-8.986-9.203-14.295-12.853z"/><path d="m392.805 350.34c-.254-.467-1.272-1.938-2.509-3.635v.001c-2.02 5.108-5.587 9.571-10.119 12.675 0 0-.001 0-.001.001 3.336 5.639 9.049 12.887 18.317 18.348 8.412 4.956 16.771 6.662 23.414 7.045l.002-.002c5.093-4.203 9.65-9.049 13.543-14.421-7.078.005-21.38-1.379-29.116-5.937-7.156-4.216-11.308-9.98-13.531-14.075z"/></g></g></g></g></svg>