<svg id="Capa_1" enable-background="new 0 0 512 512" height="512" viewBox="0 0 512 512" width="512" xmlns="http://www.w3.org/2000/svg"><g><path d="m347.456 512h-182.912c-6.726 0-11.43-6.653-9.186-12.994l12.338-34.874c12.707-35.918 13.068-75.049 1.025-111.195l-35.778-107.393c-16.934-50.829-17.635-105.667-2.006-156.912l3.103-10.175c1.251-4.1 5.034-6.902 9.321-6.902h225.28c4.287 0 8.07 2.801 9.321 6.902l3.103 10.175c15.629 51.245 14.928 106.083-2.006 156.912l-35.778 107.393c-12.042 36.146-11.681 75.277 1.025 111.195l12.338 34.874c2.241 6.341-2.462 12.994-9.188 12.994z" fill="#eaf6ff"/><path d="m379.057 245.543c16.934-50.829 17.635-105.667 2.006-156.912l-3.103-10.175c-1.25-4.1-5.034-6.902-9.32-6.902h-30.905c4.287 0 8.07 2.802 9.32 6.902l3.103 10.175c15.629 51.245 14.928 106.083-2.006 156.912l-35.778 107.393c-12.042 36.146-11.681 75.277 1.025 111.195l12.338 34.875c2.243 6.341-2.46 12.994-9.186 12.994h30.905c6.726 0 11.43-6.653 9.186-12.994l-12.338-34.875c-12.707-35.918-13.068-75.049-1.025-111.195z" fill="#d8ecfe"/><path d="m356.642 499.006-12.338-34.875c-12.707-35.918-13.068-75.049-1.025-111.195l35.778-107.393c9.642-28.94 14.013-59.18 13.112-89.316h-272.338c-.901 30.136 3.47 60.376 13.112 89.316l35.778 107.393c12.042 36.146 11.681 75.277-1.025 111.195l-12.338 34.875c-2.243 6.341 2.46 12.994 9.186 12.994h182.911c6.727 0 11.43-6.653 9.187-12.994z" fill="#ffe179"/><path d="m379.057 245.543c9.642-28.94 14.013-59.18 13.112-89.316h-30.905c.901 30.136-3.47 60.376-13.112 89.316l-35.778 107.393c-12.042 36.146-11.681 75.277 1.025 111.195l12.338 34.875c2.243 6.341-2.46 12.994-9.186 12.994h30.905c6.726 0 11.43-6.653 9.186-12.994l-12.338-34.875c-12.707-35.918-13.068-75.049-1.025-111.195z" fill="#fbd268"/><path d="m344.194 26.875c-7.705 0-14.988 1.423-21.45 3.954-3.151 1.234-6.738.055-8.583-2.782-10.823-16.65-32.8-28.047-58.161-28.047s-47.338 11.397-58.162 28.047c-1.844 2.837-5.432 4.016-8.583 2.782-6.462-2.531-13.745-3.954-21.45-3.954-26.668 0-48.286 17.045-48.286 38.071s21.618 38.071 48.286 38.071c3.528 0 6.965-.303 10.276-.873 4.426-.763 8.478 2.602 8.478 7.093v64.968c0 12.107 9.815 21.922 21.922 21.922 12.107 0 21.922-9.815 21.922-21.922v-65.889c0-4.566 4.193-8.006 8.66-7.059 5.4 1.146 11.076 1.76 16.936 1.76 16.697 0 31.929-4.941 43.477-13.068 2.72-1.914 6.407-1.643 8.915.541 8.835 7.693 21.602 12.527 35.802 12.527 26.668 0 48.286-17.045 48.286-38.071s-21.617-38.071-48.285-38.071z" fill="#fff5c6"/><g fill="#fceba4"><path d="m225.095 103.018c-5.86 0-11.535-.615-16.936-1.76-4.467-.947-8.66 2.493-8.66 7.059v65.889c0 6.077-2.475 11.575-6.47 15.546 3.964 3.94 9.423 6.377 15.453 6.377 12.108 0 21.923-9.815 21.923-21.923v-65.889c0-2.35 1.115-4.396 2.803-5.705-2.66.259-5.365.406-8.113.406z"/><path d="m344.194 26.875c-5.405 0-10.594.714-15.446 2.005 19.082 5.084 32.826 19.305 32.826 36.066 0 16.767-13.754 30.992-32.847 36.071 4.856 1.294 10.056 2 15.466 2 26.668 0 48.286-17.045 48.286-38.071s-21.617-38.071-48.285-38.071z"/></g></g></svg>