<svg id="Capa_1" enable-background="new 0 0 512 512" height="512" viewBox="0 0 512 512" width="512" xmlns="http://www.w3.org/2000/svg"><g><circle cx="256" cy="256" fill="#bad6e5" r="256"/><path d="m256 0c-5.19 0-10.339.173-15.453.478 134.188 7.991 240.548 119.327 240.548 255.522s-106.36 247.531-240.547 255.522c5.113.305 10.262.478 15.452.478 141.385 0 256-114.615 256-256s-114.615-256-256-256z" fill="#a6cee0"/><circle cx="256" cy="256" fill="#eaf6ff" r="193.923"/><g><g><path d="m306.814 102.324c-1.706-1.706-1.572-4.489.254-6.067 23.814-20.579 59.841-19.564 82.45 3.045s23.625 58.636 3.045 82.45c-1.578 1.826-4.361 1.96-6.067.254z" fill="#fff5c6"/><path d="m414.89 140.922c-.323-17.151-6.996-34.17-19.908-47.083-12.913-12.911-29.932-19.585-47.081-19.908-.406-.066-2.037-.069-2.422-.01-15.513.25-30.98 5.704-43.461 16.49-2.499 2.16-4.002 5.287-4.123 8.58-.12 3.274 1.14 6.479 3.455 8.796 0 .001.001.001.001.002l79.685 79.684c2.215 2.214 5.245 3.463 8.367 3.463.143 0 .286-.003.429-.008 3.293-.121 6.419-1.624 8.578-4.122 10.787-12.482 16.24-27.95 16.491-43.464.058-.385.055-2.015-.011-2.42zm-60.508-51.012c8.467 1.242 16.672 4.518 23.8 9.802l-23.8 23.8zm34.728 20.729c5.283 7.127 8.559 15.332 9.801 23.8h-33.6zm-50.18-20.752v33.625l-23.813-23.813c7.162-5.327 15.37-8.587 23.813-9.812zm50.191 83.817-23.812-23.813h33.624c-1.226 8.443-4.485 16.651-9.812 23.813z" fill="#ffe179"/></g><g><path d="m125.503 329.993c-1.706-1.706-4.489-1.572-6.067.254-20.579 23.814-19.564 59.841 3.045 82.45s58.636 23.625 82.45 3.045c1.826-1.578 1.96-4.361.254-6.067z" fill="#fff5c6"/><path d="m210.649 404.212-79.683-79.683s-.001-.001-.001-.001c-2.316-2.315-5.531-3.564-8.795-3.455-3.293.121-6.42 1.623-8.58 4.122-10.786 12.482-16.24 27.951-16.49 43.464-.059.384-.055 2.013.01 2.419.323 17.151 6.996 34.17 19.908 47.083 12.91 12.91 29.924 19.582 47.072 19.906.409.067 2.07.069 2.466.006 15.501-.258 30.956-5.707 43.427-16.485 2.5-2.16 4.002-5.288 4.122-8.58.12-3.274-1.14-6.48-3.456-8.796zm-97.56-26.651h33.602l-23.801 23.8c-5.283-7.126-8.559-15.332-9.801-23.8zm44.529 10.927v33.603c-8.468-1.242-16.673-4.518-23.801-9.802zm-34.74-50.193 23.814 23.814h-33.626c1.225-8.444 4.485-16.652 9.812-23.814zm50.193 83.818v-33.625l23.813 23.813c-7.162 5.327-15.37 8.587-23.813 9.812z" fill="#ffe179"/></g></g><g><g><path d="m329.515 359.858c-19.946-23.32-45.828-42.397-74.249-54.045-25.778-10.565-54.058-15.329-77.733-30.693-24.764-16.071-46.714-38.343-60.915-64.534-23.568-43.466-21.92-86.123-19.358-107.039.404-3.296 2.991-5.883 6.287-6.287 20.916-2.562 63.573-4.21 107.039 19.358 26.191 14.201 48.463 36.152 64.534 60.915 15.365 23.675 20.128 51.954 30.693 77.733 11.648 28.42 30.725 54.303 54.045 74.249-.46 3.138-2.16 11.884-9.548 19.621-8.084 8.467-17.781 10.279-20.795 10.722z" fill="#a79ba7"/><path d="m329.515 359.858c-19.946-23.32-45.828-42.397-74.249-54.045-25.778-10.565-54.058-15.329-77.733-30.693-24.764-16.071-46.714-38.343-60.915-64.534-23.568-43.466-21.92-86.123-19.358-107.039.404-3.296 2.991-5.883 6.287-6.287 20.916-2.562 63.573-4.21 107.039 19.358 26.191 14.201 48.463 36.152 64.534 60.915 15.365 23.675 20.128 51.954 30.693 77.733 11.648 28.42 30.725 54.303 54.045 74.249-.46 3.138-2.16 11.884-9.548 19.621-8.084 8.467-17.781 10.279-20.795 10.722z" fill="#a79ba7"/><path d="m273.417 290.361c-25.778-10.565-54.058-15.328-77.733-30.693-24.764-16.071-46.714-38.343-60.915-64.534-20.832-38.42-21.96-76.196-20.173-98.896-4.14.262-7.851.631-11.049 1.023-3.296.404-5.883 2.991-6.287 6.287-2.562 20.916-4.21 63.573 19.358 107.039 14.201 26.191 36.152 48.463 60.915 64.534 23.675 15.365 51.954 20.128 77.733 30.693 28.42 11.648 54.303 30.725 74.248 54.045 3.015-.443 12.711-2.255 20.796-10.723-18.169-26.162-47.472-46.717-76.893-58.775z" fill="#918291"/><path d="m348.737 446.327c39.759-24.395 73.196-57.832 97.591-97.59 1.831-2.985.006-6.868-3.46-7.364l-83.009-11.858c-.46 3.138-2.16 11.884-9.548 19.621-8.085 8.468-17.781 10.28-20.796 10.723 3.953 27.67 7.906 55.339 11.858 83.009.495 3.466 4.379 5.291 7.364 3.459z" fill="#7a6d79"/><g><path d="m362.169 431.776c-3.938-27.563-7.875-55.127-11.813-82.69-.016.017-.03.033-.046.05-8.085 8.467-17.781 10.279-20.796 10.723 3.953 27.67 7.906 55.339 11.858 83.009.495 3.467 4.379 5.291 7.364 3.46 5.565-3.415 10.992-7.025 16.302-10.786-1.462-.642-2.614-1.984-2.869-3.766z" fill="#685e68"/></g><g><path d="m136.132 194.384c-1.297-4.065.948-8.412 5.013-9.709 20.202-6.444 36.035-21.537 43.439-41.408l1.342-3.601c1.49-3.999 5.938-6.033 9.938-4.541 3.998 1.49 6.032 5.94 4.542 9.938l-1.342 3.6c-9.071 24.347-28.47 42.839-53.223 50.735-3.976 1.268-8.396-.897-9.709-5.014z" fill="#e2dee2"/></g><g><path d="m172.854 234.669c-1.297-4.065.947-8.412 5.013-9.709 21.814-6.959 38.911-23.256 46.906-44.713l1.437-3.858c1.49-3.999 5.94-6.031 9.938-4.543 3.998 1.49 6.033 5.939 4.543 9.938l-1.438 3.859c-9.663 25.934-30.325 45.63-56.69 54.04-3.976 1.267-8.395-.898-9.709-5.014z" fill="#e2dee2"/></g><g><path d="m215.796 270.077c-1.297-4.065.947-8.411 5.012-9.709 18.406-5.872 32.831-19.623 39.576-37.725l1.233-3.311c1.489-4 5.94-6.033 9.937-4.544 3.999 1.489 6.033 5.938 4.544 9.937l-1.233 3.312c-8.413 22.58-26.404 39.73-49.36 47.054-3.975 1.268-8.395-.897-9.709-5.014z" fill="#e2dee2"/></g></g><circle cx="139.864" cy="139.166" fill="#7a6d79" r="16.399"/></g></g></svg>