<svg id="Capa_1" enable-background="new 0 0 512 512" height="512" viewBox="0 0 512 512" width="512" xmlns="http://www.w3.org/2000/svg"><g><g><path d="m6.967 504.768c-9.37-9.561-9.276-24.97.21-34.416l265.385-264.274 33.932 34.624-265.385 264.274c-9.486 9.446-24.772 9.353-34.142-.208z" fill="#eaf6ff"/><path d="m41.109 467.214c-8.883 8.846-22.852 9.325-32.286 1.498l-1.646 1.639c-9.486 9.446-9.58 24.855-.21 34.416 9.37 9.561 24.656 9.654 34.142.208l265.385-264.274-18.729-19.111z" fill="#d8ecfe"/><g><path d="m466.967 261.348c-6.868 6.839-14.221 12.882-21.945 18.128-16.406 11.143-35.743 11.157-54.419 15.123-21.116 4.484-41.739 11.921-62.811 7.248-27.567-6.114-53.758-20.055-75.072-41.803-26.556-27.097-40.998-61.679-43.368-96.918-1.359-20.201 15.283-29.001 21.851-48.348s3.062-49.242 17.541-65.163c1.709-1.879 3.473-3.725 5.292-5.536 47.068-46.871 116.892-56.315 173.125-28.554 14.884 7.348 23.505 24.025 35.811 36.582 17.483 17.839 35.026 32.199 42.021 54.578 16.529 52.886 3.801 113.011-38.026 154.663z" fill="#feaee1"/><path d="m468.283 45.383c-11.815-12.056-25.131-21.707-39.347-28.962 2.257 2.044 4.474 4.159 6.634 6.363 58.799 59.997 58.21 156.688-1.316 215.965-47.565 47.366-118.367 56.505-174.9 27.657 59.171 53.586 150.274 52.04 207.613-5.059 59.526-59.276 60.115-155.967 1.316-215.964z" fill="#fe93d3"/><path d="m466.981 48.024c-11.815-12.056-23.828-24.349-38.044-31.603 2.257 2.044 4.474 4.159 6.634 6.363 58.799 59.997 58.21 156.688-1.316 215.965-47.565 47.366-118.367 56.505-174.9 27.657 20.009 18.12 43.668 29.936 68.439 35.432 20.428 4.532 42.295-3.166 62.809-7.24 19.363-3.845 37.447-3.595 54.419-15.123 7.724-5.246 15.077-11.288 21.945-18.128 41.827-41.652 54.555-101.777 38.026-154.664-6.994-22.378-20.53-40.82-38.012-58.659z" fill="#fe93d3"/><path d="m468.283 45.383c-12.306-12.557-26.242-22.501-41.127-29.849-14.715 9.343-30.715 23.089-43.751 43.166-26.418 40.687-24.06 81.777-22.904 94.013 14.094-11.511 40.113-29.695 77.297-39.622 25.631-6.843 48.8-7.687 67.193-6.407-6.994-22.379-19.225-43.462-36.708-61.301z" fill="#ffe179"/><path d="m468.283 45.383c-11.805-12.045-25.111-21.679-39.313-28.93 2.246 2.035 4.451 4.138 6.601 6.332 23.255 23.729 37.211 53.198 41.915 83.821 4.65-.296 9.293-.431 13.939-.414 4.523.016 9.068.18 13.567.492-6.995-22.379-19.226-43.462-36.709-61.301z" fill="#fbd268"/><path d="m214.409 112.298c-4.636 17.023-6.213 34.161-5.085 50.829 15.383 8.174 35.191 15.267 58.957 16.606 48.162 2.715 82.285-19.892 92.22-27.02-16.935-6.547-45.565-20.167-72.682-47.663-18.692-18.953-31-38.757-39.095-55.454-15.73 17.298-27.729 38.519-34.315 62.702z" fill="#ffe179"/><path d="m398.813 300.459c16.943-4.466 32.455-11.66 46.211-20.981-.668-17.516-4.476-38.355-15.206-59.773-21.744-43.402-58.225-61.884-69.316-66.993 2.841 18.058 5.452 49.862-4.615 87.285-6.939 25.796-17.8 46.444-28.098 61.861 22.724 5.083 46.954 4.945 71.024-1.399z" fill="#ffe179"/><path d="m339.359 282.368c-.006.004-.013.008-.019.012-3.767 7.21-7.689 13.695-11.533 19.452 17.843 3.957 36.259 4.637 54.304 2.03 22.428-3.241 44.495-11.826 62.912-24.398-.496-12.988-2.72-27.801-8.211-43.322-.002.001-.004.002-.006.002-.839.876-1.688 1.746-2.552 2.606-26.562 26.451-60.371 40.968-94.895 43.618z" fill="#fbd268"/><ellipse cx="360.501" cy="152.713" fill="#eaf6ff" rx="48.672" ry="48.285" transform="matrix(.006 -1 1 .006 205.485 512.23)"/><path d="m394.853 118.505c-.585-.597-1.181-1.175-1.788-1.734 1.453 14.176-3.243 28.865-14.084 39.661-18.38 18.303-47.648 18.699-66.496 1.318 1.09 10.632 5.634 20.976 13.665 29.171 18.74 19.122 49.312 19.308 68.284.416 18.972-18.893 19.16-49.71.419-68.832z" fill="#d8ecfe"/></g></g></g></svg>