<svg id="Capa_1" enable-background="new 0 0 512 512" height="512" viewBox="0 0 512 512" width="512" xmlns="http://www.w3.org/2000/svg"><g><path d="m364.684 30.905h-217.368c-8.534 0-15.453-6.918-15.453-15.453 0-8.534 6.919-15.452 15.453-15.452h217.368c8.534 0 15.453 6.918 15.453 15.453 0 8.534-6.919 15.452-15.453 15.452z" fill="#feca9c"/><path d="m364.684 0h-30.905c8.534 0 15.453 6.919 15.453 15.453s-6.919 15.453-15.453 15.453h30.905c8.534 0 15.453-6.919 15.453-15.453s-6.919-15.453-15.453-15.453z" fill="#fdb97e"/><path d="m364.684 512h-217.368c-8.534 0-15.453-6.918-15.453-15.453 0-8.534 6.918-15.453 15.453-15.453h217.368c8.534 0 15.453 6.918 15.453 15.453 0 8.535-6.919 15.453-15.453 15.453z" fill="#feca9c"/><path d="m364.684 481.095h-30.905c8.534 0 15.453 6.919 15.453 15.453s-6.919 15.453-15.453 15.453h30.905c8.534 0 15.453-6.919 15.453-15.453 0-8.535-6.919-15.453-15.453-15.453z" fill="#fdb97e"/><g><path d="m395.59 79.324h-279.18l30.906-48.419h217.368z" fill="#ffead8"/><path d="m364.684 30.905h-30.905l30.905 48.419h30.906z" fill="#ffe3cb"/><path d="m395.59 433.706h-279.18l30.906 47.389h217.368z" fill="#ffead8"/><path d="m364.684 433.706-30.905 47.389h30.905l30.906-47.389z" fill="#ffe3cb"/><path d="m116.41 433.706h279.18v-135.492l-15.453-41.699 15.453-41.699v-135.492h-279.18v135.492l15.453 41.699-15.453 41.699z" fill="#feca9c"/><path d="m364.684 79.324v354.382h30.906v-135.492l-15.453-41.699 15.453-41.699v-135.492z" fill="#fdb97e"/><path d="m116.41 214.816h279.179v83.397h-279.179z" fill="#ffead8"/><path d="m364.684 214.816h30.905v83.397h-30.905z" fill="#ffe3cb"/></g><circle cx="256" cy="256.515" fill="#d1a08f" r="88.198"/><path d="m256 168.317c-5.275 0-10.433.489-15.453 1.377 41.338 7.31 72.746 43.386 72.746 86.821 0 43.436-31.408 79.512-72.746 86.821 5.02.888 10.178 1.377 15.453 1.377 48.711 0 88.198-39.488 88.198-88.198 0-48.711-39.487-88.198-88.198-88.198z" fill="#c68d7a"/></g></svg>