<svg id="Capa_1" enable-background="new 0 0 512 512" height="512" viewBox="0 0 512 512" width="512" xmlns="http://www.w3.org/2000/svg"><g><path d="m444.661 297.334c24.707 0 45.377-20.219 44.962-44.922-.319-19.029-12.672-35.128-29.778-41.017-3.019-1.039-4.937-4.011-4.741-7.198.055-.89.083-1.788.083-2.692 0-24.393-19.774-44.168-44.167-44.168-.905 0-1.804.028-2.695.083-3.212.198-6.165-1.765-7.218-4.806-5.985-17.298-22.417-29.719-41.75-29.719-3.545 0-6.99.421-10.292 1.211-2.723.652-5.562-.264-7.348-2.421-8.1-9.779-20.331-16.012-34.022-16.012-3.553 0-7.007.423-10.317 1.217-2.724.654-5.565-.263-7.352-2.421-8.1-9.782-20.333-16.017-34.026-16.017s-25.926 6.235-34.026 16.017c-1.787 2.158-4.628 3.075-7.352 2.421-3.31-.794-6.764-1.217-10.317-1.217-13.691 0-25.922 6.233-34.022 16.012-1.786 2.156-4.625 3.072-7.348 2.421-3.302-.791-6.748-1.211-10.292-1.211-19.333 0-35.765 12.422-41.75 29.719-1.052 3.041-4.006 5.004-7.218 4.806-.891-.055-1.79-.083-2.695-.083-24.393 0-44.167 19.775-44.167 44.168 0 .904.028 1.802.083 2.692.196 3.187-1.722 6.159-4.741 7.198-17.105 5.889-29.458 21.988-29.778 41.017-.414 24.704 20.255 44.922 44.962 44.922z" fill="#f9f7f8"/><g><path d="m459.845 211.395c-3.019-1.039-4.937-4.011-4.741-7.198.055-.89.083-1.788.083-2.692 0-24.393-19.774-44.168-44.167-44.168-.905 0-1.804.028-2.695.083-3.212.198-6.165-1.765-7.218-4.806-5.985-17.298-22.417-29.719-41.75-29.719-3.545 0-6.99.421-10.292 1.212-2.723.652-5.562-.264-7.348-2.421-8.1-9.779-20.331-16.012-34.022-16.012-3.553 0-7.007.423-10.317 1.217-2.724.654-5.565-.263-7.352-2.421-8.1-9.782-20.333-16.017-34.026-16.017-13.464 0-25.507 6.036-33.608 15.538.894-.054 1.794-.086 2.702-.086 13.693 0 25.926 6.235 34.026 16.017 1.787 2.158 4.628 3.075 7.352 2.421 3.31-.794 6.764-1.217 10.317-1.217 13.691 0 25.922 6.232 34.022 16.012 1.786 2.156 4.625 3.072 7.348 2.421 3.302-.791 6.748-1.212 10.292-1.212 19.333 0 35.765 12.422 41.75 29.719 1.052 3.041 4.006 5.004 7.218 4.806.891-.055 1.79-.083 2.695-.083 24.393 0 44.167 19.775 44.167 44.168 0 .904-.028 1.802-.083 2.692-.196 3.187 1.722 6.159 4.741 7.198 17.106 5.889 29.458 21.988 29.778 41.017.188 11.191-3.961 21.454-10.843 29.341 23.258-1.662 42.144-21.171 41.748-44.794-.318-19.028-12.671-35.128-29.777-41.016z" fill="#efedef"/></g><g><path d="m404.466 423.547h-296.932c-26.164 0-49.493-16.473-58.248-41.128l-31.754-89.43h476.937l-31.754 89.43c-8.756 24.655-32.085 41.128-58.249 41.128z" fill="#bad6e5"/><path d="m463.563 292.988-31.755 89.431c-8.755 24.655-32.084 41.128-58.248 41.128h30.905c26.164 0 49.493-16.473 58.248-41.128l31.755-89.431z" fill="#a6cee0"/><path d="m488.742 316.246h-465.484c-12.845 0-23.258-10.413-23.258-23.258 0-12.845 10.413-23.258 23.258-23.258h465.484c12.845 0 23.258 10.413 23.258 23.258 0 12.845-10.413 23.258-23.258 23.258z" fill="#d8e8f0"/><path d="m488.742 269.73h-30.905c12.845 0 23.258 10.413 23.258 23.258v.001c0 12.845-10.413 23.258-23.258 23.258h30.905c12.845 0 23.258-10.413 23.258-23.258v-.001c0-12.845-10.413-23.258-23.258-23.258z" fill="#bad6e5"/></g><g><g><path d="m100.898 239.098c-4.267 0-7.726-3.459-7.726-7.726 0-21.935 17.846-39.78 39.781-39.78 4.267 0 7.726 3.459 7.726 7.726 0 4.268-3.459 7.726-7.726 7.726-13.414 0-24.328 10.913-24.328 24.327 0 4.268-3.46 7.727-7.727 7.727z" fill="#e5e1e5"/></g><g><path d="m411.102 239.098c-4.267 0-7.726-3.459-7.726-7.726 0-13.413-10.913-24.327-24.328-24.327-4.267 0-7.726-3.459-7.726-7.726 0-4.268 3.459-7.726 7.726-7.726 21.935 0 39.781 17.845 39.781 39.78-.001 4.266-3.46 7.725-7.727 7.725z" fill="#e5e1e5"/></g></g><g><path d="m273.202 158.997c-4.595-4.595-10.704-7.125-17.202-7.125s-12.607 2.53-17.202 7.125c-3.017 3.018-7.909 3.017-10.927.001-3.018-3.017-3.018-7.909 0-10.927 7.513-7.514 17.503-11.652 28.129-11.652s20.616 4.138 28.129 11.652c3.018 3.017 3.018 7.909 0 10.927-3.018 3.017-7.909 3.016-10.927-.001z" fill="#e5e1e5"/></g><g><g><path d="m335.013 220.808c-4.595-4.595-10.704-7.125-17.202-7.125s-12.607 2.53-17.202 7.125c-3.017 3.018-7.909 3.017-10.927.001-3.018-3.017-3.018-7.909 0-10.927 7.513-7.514 17.503-11.652 28.129-11.652s20.616 4.138 28.129 11.652c3.018 3.017 3.018 7.909 0 10.927-3.018 3.017-7.909 3.016-10.927-.001z" fill="#e5e1e5"/></g><g><path d="m211.391 220.808c-4.595-4.595-10.704-7.125-17.202-7.125s-12.607 2.53-17.202 7.125c-3.017 3.018-7.909 3.017-10.927.001-3.018-3.017-3.018-7.909 0-10.927 7.513-7.514 17.503-11.652 28.129-11.652s20.616 4.138 28.129 11.652c3.018 3.017 3.018 7.909 0 10.927-3.018 3.017-7.909 3.016-10.927-.001z" fill="#e5e1e5"/></g></g></g></svg>