<svg id="Capa_1" enable-background="new 0 0 512 512" height="512" viewBox="0 0 512 512" width="512" xmlns="http://www.w3.org/2000/svg"><g><g><path d="m315.747 180.817c-4.093-.959-6.634-5.055-5.675-9.147l36.998-157.959c1.89-8.073 9-13.711 17.291-13.711h48.286c4.204 0 7.612 3.407 7.612 7.611s-3.408 7.611-7.612 7.611h-48.286c-1.184 0-2.2.806-2.47 1.958l-36.998 157.959c-.96 4.126-5.149 6.615-9.146 5.678z" fill="#bad6e5"/></g><circle cx="255.955" cy="183.13" fill="#eaf6ff" r="136.908"/><path d="m255.955 46.222c-5.147 0-10.224.294-15.223.847 68.447 7.573 121.686 65.596 121.686 136.061s-53.239 128.488-121.686 136.061c4.999.554 10.076.847 15.223.847 75.612 0 136.909-61.296 136.909-136.908s-61.297-136.908-136.909-136.908z" fill="#d8ecfe"/><path d="m333.772 70.484-23.7 101.186c-.959 4.092 1.582 8.187 5.675 9.147 3.997.937 8.186-1.552 9.147-5.676l22.081-94.272c-4.18-3.722-8.588-7.192-13.203-10.385z" fill="#c4e2ff"/><path d="m331.833 512h-151.756c-15.596 0-28.67-11.785-30.283-27.297l-27.608-265.496h267.536l-27.608 265.496c-1.611 15.512-14.685 27.297-30.281 27.297z" fill="#feaee1"/><path d="m359.277 219.207-27.608 265.496c-1.612 15.512-14.686 27.297-30.282 27.297h30.446c15.596 0 28.67-11.785 30.283-27.297l27.608-265.496z" fill="#fe93d3"/><path d="m410.02 173.538h-308.131c-5.605 0-10.149 4.544-10.149 10.149v25.372c0 5.605 4.544 10.149 10.149 10.149h308.131c5.605 0 10.149-4.544 10.149-10.149v-25.372c0-5.605-4.544-10.149-10.149-10.149z" fill="#ffdff3"/><path d="m410.02 173.538h-30.446c5.605 0 10.149 4.544 10.149 10.149v25.372c0 5.605-4.544 10.149-10.149 10.149h30.446c5.605 0 10.149-4.544 10.149-10.149v-25.372c0-5.605-4.544-10.149-10.149-10.149z" fill="#ffceed"/><circle cx="255.955" cy="365.603" fill="#ffdff3" r="69.914"/><path d="m255.955 295.689c-5.231 0-10.32.593-15.223 1.682 31.289 6.951 54.691 34.85 54.691 68.232s-23.402 61.281-54.691 68.232c4.903 1.089 9.992 1.682 15.223 1.682 38.612 0 69.914-31.301 69.914-69.914s-31.302-69.914-69.914-69.914z" fill="#ffceed"/></g></svg>