<svg id="Capa_1" enable-background="new 0 0 512 512" height="512" viewBox="0 0 512 512" width="512" xmlns="http://www.w3.org/2000/svg"><g><g><g><path d="m260.415 55.753c1.708-7.61 4.702-15.099 9.097-22.171 18.971-30.53 58.347-42.157 90.882-26.879 36.995 17.372 51.748 61.833 33.041 97.706-2.944 5.645-6.541 10.727-10.645 15.211-2.316 2.53-2.782 6.228-1.197 9.27 9.982 19.163 10.304 42.947-1.62 63.241-16.771 28.544-52.885 39.973-83.026 26.281-12.982-5.897-23.005-15.431-29.546-26.777-13.048 1.131-26.603-1.632-38.87-8.902-28.479-16.88-39.776-53.035-25.969-83.124 9.816-21.392 29.501-34.74 50.926-37.524 3.417-.445 6.173-2.97 6.927-6.332z" fill="#aee69c"/><path d="m393.436 104.408c18.707-35.873 3.954-80.334-33.041-97.705-14.638-6.874-30.656-8.285-45.581-4.996 4.981 1.109 9.903 2.755 14.676 4.996 36.995 17.372 51.748 61.832 33.041 97.705-2.944 5.645-6.541 10.728-10.645 15.211-2.316 2.53-2.782 6.228-1.197 9.27 9.982 19.163 10.304 42.947-1.62 63.241-9.195 15.65-24.21 26.14-40.862 30.181 27.411 6.741 57.043-5.121 71.767-30.181 11.924-20.294 11.602-44.078 1.62-63.241-1.585-3.042-1.119-6.74 1.197-9.27 4.104-4.483 7.701-9.566 10.645-15.211z" fill="#89daa4"/><g><path d="m264.406 211.962c-3.784-1.974-5.252-6.64-3.278-10.424l50.762-97.34c1.973-3.786 6.643-5.251 10.424-3.279 3.784 1.974 5.251 6.64 3.279 10.424l-50.763 97.34c-1.994 3.827-6.708 5.217-10.424 3.279z" fill="#d1f19e"/></g></g><g><g><path d="m506.028 129.658c2.081-3.604.707-8.26-3.041-10.069-47.775-23.055-105.972-5.659-132.924 41.023s-12.919 105.78 30.935 135.627c3.441 2.342 8.159 1.204 10.24-2.401z" fill="#f58a97"/><path d="m502.987 119.589c-5.909-2.852-11.979-5.082-18.128-6.717l-92.866 160.849c-2.081 3.604-6.8 4.742-10.24 2.401-2.06-1.402-4.054-2.868-5.981-4.395 6.769 9.363 15.218 17.701 25.226 24.513 3.441 2.342 8.159 1.204 10.24-2.401l94.789-164.18c2.082-3.606.708-8.261-3.04-10.07z" fill="#f07281"/><g><g><path d="m439.217 170.305-6.433-24.009c-1.105-4.122 1.341-8.359 5.463-9.463 4.123-1.11 8.359 1.341 9.463 5.463l6.433 24.009c1.105 4.122-1.341 8.359-5.463 9.463-4.031 1.079-8.353-1.294-9.463-5.463z" fill="#f6b2bb"/></g><g><path d="m384.46 231.311c-1.105-4.122 1.341-8.358 5.463-9.463l23.111-6.193c4.123-1.107 8.359 1.341 9.463 5.463 1.105 4.122-1.341 8.358-5.463 9.463l-23.111 6.193c-4.029 1.089-8.346-1.296-9.463-5.463z" fill="#f6b2bb"/></g></g><g><path d="m426.994 202.402-18.99-10.964c-3.695-2.134-4.962-6.859-2.828-10.554 2.133-3.697 6.857-4.962 10.554-2.828l18.99 10.964c3.695 2.134 4.962 6.859 2.828 10.554-2.155 3.733-6.918 4.931-10.554 2.828z" fill="#f6b2bb"/></g></g></g><g><path d="m165.834 100.547c-2.329-8.627-6.124-17.051-11.501-24.929-23.215-34.012-68.853-45.384-105.341-26.299-41.489 21.701-56.191 73.314-33.017 113.453 3.647 6.317 8.013 11.957 12.931 16.887 2.775 2.782 3.49 6.991 1.826 10.551-10.483 22.424-9.683 49.662 4.962 72.303 20.598 31.846 62.494 43.153 96.32 26.001 14.569-7.388 25.572-18.792 32.501-32.099 14.99.653 30.369-3.175 44.052-12.099 31.767-20.719 42.92-62.656 25.639-96.417-12.286-24.002-35.473-38.313-60.132-40.446-3.934-.341-7.211-3.094-8.24-6.906z" fill="#aee69c"/><g><path d="m234.206 147.899c-12.286-24.002-35.473-38.313-60.132-40.446-3.934-.341-7.211-3.094-8.24-6.906-2.329-8.627-6.124-17.051-11.501-24.93-23.215-34.011-68.853-45.384-105.341-26.298-4.826 2.524-9.273 5.468-13.357 8.737 32.578-8.287 68.184 4.287 87.792 33.015 5.378 7.879 9.173 16.303 11.501 24.93 1.029 3.812 4.306 6.565 8.24 6.906 24.659 2.134 47.846 16.445 60.132 40.446 15.934 31.127 7.679 69.192-18.601 91.182 8.239-1.924 16.312-5.29 23.868-10.218 31.767-20.72 42.92-62.658 25.639-96.418z" fill="#89daa4"/></g><g><path d="m157.824 260.278-62.883-108.917c-2.134-3.695-.868-8.421 2.828-10.554 3.695-2.133 8.421-.868 10.554 2.828l62.883 108.917c2.134 3.695.868 8.421-2.828 10.554-3.642 2.103-8.403.901-10.554-2.828z" fill="#d1f19e"/></g></g><g><g><circle cx="309.418" cy="220.431" fill="#f58a97" r="66.475"/><path d="m309.418 153.956c-5.322 0-10.492.643-15.453 1.825 29.257 6.968 51.022 33.259 51.022 64.65s-21.765 57.681-51.022 64.65c4.961 1.182 10.13 1.825 15.453 1.825 36.713 0 66.475-29.762 66.475-66.475 0-36.714-29.761-66.475-66.475-66.475z" fill="#f07281"/><g><path d="m308.593 203.79c-9.507-.179-16.921-3.39-21.465-6.052-3.682-2.158-4.918-6.891-2.762-10.572 2.158-3.682 6.891-4.918 10.572-2.761 2.956 1.73 7.774 3.819 13.944 3.935 6.677.161 11.833-2.072 15.018-3.937 3.681-2.155 8.414-.918 10.571 2.764 2.156 3.683.918 8.415-2.765 10.572-4.767 2.792-13.553 6.231-23.113 6.051z" fill="#f07281"/></g></g><g><circle cx="199.549" cy="220.431" fill="#f58a97" r="66.475"/><path d="m199.549 153.956c-5.323 0-10.492.643-15.453 1.825 29.257 6.968 51.022 33.259 51.022 64.65s-21.765 57.681-51.022 64.65c4.961 1.182 10.13 1.825 15.453 1.825 36.713 0 66.475-29.762 66.475-66.475 0-36.714-29.762-66.475-66.475-66.475z" fill="#f07281"/><g><path d="m198.723 203.79c-9.509-.179-16.922-3.39-21.465-6.053-3.682-2.157-4.918-6.89-2.76-10.572 2.156-3.681 6.89-4.918 10.572-2.76 2.954 1.731 7.772 3.819 13.942 3.935 6.643.155 11.833-2.07 15.017-3.936 3.68-2.16 8.415-.921 10.571 2.763 2.156 3.682.92 8.415-2.763 10.571-4.766 2.79-13.548 6.232-23.114 6.052z" fill="#f07281"/></g></g></g></g><g><path d="m485.511 305.231h-459.022c-14.629 0-26.489-11.86-26.489-26.489v-.013c0-14.63 11.86-26.489 26.489-26.489h459.022c14.63 0 26.489 11.86 26.489 26.489v.013c0 14.629-11.86 26.489-26.489 26.489z" fill="#d8e8f0"/><path d="m485.511 252.24h-30.905c14.63 0 26.489 11.86 26.489 26.489v.013c0 14.63-11.86 26.489-26.489 26.489h30.905c14.63 0 26.489-11.86 26.489-26.489v-.013c0-14.63-11.86-26.489-26.489-26.489z" fill="#bad6e5"/><path d="m341.98 512h-171.96c-76.692 0-138.863-62.171-138.863-138.863v-67.906h449.688v67.906c-.001 76.692-62.172 138.863-138.865 138.863z" fill="#bad6e5"/><path d="m449.938 305.231v67.906c0 76.692-62.171 138.863-138.863 138.863h30.905c76.692 0 138.863-62.171 138.863-138.863v-67.906z" fill="#a6cee0"/></g></g></svg>