<svg id="Capa_1" enable-background="new 0 0 512 512" height="512" viewBox="0 0 512 512" width="512" xmlns="http://www.w3.org/2000/svg"><g><path d="m283.04 270.335-37.57-37.57 193.34-212.132c15.331-16.821 41.605-17.43 57.698-1.336 16.093 16.093 15.485 42.367-1.336 57.698z" fill="#d1a08f"/><path d="m496.509 19.297c-7.579-7.579-17.415-11.45-27.302-11.672 12.774 16.195 11.156 39.897-4.48 54.148l-204.169 186.081 22.482 22.482 212.132-193.34c16.822-15.331 17.43-41.606 1.337-57.699z" fill="#c68d7a"/><g><path d="m323.649 512h-135.298c-12.059 0-21.834-9.775-21.834-21.834v-38.014h178.966v38.014c0 12.059-9.776 21.834-21.834 21.834z" fill="#fddeb0"/><path d="m315.037 452.152v38.014c0 12.058-9.776 21.834-21.834 21.834h30.446c12.058 0 21.834-9.776 21.834-21.834v-38.014z" fill="#fdd79b"/><path d="m347.187 452.152h-182.374c-88.922 0-161.007-72.085-161.007-161.007v-65.088c0-3.923 3.181-7.104 7.104-7.104h490.18c3.923 0 7.104 3.181 7.104 7.104v65.088c0 88.922-72.085 161.007-161.007 161.007z" fill="#fef1da"/><path d="m501.09 218.953h-30.446c3.923 0 7.104 3.181 7.104 7.104v65.088c0 88.922-72.085 161.007-161.007 161.007h30.446c88.922 0 161.007-72.085 161.007-161.007v-65.088c0-3.924-3.18-7.104-7.104-7.104z" fill="#fae2c0"/><g><path d="m217.685 297.238c-29.398 29.398-41.79 69.356-37.19 107.662.386 3.216 2.941 5.771 6.157 6.157 38.307 4.6 78.265-7.793 107.662-37.19 28.679-28.679 41.175-67.41 37.497-104.852-.481-4.895-4.378-8.793-9.273-9.273-37.443-3.679-76.173 8.817-104.853 37.496z" fill="#aee69c"/><path d="m331.811 269.015c-.481-4.895-4.378-8.793-9.274-9.274-9.528-.936-19.139-.819-28.648.34 4.025 1.139 7.055 4.655 7.475 8.933 3.678 37.442-8.817 76.172-37.497 104.852-21.548 21.548-48.772 33.947-76.859 37.228 38.198 4.48 77.999-7.922 107.305-37.228 28.681-28.679 41.176-67.409 37.498-104.851z" fill="#89daa4"/><path d="m261.383 330.17c-2.973-2.971-7.792-2.971-10.765 0l-70.543 70.543c-.002 0-.005.001-.007.001l.01.01c.144 1.658.312 3.315.518 4.967.344 2.751 2.527 4.923 5.277 5.27 1.649.208 3.301.373 4.955.518l.005.005c.002-.001.004-.004.006-.006l70.543-70.543c2.973-2.973 2.973-7.791.001-10.765z" fill="#d1f19e"/></g></g><g><g><path d="m210.331 132.947c-4.204 0-7.611-3.407-7.611-7.612v-33.997c0-16.788 13.658-30.446 30.446-30.446 8.394 0 15.223-6.829 15.223-15.223v-38.058c-.001-4.204 3.407-7.611 7.611-7.611s7.611 3.407 7.611 7.611v38.057c0 16.788-13.658 30.446-30.446 30.446-8.394 0-15.223 6.829-15.223 15.223v33.998c.001 4.205-3.407 7.612-7.611 7.612z" fill="#eaf6ff"/></g><g><path d="m256 163.393c-4.204 0-7.611-3.407-7.611-7.611v-33.998c0-16.788 13.658-30.446 30.446-30.446 8.394 0 15.223-6.829 15.223-15.223v-38.058c0-4.204 3.407-7.611 7.612-7.611s7.611 3.407 7.611 7.611v38.057c0 16.788-13.658 30.446-30.446 30.446-8.394 0-15.223 6.829-15.223 15.223v33.998c-.001 4.205-3.408 7.612-7.612 7.612z" fill="#eaf6ff"/></g></g></g></svg>