<svg id="Capa_1" enable-background="new 0 0 512 512" height="512" viewBox="0 0 512 512" width="512" xmlns="http://www.w3.org/2000/svg"><g><path d="m481.669 256h-374.074c-16.751 0-30.331-13.58-30.331-30.331v-67.338c0-16.751 13.58-30.331 30.331-30.331h374.074c16.751 0 30.331 13.58 30.331 30.331v67.338c0 16.751-13.58 30.331-30.331 30.331z" fill="#fddeb0"/><path d="m404.405 128h-374.074c-16.751 0-30.331-13.58-30.331-30.331v-67.338c0-16.751 13.58-30.331 30.331-30.331h374.074c16.751 0 30.331 13.58 30.331 30.331v67.338c0 16.751-13.579 30.331-30.331 30.331z" fill="#fef1da"/><path d="m404.405 0h-30.905c16.751 0 30.331 13.58 30.331 30.331v67.338c0 16.751-13.58 30.331-30.331 30.331h30.905c16.751 0 30.331-13.58 30.331-30.331v-67.338c0-16.751-13.579-30.331-30.331-30.331z" fill="#fae2c0"/><path d="m404.405 384h-374.074c-16.751 0-30.331-13.58-30.331-30.331v-67.338c0-16.751 13.58-30.331 30.331-30.331h374.074c16.751 0 30.331 13.58 30.331 30.331v67.338c0 16.751-13.579 30.331-30.331 30.331z" fill="#fef1da"/><path d="m404.405 256h-30.905c16.751 0 30.331 13.58 30.331 30.331v67.338c0 16.752-13.58 30.331-30.331 30.331h30.905c16.751 0 30.331-13.579 30.331-30.331v-67.338c0-16.751-13.579-30.331-30.331-30.331z" fill="#fae2c0"/><path d="m481.669 512h-374.074c-16.751 0-30.331-13.58-30.331-30.331v-67.338c0-16.751 13.58-30.331 30.331-30.331h374.074c16.751 0 30.331 13.58 30.331 30.331v67.338c0 16.751-13.58 30.331-30.331 30.331z" fill="#fddeb0"/><path d="m481.669 384h-30.905c16.751 0 30.331 13.579 30.331 30.331v67.338c0 16.752-13.58 30.331-30.331 30.331h30.905c16.751 0 30.331-13.579 30.331-30.331v-67.338c0-16.752-13.58-30.331-30.331-30.331z" fill="#fdd79b"/><path d="m481.669 128h-30.905c16.751 0 30.331 13.579 30.331 30.331v67.338c0 16.751-13.58 30.331-30.331 30.331h30.905c16.751 0 30.331-13.579 30.331-30.331v-67.338c0-16.752-13.58-30.331-30.331-30.331z" fill="#fdd79b"/><g fill="#d1a08f"><g><ellipse cx="178.736" cy="177.116" rx="33.481" ry="15.38"/><ellipse cx="302.358" cy="206.884" rx="33.481" ry="15.38"/><ellipse cx="410.527" cy="177.116" rx="33.481" ry="15.38"/></g><g><ellipse cx="101.473" cy="49.116" rx="33.481" ry="15.38"/><ellipse cx="225.095" cy="78.884" rx="33.481" ry="15.38"/><ellipse cx="333.264" cy="49.116" rx="33.481" ry="15.38"/></g><g><ellipse cx="101.473" cy="305.116" rx="33.481" ry="15.38"/><ellipse cx="225.095" cy="334.884" rx="33.481" ry="15.38"/><ellipse cx="333.264" cy="305.116" rx="33.481" ry="15.38"/></g></g><g><ellipse cx="178.736" cy="433.116" fill="#d1a08f" rx="33.481" ry="15.38"/><ellipse cx="302.358" cy="462.884" fill="#d1a08f" rx="33.481" ry="15.38"/><path d="m302.358 447.504c-5.576 0-10.828.629-15.453 1.737 10.711 2.565 18.028 7.71 18.028 13.643s-7.317 11.077-18.028 13.642c4.624 1.108 9.877 1.737 15.453 1.737 18.491 0 33.481-6.886 33.481-15.38 0-8.493-14.99-15.379-33.481-15.379z" fill="#c68d7a"/><path d="m178.736 417.737c-5.576 0-10.828.629-15.453 1.737 10.711 2.565 18.028 7.71 18.028 13.643s-7.317 11.077-18.028 13.642c4.624 1.108 9.877 1.737 15.453 1.737 18.491 0 33.481-6.886 33.481-15.38s-14.99-15.379-33.481-15.379z" fill="#c68d7a"/><ellipse cx="410.527" cy="433.116" fill="#d1a08f" rx="33.481" ry="15.38"/><g fill="#c68d7a"><path d="m410.527 417.736c-5.576 0-10.828.63-15.453 1.737 10.711 2.565 18.028 7.71 18.028 13.642 0 5.933-7.317 11.077-18.028 13.643 4.624 1.107 9.877 1.737 15.453 1.737 18.491 0 33.481-6.886 33.481-15.38 0-8.493-14.99-15.379-33.481-15.379z"/><path d="m302.358 191.504c-5.576 0-10.828.629-15.453 1.737 10.711 2.565 18.028 7.71 18.028 13.643s-7.317 11.077-18.028 13.642c4.624 1.108 9.877 1.737 15.453 1.737 18.491 0 33.481-6.886 33.481-15.38 0-8.493-14.99-15.379-33.481-15.379z"/><path d="m178.736 161.737c-5.576 0-10.828.629-15.453 1.737 10.711 2.565 18.028 7.71 18.028 13.643s-7.317 11.077-18.028 13.642c4.624 1.108 9.877 1.737 15.453 1.737 18.491 0 33.481-6.886 33.481-15.38s-14.99-15.379-33.481-15.379z"/><path d="m410.527 161.737c-5.576 0-10.828.63-15.453 1.737 10.711 2.565 18.028 7.71 18.028 13.642 0 5.933-7.317 11.077-18.028 13.643 4.624 1.107 9.877 1.737 15.453 1.737 18.491 0 33.481-6.886 33.481-15.38s-14.99-15.379-33.481-15.379z"/><path d="m225.095 319.504c-5.576 0-10.828.629-15.453 1.737 10.711 2.565 18.028 7.71 18.028 13.643s-7.317 11.077-18.028 13.642c4.624 1.108 9.877 1.737 15.453 1.737 18.491 0 33.481-6.886 33.481-15.38-.001-8.493-14.99-15.379-33.481-15.379z"/><path d="m101.473 289.737c-5.576 0-10.828.629-15.453 1.737 10.711 2.565 18.028 7.71 18.028 13.643s-7.317 11.077-18.028 13.642c4.624 1.108 9.877 1.737 15.453 1.737 18.491 0 33.481-6.886 33.481-15.38s-14.99-15.379-33.481-15.379z"/><path d="m333.264 289.736c-5.576 0-10.828.63-15.453 1.737 10.711 2.565 18.028 7.71 18.028 13.642 0 5.933-7.317 11.077-18.028 13.643 4.624 1.107 9.877 1.737 15.453 1.737 18.491 0 33.481-6.886 33.481-15.38-.001-8.493-14.99-15.379-33.481-15.379z"/><path d="m225.095 63.504c-5.576 0-10.828.629-15.453 1.737 10.711 2.565 18.028 7.71 18.028 13.643s-7.317 11.077-18.028 13.642c4.624 1.108 9.877 1.737 15.453 1.737 18.491 0 33.481-6.886 33.481-15.38s-14.99-15.379-33.481-15.379z"/><path d="m101.473 33.736c-5.576 0-10.828.629-15.453 1.737 10.711 2.565 18.028 7.71 18.028 13.643s-7.317 11.077-18.028 13.642c4.624 1.108 9.877 1.737 15.453 1.737 18.491 0 33.481-6.886 33.481-15.38s-14.99-15.379-33.481-15.379z"/><path d="m333.264 33.736c-5.576 0-10.828.63-15.453 1.737 10.711 2.565 18.028 7.71 18.028 13.642s-7.317 11.077-18.028 13.643c4.624 1.107 9.877 1.737 15.453 1.737 18.491 0 33.481-6.886 33.481-15.38s-14.99-15.379-33.481-15.379z"/></g></g></g></svg>