<svg id="Capa_1" enable-background="new 0 0 512 512" height="512" viewBox="0 0 512 512" width="512" xmlns="http://www.w3.org/2000/svg"><g><path d="m460.732 39.04c-44.612-17.636-113.97-38.364-200.49-39.024-90.748-.691-163.314 20.978-208.968 39.022-7.918 3.129-11.607 12.253-8.12 20.027l45.942 102.415c1.507 3.36 5.059 5.307 8.703 4.775 4.395-.641 8.967-.734 13.652-.19 24.73 2.873 44.193 23.255 45.915 48.092 1.215 17.523-6.237 33.352-18.493 43.653-2.82 2.37-3.732 6.317-2.224 9.678l105.725 235.685c5.279 11.769 21.969 11.769 27.248 0l29.405-65.55c1.583-3.529.509-7.697-2.61-9.983-8.612-6.311-14.124-16.6-13.824-28.163.479-18.477 15.337-32.915 33.82-32.893 2.423.003 4.786.262 7.064.75 3.779.81 7.603-1.164 9.185-4.69l136.183-303.58c3.487-7.771-.198-16.895-8.113-20.024z" fill="#ffe179"/><g><path d="m460.732 39.04c-7.122-2.815-14.881-5.709-23.233-8.588 2.087 3.933 2.414 8.762.441 13.16l-136.182 303.579c-1.582 3.527-5.406 5.501-9.185 4.69-2.278-.488-4.641-.747-7.064-.75-18.483-.022-33.341 14.416-33.82 32.893-.3 11.563 5.213 21.852 13.824 28.163 3.119 2.286 4.193 6.455 2.61 9.983l-29.405 65.55c-.519 1.158-1.153 2.198-1.871 3.128l5.529 12.325c5.279 11.769 21.969 11.769 27.248 0l29.405-65.55c1.583-3.529.509-7.697-2.61-9.983-8.612-6.311-14.124-16.6-13.824-28.163.479-18.477 15.337-32.915 33.82-32.893 2.423.003 4.786.262 7.064.75 3.779.81 7.603-1.163 9.185-4.69l136.181-303.58c3.487-7.771-.198-16.895-8.113-20.024z" fill="#fbd268"/></g><circle cx="337.479" cy="99.11" fill="#fff5c6" r="48.751"/><path d="m337.479 50.36c-5.403 0-10.595.892-15.453 2.515 19.347 6.464 33.298 24.715 33.298 46.235 0 21.521-13.951 39.772-33.298 46.236 4.857 1.623 10.049 2.515 15.453 2.515 26.924 0 48.751-21.826 48.751-48.751 0-26.924-21.826-48.75-48.751-48.75z" fill="#fef0ae"/><circle cx="166.374" cy="84.99" fill="#fff5c6" r="23.228"/><path d="m166.374 61.762c-4.817 0-9.291 1.466-13.001 3.977 6.171 4.176 10.227 11.24 10.227 19.252s-4.056 15.076-10.227 19.252c3.71 2.511 8.184 3.977 13.001 3.977 12.829 0 23.228-10.399 23.228-23.228s-10.399-23.23-23.228-23.23z" fill="#fef0ae"/><circle cx="236.797" cy="338.614" fill="#fff5c6" r="23.228"/><path d="m236.797 315.385c-4.232 0-8.197 1.137-11.614 3.115 6.941 4.017 11.614 11.517 11.614 20.113s-4.673 16.096-11.614 20.113c3.417 1.977 7.382 3.115 11.614 3.115 12.829 0 23.229-10.4 23.229-23.228s-10.4-23.228-23.229-23.228z" fill="#fef0ae"/><circle cx="256" cy="214.953" fill="#fff5c6" r="33.791"/><path d="m256 181.162c-5.57 0-10.82 1.356-15.453 3.743 10.888 5.611 18.338 16.956 18.338 30.048 0 13.093-7.451 24.437-18.338 30.048 4.632 2.387 9.883 3.743 15.453 3.743 18.662 0 33.791-15.129 33.791-33.791s-15.129-33.791-33.791-33.791z" fill="#fef0ae"/></g></svg>