<svg id="Capa_1" enable-background="new 0 0 512 512" height="512" viewBox="0 0 512 512" width="512" xmlns="http://www.w3.org/2000/svg"><g><path d="m214.793 512h-173.586c-22.758 0-41.207-18.449-41.207-41.207v-173.586c0-22.758 18.449-41.207 41.207-41.207h173.586c22.758 0 41.207 18.449 41.207 41.207v173.586c0 22.758-18.449 41.207-41.207 41.207z" fill="#d1a08f"/><path d="m214.793 256h-173.586c-22.758 0-41.207-18.449-41.207-41.207v-173.586c0-22.758 18.449-41.207 41.207-41.207h173.586c22.758 0 41.207 18.449 41.207 41.207v173.586c0 22.758-18.449 41.207-41.207 41.207z" fill="#d9b3a6"/><path d="m297.207 0h173.586c22.758 0 41.207 18.449 41.207 41.207v173.586c0 22.758-18.449 41.207-41.207 41.207h-173.586c-22.758 0-41.207-18.449-41.207-41.207v-173.586c0-22.758 18.449-41.207 41.207-41.207z" fill="#d9b3a6"/><path d="m297.207 256h173.586c22.758 0 41.207 18.449 41.207 41.207v173.586c0 22.758-18.449 41.207-41.207 41.207h-173.586c-22.758 0-41.207-18.449-41.207-41.207v-173.586c0-22.758 18.449-41.207 41.207-41.207z" fill="#d1a08f"/><path d="m470.793 256h-30.905c22.758 0 41.207 18.449 41.207 41.207v173.586c0 22.758-18.449 41.207-41.207 41.207h30.905c22.758 0 41.207-18.449 41.207-41.207v-173.586c0-22.758-18.449-41.207-41.207-41.207z" fill="#c68d7a"/><path d="m470.793 0h-30.905c22.758 0 41.207 18.449 41.207 41.207v173.586c0 22.758-18.449 41.207-41.207 41.207h30.905c22.758 0 41.207-18.449 41.207-41.207v-173.586c0-22.758-18.449-41.207-41.207-41.207z" fill="#d1a08f"/><path d="m214.793 256h-30.905c22.758 0 41.207 18.449 41.207 41.207v173.586c0 22.758-18.449 41.207-41.207 41.207h30.905c22.758 0 41.207-18.449 41.207-41.207v-173.586c0-22.758-18.449-41.207-41.207-41.207z" fill="#c68d7a"/><path d="m214.793 0h-30.905c22.758 0 41.207 18.449 41.207 41.207v173.586c0 22.758-18.449 41.207-41.207 41.207h30.905c22.758 0 41.207-18.449 41.207-41.207v-173.586c0-22.758-18.449-41.207-41.207-41.207z" fill="#d1a08f"/><path d="m297.207 463.581v-159.162c0-3.983 3.229-7.211 7.211-7.211h159.163c3.983 0 7.211 3.229 7.211 7.211v159.163c0 3.983-3.229 7.211-7.211 7.211h-159.162c-3.983 0-7.212-3.229-7.212-7.212z" fill="#fff5c6"/><path d="m463.581 297.207h-30.905c3.983 0 7.211 3.228 7.211 7.211v159.163c0 3.983-3.229 7.211-7.211 7.211h30.905c3.983 0 7.211-3.228 7.211-7.211v-159.162c.001-3.983-3.228-7.212-7.211-7.212z" fill="#fef0ae"/><path d="m297.207 207.581v-159.162c0-3.983 3.229-7.211 7.211-7.211h159.163c3.983 0 7.211 3.229 7.211 7.211v159.163c0 3.983-3.229 7.211-7.211 7.211h-159.162c-3.983 0-7.212-3.229-7.212-7.212z" fill="#fff5c6"/><path d="m463.581 41.207h-30.905c3.983 0 7.211 3.228 7.211 7.211v159.163c0 3.983-3.229 7.211-7.211 7.211h30.905c3.983 0 7.211-3.228 7.211-7.211v-159.162c.001-3.983-3.228-7.212-7.211-7.212z" fill="#fef0ae"/><path d="m41.207 463.581v-159.162c0-3.983 3.229-7.211 7.211-7.211h159.163c3.983 0 7.211 3.229 7.211 7.211v159.163c0 3.983-3.229 7.211-7.211 7.211h-159.162c-3.983 0-7.212-3.229-7.212-7.212z" fill="#fff5c6"/><path d="m41.207 207.581v-159.162c0-3.983 3.229-7.211 7.211-7.211h159.163c3.983 0 7.211 3.229 7.211 7.211v159.163c0 3.983-3.229 7.211-7.211 7.211h-159.162c-3.983 0-7.212-3.229-7.212-7.212z" fill="#fff5c6"/><g fill="#feaee1"><path d="m131.695 101.907 5.967 12.09c.6 1.216 1.76 2.059 3.103 2.254l13.342 1.939c3.38.491 4.729 4.645 2.284 7.029l-9.654 9.41c-.971.947-1.414 2.311-1.185 3.647l2.279 13.288c.577 3.366-2.956 5.933-5.979 4.344l-11.933-6.274c-1.2-.631-2.635-.631-3.835 0l-11.933 6.274c-3.023 1.589-6.556-.978-5.979-4.344l2.279-13.288c.229-1.337-.214-2.701-1.185-3.647l-9.654-9.41c-2.446-2.384-1.096-6.538 2.284-7.029l13.342-1.939c1.342-.195 2.502-1.038 3.103-2.254l5.967-12.09c1.508-3.063 5.876-3.063 7.387 0z"/><path d="m387.695 101.907 5.967 12.09c.6 1.216 1.76 2.059 3.103 2.254l13.342 1.939c3.38.491 4.729 4.645 2.284 7.029l-9.654 9.41c-.971.947-1.414 2.311-1.185 3.647l2.279 13.288c.577 3.366-2.956 5.933-5.979 4.344l-11.933-6.274c-1.2-.631-2.635-.631-3.835 0l-11.933 6.274c-3.023 1.589-6.556-.978-5.979-4.344l2.279-13.288c.229-1.337-.214-2.701-1.185-3.647l-9.654-9.41c-2.446-2.384-1.096-6.538 2.284-7.029l13.342-1.939c1.342-.195 2.502-1.038 3.103-2.254l5.967-12.09c1.508-3.063 5.876-3.063 7.387 0z"/><path d="m131.695 357.907 5.967 12.09c.6 1.216 1.76 2.059 3.103 2.254l13.342 1.939c3.38.491 4.729 4.645 2.284 7.029l-9.654 9.41c-.971.947-1.414 2.311-1.185 3.647l2.279 13.288c.577 3.366-2.956 5.933-5.979 4.344l-11.933-6.274c-1.2-.631-2.635-.631-3.835 0l-11.933 6.274c-3.023 1.589-6.556-.978-5.979-4.344l2.279-13.288c.229-1.337-.214-2.701-1.185-3.647l-9.654-9.41c-2.446-2.384-1.096-6.538 2.284-7.029l13.342-1.939c1.342-.195 2.502-1.038 3.103-2.254l5.967-12.09c1.508-3.063 5.876-3.063 7.387 0z"/><path d="m387.695 357.907 5.967 12.09c.6 1.216 1.76 2.059 3.103 2.254l13.342 1.939c3.38.491 4.729 4.645 2.284 7.029l-9.654 9.41c-.971.947-1.414 2.311-1.185 3.647l2.279 13.288c.577 3.366-2.956 5.933-5.979 4.344l-11.933-6.274c-1.2-.631-2.635-.631-3.835 0l-11.933 6.274c-3.023 1.589-6.556-.978-5.979-4.344l2.279-13.288c.229-1.337-.214-2.701-1.185-3.647l-9.654-9.41c-2.446-2.384-1.096-6.538 2.284-7.029l13.342-1.939c1.342-.195 2.502-1.038 3.103-2.254l5.967-12.09c1.508-3.063 5.876-3.063 7.387 0z"/></g><g><path d="m412.39 381.218c2.446-2.384 1.096-6.538-2.284-7.029l-13.342-1.939c-1.342-.195-2.503-1.038-3.103-2.254l-5.966-12.089c-1.512-3.063-5.879-3.063-7.39 0l-5.963 12.083c-.601 1.218-1.762 2.063-3.106 2.26l-.137.02 2.956.429c7.573 1.1 10.596 10.406 5.117 15.747-2.372 2.312-3.455 5.644-2.895 8.909l1.751 10.208c.011.065.011.128.019.192l4.036-2.122c1.2-.631 2.634-.631 3.835 0l11.934 6.274c3.023 1.589 6.556-.978 5.979-4.344l-2.279-13.288c-.229-1.336.214-2.7 1.185-3.647z" fill="#fe93d3"/></g><g><path d="m156.39 381.218c2.446-2.384 1.096-6.538-2.284-7.029l-13.342-1.939c-1.342-.195-2.503-1.038-3.103-2.254l-5.966-12.089c-1.512-3.063-5.879-3.063-7.39 0l-5.963 12.083c-.601 1.218-1.762 2.063-3.106 2.26l-.137.02 2.956.429c7.573 1.1 10.596 10.406 5.117 15.747-2.372 2.312-3.455 5.644-2.895 8.909l1.751 10.208c.011.065.011.128.019.192l4.036-2.122c1.2-.631 2.634-.631 3.835 0l11.934 6.274c3.023 1.589 6.556-.978 5.979-4.344l-2.279-13.288c-.229-1.336.214-2.7 1.185-3.647z" fill="#fe93d3"/></g><g><path d="m156.39 125.218c2.446-2.384 1.096-6.538-2.284-7.029l-13.342-1.939c-1.342-.195-2.503-1.038-3.103-2.254l-5.966-12.089c-1.512-3.063-5.879-3.063-7.39 0l-5.963 12.083c-.601 1.218-1.762 2.063-3.106 2.26l-.137.02 2.956.429c7.573 1.1 10.596 10.406 5.117 15.747-2.372 2.312-3.455 5.644-2.895 8.909l1.751 10.208c.011.065.011.128.019.192l4.036-2.122c1.2-.631 2.634-.631 3.835 0l11.934 6.274c3.023 1.589 6.556-.978 5.979-4.344l-2.279-13.288c-.229-1.336.214-2.7 1.185-3.647z" fill="#fe93d3"/></g><g><path d="m412.39 125.218c2.446-2.384 1.096-6.538-2.284-7.029l-13.342-1.939c-1.342-.195-2.503-1.038-3.103-2.254l-5.966-12.089c-1.512-3.063-5.879-3.063-7.39 0l-5.963 12.083c-.601 1.218-1.762 2.063-3.106 2.26l-.137.02 2.956.429c7.573 1.1 10.596 10.406 5.117 15.747-2.372 2.312-3.455 5.644-2.895 8.909l1.751 10.208c.011.065.011.128.019.192l4.036-2.122c1.2-.631 2.634-.631 3.835 0l11.934 6.274c3.023 1.589 6.556-.978 5.979-4.344l-2.279-13.288c-.229-1.336.214-2.7 1.185-3.647z" fill="#fe93d3"/></g><path d="m207.581 297.207h-30.905c3.983 0 7.211 3.228 7.211 7.211v159.163c0 3.983-3.229 7.211-7.211 7.211h30.905c3.983 0 7.211-3.228 7.211-7.211v-159.162c.001-3.983-3.228-7.212-7.211-7.212z" fill="#fef0ae"/><path d="m207.581 41.207h-30.905c3.983 0 7.211 3.228 7.211 7.211v159.163c0 3.983-3.229 7.211-7.211 7.211h30.905c3.983 0 7.211-3.228 7.211-7.211v-159.162c.001-3.983-3.228-7.212-7.211-7.212z" fill="#fef0ae"/></g></svg>