<svg id="Capa_1" enable-background="new 0 0 512 512" height="512" viewBox="0 0 512 512" width="512" xmlns="http://www.w3.org/2000/svg"><g><path d="m224.064 0h63.871c8.534 0 15.453 6.918 15.453 15.453v30.905h-94.777v-30.905c.001-8.535 6.919-15.453 15.453-15.453z" fill="#d1a08f"/><path d="m287.936 0h-30.906c8.534 0 15.453 6.919 15.453 15.453v30.905h30.905v-30.905c0-8.534-6.918-15.453-15.452-15.453z" fill="#c68d7a"/><path d="m303.388 72.113h-94.777c0 40.169-12.746 79.301-36.403 111.764-36.182 49.649-52.133 111.198-44.621 172.172l16.986 137.867c1.272 10.326 10.044 18.084 20.449 18.084h181.956c10.405 0 19.177-7.758 20.449-18.084l16.986-137.867c7.512-60.973-8.439-122.522-44.621-172.172-23.658-32.463-36.404-71.596-36.404-111.764z" fill="#d1a08f"/><path d="m339.792 183.877c-23.657-32.463-36.403-71.596-36.403-111.765h-30.905c0 40.169 12.746 79.301 36.403 111.765 36.182 49.649 52.133 111.198 44.621 172.172l-16.986 137.867c-1.273 10.326-10.044 18.084-20.449 18.084h30.905c10.405 0 19.177-7.758 20.449-18.085l16.986-137.867c7.512-60.973-8.439-122.521-44.621-172.171z" fill="#c68d7a"/><path d="m287.936 72.113h-63.872" style="fill:none;stroke:#000;stroke-width:15;stroke-linecap:round;stroke-linejoin:round;stroke-miterlimit:10"/><path d="m207.581 42.237h96.837c7.965 0 14.423 6.457 14.423 14.423v17.513c0 7.965-6.457 14.423-14.423 14.423h-96.837c-7.965 0-14.423-6.457-14.423-14.423v-17.513c.001-7.965 6.458-14.423 14.423-14.423z" fill="#fddeb0"/><path d="m304.418 42.237h-30.905c7.965 0 14.423 6.457 14.423 14.423v17.513c0 7.965-6.457 14.423-14.423 14.423h30.905c7.965 0 14.423-6.457 14.423-14.423v-17.513c0-7.965-6.457-14.423-14.423-14.423z" fill="#fdd79b"/><ellipse cx="256" cy="334.977" fill="#fddeb0" rx="87.433" ry="138.636"/><path d="m256 196.341c-5.273 0-10.437.74-15.453 2.159 40.918 11.57 71.981 68.272 71.981 136.477s-31.063 124.907-71.981 136.477c5.016 1.418 10.18 2.159 15.453 2.159 48.288 0 87.434-62.07 87.434-138.636 0-76.567-39.146-138.636-87.434-138.636z" fill="#fdd79b"/><g><path d="m295.418 334.977c0 28.65-13.512 52.554-31.474 58.082-2.566.79-6.172-1.03-8.893-1.03-4.015 0-6.941 1.331-10.591-.347-16.139-7.421-27.878-30.002-27.878-56.706 0-28.65 13.512-52.554 31.474-58.082 2.566-.79 5.874 1.165 8.595 1.165 4.015 0 7.239-1.467 10.889.211 16.14 7.422 27.878 30.003 27.878 56.707z" fill="#c68d7a"/><path d="m248.357 276.813c.217 1.487.868 2.927 1.964 4.115 9.334 10.119 11.469 25.191 5.313 37.505l-13.088 26.175c-7.534 15.067-6.579 32.953 1.916 47.068 3.65 1.678 7.523 2.587 11.538 2.587 2.616 0 5.17-.392 7.643-1.124-.217-1.487-.868-2.927-1.964-4.115-9.335-10.12-11.469-25.191-5.312-37.505l13.088-26.176c7.533-15.067 6.579-32.952-1.917-47.067-3.65-1.678-7.523-2.587-11.538-2.587-2.616.001-5.17.393-7.643 1.124z" fill="#d9b3a6"/></g></g></svg>