<svg id="Capa_1" enable-background="new 0 0 512 512" height="512" viewBox="0 0 512 512" width="512" xmlns="http://www.w3.org/2000/svg"><g><g><path d="m491.738 26.952c61.836 63.446-25.884 184.239-154.617 312.313-128.732 128.073-249.729 214.929-311.565 151.483-34.775-35.68-32.842-100.396-1.595-172.984 4.506-10.468 20.039-16.657 25.743-27.389s1.577-26.008 8.433-36.877c15.037-23.839 32.794-47.855 53.037-71.378 11.102-12.901 29.536-9.502 42.094-21.996 5.923-5.893 5.316-27.776 11.336-33.345 22.391-20.709 45.376-39.148 68.363-55.116 12.708-8.827 29.033-4.358 41.641-11.641 9.093-5.252 14.516-22.635 23.468-27.054 81.357-40.159 155.32-45.356 193.662-6.016z" fill="#d1a08f"/><path d="m491.738 26.952c-10.437-10.709-23.523-18.106-38.671-22.407 2.723 2.146 5.324 4.449 7.766 6.954 61.837 63.445-25.884 184.238-154.617 312.312-107.427 106.878-209.458 185.028-276.226 171.106 63.062 55.175 181.402-30.566 307.132-155.652 128.732-128.074 216.452-248.868 154.616-312.313z" fill="#c68d7a"/><path d="m328.035 64.757c-12.911-9.422-22.621-20.526-29.955-31.779-21.365 10.546-43.237 23.494-65.111 38.688 24.49 32.386 57.932 49.913 88.975 46.738 21.01-2.149 37.619-13.432 48.896-23.874 3.592-3.326 2.211-9.388-2.495-10.642-11.641-3.103-26.033-8.712-40.31-19.131z" fill="#fddeb0"/><path d="m368.345 83.888c-5.224-1.393-11.004-3.296-17.077-5.906-8.474 4.726-18.285 8.388-29.324 9.517-24.17 2.472-49.792-7.609-71.512-27.477-5.815 3.725-11.639 7.599-17.463 11.645 24.49 32.386 57.932 49.913 88.975 46.738 21.01-2.149 37.619-13.433 48.896-23.874 3.591-3.327 2.21-9.388-2.495-10.643z" fill="#fdd79b"/><path d="m239.925 192.423c3.592-3.326 2.211-9.388-2.495-10.642-11.641-3.103-26.033-8.713-40.31-19.131-14.475-10.563-24.931-23.237-32.515-35.869-6.021 5.569-11.999 11.298-17.923 17.192-12.286 12.223-23.888 24.695-34.78 37.31 23.189 24.814 52.069 37.782 79.127 35.015 21.01-2.15 37.62-13.434 48.896-23.875z" fill="#fddeb0"/><path d="m237.43 181.781c-5.224-1.393-11.004-3.296-17.077-5.906-8.475 4.726-18.285 8.388-29.324 9.517-21.418 2.191-43.973-5.485-63.947-21.082-5.2 5.623-10.266 11.283-15.18 16.973 23.189 24.814 52.068 37.782 79.127 35.015 21.01-2.149 37.619-13.433 48.896-23.874 3.592-3.327 2.211-9.389-2.495-10.643z" fill="#fdd79b"/><path d="m125.152 306.923c3.592-3.326 2.211-9.388-2.494-10.642-11.641-3.103-26.033-8.713-40.31-19.131-9.782-7.139-17.73-15.243-24.201-23.646-13.71 21.736-25.174 43.326-34.186 64.26 16.863 10.12 34.955 14.807 52.295 13.033 21.01-2.149 37.62-13.432 48.896-23.874z" fill="#fddeb0"/><path d="m122.658 296.281c-5.224-1.392-11.004-3.296-17.077-5.906-8.474 4.726-18.285 8.388-29.324 9.517-13.385 1.369-27.216-1.126-40.586-6.983-4.266 8.364-8.182 16.661-11.71 24.856 16.863 10.12 34.955 14.806 52.296 13.033 21.01-2.148 37.619-13.432 48.896-23.874 3.591-3.327 2.21-9.389-2.495-10.643z" fill="#fdd79b"/></g></g></svg>