<svg id="Capa_1" enable-background="new 0 0 512 512" height="512" viewBox="0 0 512 512" width="512" xmlns="http://www.w3.org/2000/svg"><g><path d="m332.209 512h-152.418c-29.578 0-54.878-21.255-59.979-50.39l-36.846-210.43h346.068l-36.846 210.43c-5.101 29.135-30.401 50.39-59.979 50.39z" fill="#aee69c"/><path d="m398.588 251.18-36.846 210.43c-5.101 29.135-30.401 50.39-59.979 50.39h30.446c29.578 0 54.878-21.255 59.979-50.389l36.846-210.43h-30.446z" fill="#89daa4"/><path d="m408.28 187.637c-4.156-.974-7.056-4.643-7.05-8.911 0-.027 0-.054 0-.081 0-32.103-26.025-58.128-58.128-58.128-7.311 0-14.304 1.353-20.747 3.818-4.728 1.809-9.942-.732-11.654-5.496-8.059-22.423-29.502-38.462-54.701-38.462s-46.642 16.039-54.701 38.463c-1.712 4.764-6.927 7.305-11.654 5.496-6.443-2.466-13.437-3.818-20.747-3.818-32.103 0-58.128 26.025-58.128 58.128v.081c.006 4.268-2.894 7.937-7.05 8.911-17.991 4.215-31.389 20.356-31.389 39.632 0 22.485 18.228 40.712 40.712 40.712h285.912c22.485 0 40.712-18.228 40.712-40.712.001-19.276-13.397-35.418-31.387-39.633z" fill="#feaee1"/><g><path d="m408.28 187.637c-4.156-.974-7.056-4.643-7.05-8.911 0-.027 0-.054 0-.081 0-32.103-26.025-58.128-58.128-58.128-5.269 0-10.369.713-15.221 2.028 24.716 6.692 42.903 29.266 42.903 56.099v.081c-.006 4.268 2.894 7.937 7.05 8.911 17.991 4.215 31.388 20.356 31.388 39.632 0 22.485-18.227 40.712-40.712 40.712h30.446c22.485 0 40.712-18.227 40.712-40.712 0-19.274-13.397-35.416-31.388-39.631z" fill="#fe93d3"/></g><g><circle cx="256" cy="73.677" fill="#f58a97" r="40.56"/><path d="m256 33.117c-5.386 0-10.521 1.059-15.223 2.965 14.855 6.021 25.337 20.58 25.337 37.595s-10.482 31.573-25.337 37.595c4.702 1.906 9.837 2.964 15.223 2.964 22.4 0 40.56-18.159 40.56-40.559 0-22.401-18.16-40.56-40.56-40.56z" fill="#f07281"/><g><path d="m255.929 65.981c-3.523 0-6.686-2.461-7.44-6.047-1.239-5.884-4.251-26.45 8.975-44.029 4.807-6.389 11.018-11.479 18.46-15.127 3.774-1.85 8.334-.29 10.184 3.485 1.85 3.774.29 8.334-3.485 10.184-5.27 2.584-9.642 6.153-12.995 10.609-9.371 12.455-7.148 27.445-6.244 31.743.979 4.656-2.673 9.182-7.455 9.182z" fill="#aee69c"/></g></g><circle cx="256" cy="389.535" fill="#f9f7f8" r="83.757"/><path d="m256 305.778c-5.201 0-10.284.498-15.223 1.406 38.986 7.162 68.534 41.295 68.534 82.352s-29.549 75.189-68.534 82.352c4.939.907 10.022 1.406 15.223 1.406 46.258 0 83.757-37.5 83.757-83.757 0-46.259-37.499-83.759-83.757-83.759z" fill="#efedef"/><g><g><path d="m168.901 191.145-19.243-19.244c-2.972-2.972-2.972-7.792.001-10.764 2.971-2.971 7.791-2.972 10.764.001l19.243 19.244c2.972 2.972 2.972 7.792-.001 10.764s-7.792 2.971-10.764-.001z" fill="#aee69c"/></g><g><path d="m241.369 175.923c-2.972-2.973-2.972-7.792 0-10.765l19.244-19.244c2.973-2.971 7.792-2.971 10.765 0 2.972 2.973 2.972 7.792 0 10.765l-19.244 19.244c-2.974 2.972-7.793 2.973-10.765 0z" fill="#ffe179"/></g><g><path d="m332.335 206.369c-2.973-2.972-2.973-7.792-.001-10.764l19.243-19.244c2.973-2.973 7.793-2.972 10.764-.001 2.973 2.972 2.973 7.792.001 10.764l-19.243 19.244c-2.973 2.972-7.791 2.973-10.764.001z" fill="#f58a97"/></g><g><path d="m290.685 236.814-19.243-19.244c-2.972-2.972-2.972-7.792.001-10.764 2.972-2.972 7.792-2.971 10.764.001l19.243 19.244c2.972 2.972 2.972 7.792-.001 10.764s-7.792 2.971-10.764-.001z" fill="#aee69c"/></g><g><path d="m189.239 236.815c-2.973-2.972-2.973-7.792-.001-10.764l19.243-19.244c2.973-2.973 7.793-2.972 10.764-.001 2.973 2.972 2.973 7.792.001 10.764l-19.243 19.244c-2.973 2.972-7.791 2.973-10.764.001z" fill="#f58a97"/></g></g></g></svg>